<svg width="64" height="64" viewBox="0 0 64 64" fill="none" xmlns="http://www.w3.org/2000/svg">
<g clip-path="url(#clip0_55_6334)">
<path fill-rule="evenodd" clip-rule="evenodd" d="M14.0427 19.05C14.3822 18.7678 14.6874 18.6707 14.6874 18.6707C14.6518 19.3215 14.7337 19.8746 14.8817 20.3411C14.9849 20.6766 15.134 20.9964 15.3244 21.2912C15.8873 22.1579 16.6122 22.4973 16.6122 22.4973C16.6987 20.8302 17.5537 20.267 17.5537 20.267C17.4119 21.2403 17.4212 23.7342 18.2727 25.7131C19.2659 28.0175 18.2402 27.9141 19.6222 30.8045C21.362 34.4384 26.293 34.3938 26.293 34.3938C23.4658 35.208 20.3424 34.2224 18.8124 31.6912C18.2094 30.6903 17.9656 29.8684 17.8561 29.1526C17.1589 28.9182 16.0193 27.931 15.9499 27.8694C16.0052 27.8818 16.9107 28.0883 17.7619 28.0916C17.7328 27.4698 17.7174 26.9184 17.4936 26.3627C16.6701 26.2626 15.7785 25.7134 15.7785 25.7134C15.6876 27.3114 14.8679 28.1071 13.9401 28.3837L13.7049 29.5938C14.6009 30.7952 16.8605 32.5643 16.8605 32.5643C16.8605 32.5643 14.962 31.9721 13.5137 30.5685C13.3373 31.4724 13.1609 32.3762 12.9845 33.28C13.9086 34.0265 14.8723 34.6714 15.7939 35.2388C18.5053 36.9092 22.208 37.6687 23.167 37.6225C24.0893 37.4588 25.0409 37.257 25.9862 37.0317C25.0161 36.8081 22.7089 36.2291 21.4225 35.5219C22.3726 35.5695 26.0572 36.0569 29.5879 36.0785C32.8884 35.1253 35.4673 34.1814 35.4673 34.1814C35.4673 34.1814 34.109 32.2827 35.0724 30.0649C36.0359 27.847 38.1001 27.3193 39.0919 27.1784C39.9325 26.5445 41.0554 24.1553 41.1911 21.9745C41.3314 19.6993 39.7381 18.9143 38.8252 17.7328C37.9121 16.5514 37.3212 15.0076 36.1336 13.4836C37.2443 14.0311 37.9768 15.02 37.9768 15.02C38.1341 14.6051 38.9578 12.2698 38.2343 10.8554C37.4368 9.30073 35.6356 8.60041 35.6356 8.60041C35.8375 8.36889 36.3572 8.13163 36.3572 8.13163C33.7487 6.82054 31.3615 8.52957 31.3615 8.52957C31.2937 8.14368 31.3415 7.72907 31.3415 7.72907C30.012 8.84724 29.6357 10.9295 29.6357 10.9295C32.4505 10.911 33.4529 11.9999 33.4529 11.9999C30.4254 11.4785 27.026 11.7562 24.3915 13.0919C21.757 14.4275 19.3972 17.2055 19.3972 17.2055C19.7166 15.6059 20.5542 14.8857 20.5542 14.8857C19.1598 13.7936 17.6792 13.9726 17.6792 13.9726C17.9584 14.1747 18.2729 14.699 18.2729 14.699C17.6696 14.7342 17.078 14.8796 16.527 15.1278C16.2824 15.237 16.0472 15.366 15.8236 15.5137C15.2159 15.9101 14.7225 16.4161 14.3862 16.9512C13.9188 17.6885 13.7477 18.4794 13.9712 19.1137C13.9948 19.0916 14.0195 19.07 14.0427 19.05ZM28.2386 18.2279C28.2386 18.2279 28.6458 16.8459 30.0987 16.2229C31.5517 15.5997 34.4561 16.0964 36.1049 17.8793C37.7537 19.6624 37.2709 21.5595 35.9212 22.2859C33.8668 23.3903 33.1187 22.1796 31.4222 21.6011C29.7257 21.0229 27.6497 20.5601 28.2386 18.2279ZM29.4338 22.9369C30.4318 22.7965 30.768 23.432 30.3933 24.3002C30.0185 25.1685 29.4755 25.5814 29.0129 25.6915C28.092 25.9076 26.9907 25.1101 26.9629 24.4931C26.935 23.8761 28.4361 23.0757 29.4338 22.9369ZM29.9783 26.5506C30.6816 26.9749 32.2456 26.6402 32.3474 24.7121C32.3474 24.7121 33.2481 25.8904 32.2533 26.913C32.5294 27.3001 32.972 29.401 31.4005 30.2184C29.6745 31.1175 28.4791 29.3099 28.2215 28.8057C27.0539 28.6868 26.8411 27.6365 26.8411 27.6365C29.019 28.6868 29.9784 26.5506 29.9784 26.5506H29.9783ZM19.8803 23.799C20.1119 21.1122 22.1107 18.5735 24.4782 19.1427C26.7717 19.6948 26.3677 21.8032 25.8756 23.1636C25.3835 24.524 25.5486 25.2642 25.1693 26.2931C24.7899 27.3217 23.8072 28.1254 22.507 28.0451C20.8362 27.9418 19.6754 26.3949 19.8805 23.799H19.8803Z" fill="#797979"/>
<path fill-rule="evenodd" clip-rule="evenodd" d="M42.2327 26.4981C42.2327 26.4981 41.705 27.7282 39.5195 28.1563C37.0781 28.6347 35.4074 30.3973 36.532 31.9225C37.6826 33.4835 40.5576 33.0717 40.5576 33.0717C37.9741 34.489 36.0183 32.8512 36.0183 32.8512C36.9331 35.0585 40.2786 35.7707 42.9777 33.5343C45.6766 31.2979 45.9143 28.4645 45.9143 28.4645C45.592 29.1864 44.9196 29.9652 44.8779 30.0132C44.9147 29.9236 45.7245 27.9401 45.612 26.4333C45.4963 24.8909 44.2962 23.7095 42.1786 22.7578C42.0845 24.9202 40.5128 27.0148 40.5128 27.0148C41.2101 26.9102 42.2327 26.4981 42.2327 26.4981Z" fill="#797979"/>
<path fill-rule="evenodd" clip-rule="evenodd" d="M27.7313 24.7955C28.4747 25.3845 29.0376 25.1393 29.5297 24.5888C30.0218 24.0381 29.8673 23.577 29.141 23.7928C28.4145 24.0085 28.0475 24.225 27.7142 24.4284C27.6356 24.4763 27.4628 24.5825 27.7313 24.7955Z" fill="#797979"/>
<path fill-rule="evenodd" clip-rule="evenodd" d="M38.5218 39.5827C40.0779 40.4173 42.5735 42.4671 43.3617 46.5188C43.28 46.3461 40.6913 40.9062 34.9647 40.698C28.6239 42.5409 21.9965 43.7888 20.8257 43.7611C20.8056 44.7498 22.7074 56.3566 23.5049 60.2772C27.8805 62.5722 34.3406 61.6175 37.1548 60.9235C42.0334 59.5446 45.3171 53.864 45.3171 53.864C45.0749 56.7113 43.0789 58.9831 43.0172 59.0542C45.8966 57.7045 49.8021 54.2804 50.3742 53.0095C48.6796 47.5401 46.9852 42.0708 45.2906 36.6013C43.6625 37.6481 41.2317 38.663 38.5218 39.5827Z" fill="#797979"/>
<path fill-rule="evenodd" clip-rule="evenodd" d="M11.8479 28.2102C11.57 28.0684 11.3513 27.8818 11.2232 27.6673C11.2232 27.6673 11.5055 27.7629 11.9127 27.8093C12.1441 27.836 12.3775 27.8406 12.6097 27.8231C12.8888 27.8 13.1819 27.7383 13.4627 27.6103C13.747 27.4836 13.999 27.2943 14.1998 27.0566C14.7783 26.3733 14.8879 25.4895 14.6705 24.6411C14.5773 24.2812 14.4334 23.9363 14.2431 23.617C14.0312 23.2569 13.7654 22.9313 13.455 22.6516C13.2636 22.4768 13.0542 22.3226 12.8303 22.1919C12.583 22.0463 12.3175 21.9342 12.0406 21.8587C9.89353 21.2803 7.33014 23.9347 8.66023 27.5779C9.24787 29.1897 10.1825 30.5485 11.2761 31.7069L11.8479 28.2102Z" fill="#797979"/>
<path fill-rule="evenodd" clip-rule="evenodd" d="M46.6531 25.9068C46.6531 25.9068 48.0675 29.5438 44.3841 33.574C41.9935 36.1189 38.1777 36.7359 36.1723 34.9992C36.1723 34.9992 30.08 37.2756 25.0278 38.2582C19.9779 39.2407 16.2979 39.4613 17.1538 37.0953C16.7731 36.9333 16.315 36.6911 15.8646 36.4352C13.332 37.3204 12.7058 39.327 13.3639 40.7738C12.0436 40.0536 11.3927 37.626 14.5547 35.6531C14.2044 35.4342 13.9746 35.2828 13.9746 35.2828C13.9746 35.2828 11.1922 36.4334 9.97058 38.4508C8.74901 40.4682 9.7131 42.4732 12.3105 42.8079C14.9078 43.1425 22.1944 42.9632 32.6444 40.1867C43.0943 37.4104 51.0745 32.5133 52.155 29.4288C53.2354 26.3443 48.8125 25.6375 46.6531 25.9068Z" fill="#797979"/>
<path fill-rule="evenodd" clip-rule="evenodd" d="M29.4755 20.1745C29.517 20.2691 29.9254 20.618 30.0053 20.7084C30.0851 20.7989 30.2596 20.8556 30.2596 20.8556C30.5574 20.9478 30.8551 21.0399 31.1529 21.1319C31.4505 21.2241 32.1169 21.3377 32.1491 21.3571C32.1813 21.3763 32.954 21.5666 32.954 21.5666C32.954 21.5666 34.4497 21.524 34.4753 21.524C34.5009 21.524 34.9832 21.3763 35.0024 21.3633C35.0215 21.3504 35.51 20.9003 35.51 20.9003C35.5764 20.5446 35.6428 20.189 35.7093 19.8333C35.7093 19.5056 35.7093 19.1778 35.7093 18.8501C35.7093 18.5223 35.163 17.6998 35.1566 17.6741C35.15 17.6484 34.9151 17.3191 34.9151 17.3191C34.7729 17.2062 34.6305 17.0933 34.4881 16.9803L33.4213 16.6145C33.4213 16.6145 32.9154 16.4723 32.8965 16.4679C32.8775 16.4636 32.2255 16.4154 32.2062 16.4328C32.1868 16.45 31.5116 16.4328 31.5116 16.4328C31.2933 16.4235 31.0748 16.4141 30.8565 16.4049C30.6382 16.3957 30.0946 16.6032 30.0693 16.6145C30.044 16.6261 29.4301 17.1032 29.4172 17.1224C29.4041 17.1416 29.1601 17.7944 29.1601 17.7944C29.1601 17.7944 29.0574 18.3242 29.0508 18.3435C29.0443 18.3629 29.1859 19.4746 29.1859 19.4746C29.1859 19.4746 29.4338 20.0799 29.4755 20.1745Z" fill="#797979"/>
<path fill-rule="evenodd" clip-rule="evenodd" d="M21.4614 26.2477C21.7378 26.3505 22.0141 26.4535 22.2904 26.5563C22.705 26.5563 23.1194 26.5563 23.534 26.5563C23.563 26.5563 24.2377 26.1419 24.2377 26.1419C24.4401 26.0039 24.6426 25.866 24.845 25.7279C25.0476 25.5899 25.1729 25.0333 25.1825 24.9562C25.1922 24.8789 25.2693 23.9972 25.2693 23.9972C25.2693 23.9972 25.4822 23.3149 25.5015 23.2595C25.521 23.204 25.5874 22.845 25.6328 22.7964C25.6782 22.7477 25.781 22.3333 25.781 22.3333L25.9144 21.8318C25.908 21.6504 25.9016 21.4689 25.8952 21.2874C25.9016 21.0994 25.908 20.9114 25.9144 20.7234C25.7988 20.5467 25.6831 20.3699 25.5675 20.1931C25.4388 20.0458 25.3102 19.8986 25.1815 19.7513C24.9342 19.7153 24.6867 19.6792 24.4393 19.6432C24.4071 20.0545 24.375 20.4658 24.3428 20.8771C23.8481 20.7903 23.3533 20.7036 22.8583 20.6168C22.1499 20.9616 21.4415 21.3063 20.7331 21.6511L20.5698 21.9861C20.4302 22.4714 20.2904 22.9565 20.1506 23.4418C20.2244 23.9462 20.2983 24.4507 20.3721 24.9552C20.4461 25.4596 20.9796 25.8998 21.0084 25.9192C21.0373 25.9385 21.4614 26.2477 21.4614 26.2477Z" fill="#797979"/>
<path fill-rule="evenodd" clip-rule="evenodd" d="M50.5257 51.3209C50.2525 50.5594 49.9794 49.798 49.7063 49.0365C49.3946 48.0211 49.083 47.0056 48.7712 45.9901L47.6047 42.5001C47.338 41.5393 47.0714 40.5784 46.8047 39.6177C46.3901 38.3871 45.9756 37.1564 45.5611 35.9258L38.016 39.2098C36.6062 39.6041 35.1964 39.9982 33.7867 40.3924C32.5528 40.7565 31.3189 41.1207 30.0849 41.4849L26.2812 42.2686C24.9103 42.5599 23.5393 42.8513 22.1684 43.1425C21.7356 43.2668 21.303 43.3912 20.8702 43.5155C24.4177 45.1221 28.2486 42.2557 33.0807 43.9013C37.913 45.5471 41.0753 49.1455 41.1781 51.7161C41.1781 51.7161 42.4506 50.2764 42.5278 48.7216C43.9287 54.724 40.6384 59.9939 29.7132 61.9988C29.7132 61.9988 34.122 62.3202 36.4612 61.7803C38.8003 61.2406 40.8312 60.5336 40.8312 60.5336C41.7203 60.162 42.6093 59.7902 43.4982 59.4186C44.1473 59.0973 44.7964 58.776 45.4455 58.4546C46.1427 57.9083 46.84 57.3621 47.5373 56.8158C48.302 56.0929 49.0669 55.3698 49.8316 54.6469C50.2011 54.1264 50.5706 53.6057 50.9401 53.0852L50.5257 51.3209Z" fill="#4B4B4B"/>
<path fill-rule="evenodd" clip-rule="evenodd" d="M27.3996 37.131C27.7275 36.9702 28.0551 36.8097 28.383 36.649C27.3996 34.075 26.4163 31.5012 25.433 28.9274L17.9848 27.2374C17.9848 27.2374 16.6994 26.9737 15.4841 26.2477L15.0414 25.1968C13.8194 23.0248 11.5516 22.758 10.1637 24.3647C8.7757 25.9713 9.3919 28.696 11.7446 30.9325C14.0973 33.1689 19.4308 36.8577 25.7032 37.4234L27.3996 37.131Z" fill="#4B4B4B"/>
<path fill-rule="evenodd" clip-rule="evenodd" d="M31.1724 20.7976C32.438 21.2988 34.3109 22.4401 35.5448 21.726C36.7788 21.0121 36.7943 19.3971 35.1377 17.989C34.8353 17.7328 33.1928 16.4727 31.4284 16.6269C29.664 16.7811 28.6212 18.1695 28.8969 19.2367C29.1727 20.3038 29.9969 20.3318 31.1724 20.7976ZM30.7666 19.0963C30.8313 18.3128 31.5609 17.7314 32.3985 17.7997C33.236 17.8681 33.8624 18.556 33.7989 19.339C33.7944 19.4071 33.784 19.4746 33.7681 19.5411C33.5506 19.0721 33.0693 18.723 32.4869 18.6756C31.7233 18.6139 31.0479 19.0906 30.8889 19.7693C30.7909 19.5593 30.7488 19.3274 30.7666 19.0963Z" fill="#4B4B4B"/>
<path fill-rule="evenodd" clip-rule="evenodd" d="M22.5597 27.3943C24.4212 27.3373 24.6619 25.5342 24.9504 24.1075C25.2388 22.6808 26.3293 21.1802 24.9504 20.1065C23.4773 18.9591 20.8661 20.7467 20.6038 23.307C20.462 24.6889 20.6995 27.4529 22.5597 27.3943ZM22.1139 22.8829C22.4887 22.1318 23.3632 21.8079 24.0665 22.1574C24.2737 22.2613 24.4507 22.4171 24.5802 22.6094C23.9165 22.3949 23.1601 22.7264 22.8174 23.4119C22.5567 23.9347 22.6059 24.5271 22.8959 24.9555C22.8306 24.935 22.7672 24.9092 22.7062 24.8784C22.0027 24.5271 21.7376 23.6341 22.1139 22.8829Z" fill="#4B4B4B"/>
<path fill-rule="evenodd" clip-rule="evenodd" d="M28.3379 25.2122C28.8009 25.3857 28.8425 25.4629 29.1574 25.2122C29.4722 24.9616 29.9157 24.5278 29.9157 24.5278C29.9736 24.4046 30.0313 24.2816 30.0892 24.1584C30.0892 24.0727 30.0892 23.9869 30.0892 23.9013C30.0892 23.8885 29.9478 23.5382 29.9478 23.5382C29.9478 23.5382 29.778 23.4224 29.7678 23.4224C29.7577 23.4224 29.5236 23.4162 29.4562 23.4354C29.3887 23.4547 29.2343 23.4643 29.1347 23.5126C29.0352 23.561 28.2993 23.9398 28.2993 23.9398C28.2993 23.9398 27.8748 25.0394 28.3379 25.2122Z" fill="#4B4B4B"/>
<path fill-rule="evenodd" clip-rule="evenodd" d="M15.6196 20.1262C15.7112 19.7985 16.2559 19.3134 16.2559 19.3134C15.9862 20.92 16.8923 21.8711 16.8923 21.8711C18.878 22.1538 19.7135 21.537 19.7135 21.537C19.7135 21.537 23.5569 16.2543 20.369 15.4059C17.1811 14.5576 15.6679 16.965 15.6679 16.965C16.0969 16.7963 16.8923 16.8203 16.8923 16.8203C15.2728 17.9861 15.6196 20.1262 15.6196 20.1262Z" fill="#4B4B4B"/>
<path fill-rule="evenodd" clip-rule="evenodd" d="M36.1654 15.1104C36.5553 14.9733 36.9452 14.8362 37.335 14.699C38.4787 12.0256 36.6249 10.8431 36.6249 10.8431C37.012 10.8309 37.3996 10.8438 37.785 10.8816C36.0342 8.74797 33.4277 9.55123 33.4277 9.55123C33.646 9.06934 34.1859 8.58096 34.1859 8.58096C32.1038 8.63236 30.5422 10.0912 30.3367 11.2158L31.2042 12.9255L36.1654 15.1104Z" fill="#4B4B4B"/>
<path fill-rule="evenodd" clip-rule="evenodd" d="M41.7389 26.9369C42.8282 26.344 42.4701 24.9687 41.686 24.3127C41.686 24.3127 40.4519 26.3627 40.2399 27.014C40.028 27.6652 40.6496 27.5297 41.7389 26.9369Z" fill="#4B4B4B"/>
<path fill-rule="evenodd" clip-rule="evenodd" d="M35.9052 37.6805C43.7165 35.8296 50.0468 31.2539 50.5352 29.2102C51.0236 27.1666 47.7331 27.1794 47.7331 27.1794C47.4633 28.3233 46.5446 29.3227 46.5446 29.3227C46.5446 29.3227 45.679 30.6614 45.4778 31.0919C45.6556 30.7112 45.8333 30.3305 46.0111 29.9497C46.0862 29.6862 46.1612 29.4228 46.2363 29.1593C46.294 28.7051 46.3519 28.251 46.4098 27.7969C46.3647 27.362 46.3197 26.9272 46.2747 26.4923C46.129 26.0595 45.9834 25.6269 45.8379 25.1941C45.5314 24.7293 45.2251 24.2644 44.9187 23.7996C44.6573 23.6261 44.396 23.4526 44.1346 23.2791C44.0169 23.3198 43.899 23.3606 43.7812 23.4013C43.6635 23.4421 45.6577 25.9011 44.2891 29.0631C44.2891 29.0631 44.4755 27.7713 44.1925 27.0064C44.1925 27.0064 43.4153 30.2006 40.626 31.6658C37.8368 33.1311 35.7988 30.4934 37.6954 28.5682C37.6954 28.5682 36.6156 28.716 36.4373 29.1256C36.2588 29.5353 35.7545 29.6994 35.6003 30.4191C35.507 30.8627 35.4682 31.3158 35.4844 31.7686C35.4405 32.1274 35.439 32.4901 35.4803 32.8491C35.5488 33.4403 36.1143 34.1087 36.1143 34.1087C36.1893 34.1699 36.2642 34.2312 36.3392 34.2923C35.8914 34.4711 35.4439 34.6497 34.9961 34.8285C33.5695 35.3327 32.1427 35.8369 30.7161 36.3412C29.3474 36.6689 27.9788 36.9967 26.6102 37.3244C25.2767 37.6265 23.9431 37.9285 22.6096 38.2306C21.7934 38.2434 20.9772 38.2562 20.1611 38.269C19.6598 38.1759 19.1586 38.0827 18.6572 37.9896C18.4645 37.6522 18.2717 37.3147 18.0788 36.9774C17.3253 36.5966 16.5717 36.2159 15.8182 35.8352C15.5275 35.9107 15.2366 35.9862 14.9458 36.0617C14.5302 36.319 14.1148 36.5763 13.6992 36.8336C13.2837 37.0909 12.4781 38.5043 12.6967 39.4422C12.9216 40.4189 13.2107 42.694 22.0794 41.2544C30.9481 39.815 35.9052 37.6805 35.9052 37.6805ZM44.4371 32.6548C44.5755 32.4732 44.7139 32.2917 44.8523 32.1101C44.669 32.3822 44.4681 32.6753 44.2702 32.9762C43.7789 33.7229 43.0626 33.9726 42.5328 34.3787C42.8462 34.1382 43.1597 33.8978 43.4733 33.6573L44.4371 32.6548ZM41.179 34.9106C41.6001 34.7551 42.0212 34.5997 42.4423 34.4442C41.9946 34.7567 41.3984 34.9565 40.5644 35.1332L41.179 34.9106ZM36.9958 34.8271L38.7569 35.3597C38.2954 35.3597 37.9161 35.3021 37.6076 35.2029C37.0409 35.0205 36.3436 34.2965 36.3386 34.2915L36.9958 34.8271Z" fill="#4B4B4B"/>
<path fill-rule="evenodd" clip-rule="evenodd" d="M29.7132 24.8531C30.0538 24.6923 30.0056 24.3517 30.009 24.3357C30.0124 24.3196 30.0923 24.1172 30.1277 23.9179C30.1633 23.7187 29.9703 23.6672 29.7265 23.5357C29.4826 23.404 29.0067 23.4906 29.0067 23.4906C28.9318 23.5677 28.8567 23.6449 28.7817 23.7221C29.5081 24.1269 28.6084 24.5833 28.544 25.316C28.9097 25.4539 29.3721 25.0138 29.7132 24.8531Z" fill="#383838"/>
<path fill-rule="evenodd" clip-rule="evenodd" d="M19.4853 24.2425C19.4853 24.281 19.7358 25.9969 19.765 26.3202C19.794 26.6433 20.2757 27.5684 20.3052 27.6453C20.3346 27.7224 22.1077 28.8792 22.2621 28.9468C22.4165 29.0142 23.4959 29.0334 23.5249 29.0142C23.5539 28.9948 24.9516 28.1653 24.9804 28.137C25.0093 28.1087 25.7614 25.9873 25.7614 25.9873C25.6231 25.2675 25.4849 24.5477 25.3468 23.8279C24.8745 23.8377 23.692 26.0163 22.5544 26.1124C21.4169 26.2086 20.8129 25.1099 20.4852 23.619C20.4846 23.6191 19.4853 24.2039 19.4853 24.2425Z" fill="#383838"/>
<path fill-rule="evenodd" clip-rule="evenodd" d="M34.7387 23.6191C34.7773 23.6191 36.5511 23.3235 36.9496 23.1949C37.3481 23.0663 37.9649 22.1538 37.9649 22.1538C38.1707 21.5454 38.3765 20.9371 38.5823 20.3287C38.7881 19.7204 38.0939 19.0562 38.0811 19.0175C38.0683 18.979 36.2298 16.4472 35.15 15.9663C34.0703 15.4854 34.3917 15.7022 34.2633 15.6637C34.1348 15.625 33.5433 15.9336 33.5177 15.9663C33.4921 15.999 33.4533 16.8589 33.4533 16.8589C35.2914 17.8229 35.6802 19.9051 34.668 20.5895C33.6557 21.274 32.6434 20.6861 31.3198 21.0812C31.3198 21.0812 31.5255 22.0382 31.5514 22.0774C31.5774 22.1166 34.7 23.6191 34.7387 23.6191Z" fill="#383838"/>
<path fill-rule="evenodd" clip-rule="evenodd" d="M17.2842 18.4009C17.0787 19.0491 17.1043 20.0492 17.2873 20.7576C17.2873 20.7576 17.297 21.0903 17.297 21.1191C17.297 21.148 19.8131 20.0202 19.8131 20.0202C20.3047 19.3647 20.7964 18.7092 21.2879 18.0537C21.7796 17.3982 21.4904 16.7233 19.9577 16.251C18.425 15.7787 17.5792 16.7266 17.5792 16.7266C17.7978 16.7137 18.1063 16.7909 18.1063 16.7909C16.9109 17.591 16.7438 18.7992 16.7438 18.7992C16.8537 18.6321 17.2842 18.4009 17.2842 18.4009Z" fill="#383838"/>
<path fill-rule="evenodd" clip-rule="evenodd" d="M35.5549 14.7469C35.5549 14.7469 36.1237 14.9878 36.5961 13.9083C37.0685 12.8287 35.9381 11.761 35.9381 11.761C36.1126 11.8151 36.284 11.8786 36.4515 11.9513C35.6322 10.2935 33.9255 10.5442 33.9255 10.5442C34.0532 10.3732 34.398 10.1875 34.398 10.1875C32.6242 9.77306 31.5382 11.3379 31.5382 11.3379C31.5113 11.5746 31.4845 11.8113 31.4577 12.048C31.7791 12.5042 32.1004 12.9605 32.4216 13.4168L35.5549 14.7469Z" fill="#383838"/>
<path fill-rule="evenodd" clip-rule="evenodd" d="M41.2939 25.2193C40.8911 25.7719 40.4883 26.3248 40.0856 26.8774C40.0685 27.0916 40.0513 27.3058 40.0342 27.52C40.499 27.3357 40.9639 27.1515 41.4289 26.9672C42.0138 26.2026 41.6923 25.5209 41.2939 25.2193Z" fill="#383838"/>
<path fill-rule="evenodd" clip-rule="evenodd" d="M36.5913 32.8267C36.3855 32.7142 36.1797 32.6018 35.9739 32.4894C35.8663 32.5456 35.7587 32.6018 35.6511 32.6581C35.6511 32.8058 35.6511 32.9538 35.6511 33.1015C35.6511 33.116 35.8438 33.5593 35.8438 33.5593C36.0445 33.8325 36.245 34.1056 36.4457 34.3788C36.7783 34.5651 37.1108 34.7516 37.4435 34.9379C37.8804 35.0375 38.3175 35.1371 38.7544 35.2367C39.0452 35.2656 39.3361 35.2946 39.6269 35.3235C39.9176 35.3523 40.7691 35.1259 40.7886 35.1114C40.8079 35.0969 41.7526 34.7982 41.7716 34.7739C41.7908 34.7497 42.3918 34.57 43.485 34.1651C44.5781 33.7602 45.4131 32.8542 45.7086 32.4235C46.7818 31.8709 48.0769 30.1902 46.3415 29.7179C46.3415 29.7179 45.9687 29.5057 46.0946 28.8312C46.2203 28.1565 45.8022 27.5972 45.3971 28.9179C44.9921 30.2386 43.5431 31.6716 43.5431 31.6716C43.7232 31.299 43.797 30.0354 43.797 30.0354C42.9873 31.2212 41.4223 33.3096 39.3144 33.2969C38.6525 33.2301 37.9906 33.1631 37.3286 33.0963L36.5913 32.8267Z" fill="#383838"/>
<path fill-rule="evenodd" clip-rule="evenodd" d="M39.382 35.685C38.357 35.3283 37.3319 34.9716 36.3069 34.6149C36.159 34.5744 36.0112 34.5337 35.8633 34.493C34.8737 34.8892 33.884 35.2853 32.8943 35.6816C31.9839 35.9515 31.0734 36.2214 30.163 36.4914C29.9154 36.5537 29.6677 36.6161 29.42 36.6785C29.8008 36.5561 30.1815 36.4336 30.5622 36.3112C31.1406 36.128 31.7191 35.945 32.2975 35.7618L36.1328 34.3258C35.9465 33.9883 35.7602 33.6509 35.5737 33.3136C35.4678 32.7866 35.3617 32.2597 35.2557 31.7326C35.1754 31.6362 35.095 31.5398 35.0146 31.4433C35.1153 31.1918 35.216 30.94 35.3166 30.6883C32.2963 30.8339 29.2761 30.9796 26.2559 31.1253C23.2357 31.271 18.4283 29.2487 17.1557 28.259C17.1557 28.259 16.0888 27.9699 15.7162 27.7706C15.7162 27.7706 16.1113 28.5998 16.6368 28.9948C16.6368 28.9948 15.2534 28.3877 14.4725 27.7369C14.609 27.4187 14.7457 27.1007 14.8822 26.7826C14.8581 26.6813 14.834 26.5801 14.81 26.4788C14.7859 26.3777 14.3469 24.3002 12.1367 24.763C9.92644 25.2258 10.4335 28.3105 11.963 29.3515C11.963 29.3515 12.7536 29.2487 13.7176 30.187C14.6816 31.1252 15.1812 31.5061 15.1812 31.5061C15.4833 31.6972 15.7852 31.8885 16.0873 32.0796C17.2802 32.8846 19.5046 33.9979 21.2784 34.6438C21.2784 34.6438 19.6812 34.7499 18.6403 34.582C18.6403 34.582 21.8985 35.8674 24.4305 36.2015C26.9626 36.5358 28.0358 36.9856 28.0358 36.9856C28.193 36.9599 28.3501 36.9341 28.5073 36.9084L27.6373 37.1285C26.7868 37.3535 25.9365 37.5785 25.0861 37.8035C24.2999 37.9385 23.5137 38.0735 22.7275 38.2084C21.8235 38.2876 20.9194 38.3669 20.0155 38.4461C19.2999 37.9019 18.5844 37.3579 17.869 36.8138C17.3441 36.7151 16.8193 36.6165 16.2945 36.5178C15.0799 37.3022 14.3795 39.3392 16.9243 40.1745C19.4692 41.0099 28.8648 39.8406 36.4224 35.9845C36.4224 35.9838 38.7261 36.1958 39.382 35.685Z" fill="#383838"/>
<path fill-rule="evenodd" clip-rule="evenodd" d="M50.2718 50.8033C50.1004 50.1908 49.9291 49.5782 49.7575 48.9655L48.858 46.4208C48.5859 45.5339 48.3138 44.647 48.0418 43.7601C47.8404 43.1088 47.639 42.4576 47.4376 41.8064L46.8142 39.6277C46.5809 38.8713 46.3473 38.115 46.1138 37.3587C45.8781 36.8981 45.6425 36.4376 45.4068 35.977C44.9763 36.1698 44.5458 36.3625 44.1153 36.5554C43.4769 36.8744 42.8384 37.1934 42.2 37.5124C41.2275 37.9173 40.2551 38.3223 39.2826 38.7273C38.4001 38.9779 37.5175 39.2284 36.635 39.479C35.7525 39.7296 38.6015 40.2631 39.1412 40.8897C39.6811 41.5162 40.7028 41.8825 41.0596 42.4804C41.4163 43.0781 41.8982 43.4347 42.0814 43.8973C42.2647 44.36 42.5444 44.5705 42.7465 45.1698C43.5852 46.8568 44.3275 48.8364 44.366 49.6718C44.366 49.6718 44.8416 48.0393 44.8546 46.137C44.8546 46.137 47.1486 53.1742 43.8007 56.6895C40.5486 60.1212 42.1681 60.0119 43.19 59.5364C44.2119 59.0608 46.0755 57.8911 46.0755 57.8911C46.7096 57.3921 47.3436 56.8929 47.9776 56.3938C48.526 55.8839 49.0746 55.3742 49.623 54.8644C50.0492 54.3351 50.4756 53.8061 50.902 53.2769C50.9169 53.1804 50.9317 53.084 50.9466 52.9876L50.2718 50.8033Z" fill="#383838"/>
<path fill-rule="evenodd" clip-rule="evenodd" d="M28.9035 53.7597C28.0544 47.0889 22.5989 44.409 20.4396 44.4958C21.2879 49.8116 22.1361 55.1276 22.9845 60.4436C23.0338 60.5035 23.083 60.5635 23.1324 60.6235C24.2035 60.9961 25.2745 61.3689 26.3458 61.7415C33.2349 59.8649 30.3301 51.5748 29.546 50.5849C29.6874 52.487 28.9035 53.7597 28.9035 53.7597Z" fill="#A7A5A5"/>
<path fill-rule="evenodd" clip-rule="evenodd" d="M52.7284 27.6406C52.5853 27.4108 52.4424 27.1811 52.2993 26.9514C52.0648 26.728 51.8301 26.5047 51.5956 26.2812C51.2647 26.1367 50.9337 25.9921 50.6028 25.8476C50.0357 25.7479 49.4685 25.6484 48.9014 25.5487C48.8483 25.6081 48.7954 25.6676 48.7423 25.727C51.5956 26.3054 52.2505 29.1008 50.1496 32.3206C50.4436 32.1937 50.7377 32.0667 51.0317 31.9398C51.2213 31.7245 51.4109 31.5093 51.6004 31.294C51.79 31.0787 52.3138 30.3974 52.3187 30.3834C52.3234 30.3691 52.6947 29.4192 52.6947 29.4192C52.7219 29.1429 52.7492 28.8666 52.7765 28.5901L52.7284 27.6406Z" fill="#A7A5A5"/>
<path fill-rule="evenodd" clip-rule="evenodd" d="M11.7446 41.6522C9.5853 39.904 10.7806 37.6996 13.5184 35.1933C13.5184 35.1933 12.1755 35.7268 10.4273 37.0958C8.67907 38.4647 8.82061 39.6406 8.82061 39.6406C8.86558 40.1397 8.91055 40.6389 8.95552 41.1379C9.0005 41.637 9.57881 42.2433 9.68177 42.3463C9.78472 42.4492 11.1018 43.0254 11.1018 43.0254C11.5967 43.1052 12.0916 43.1849 12.5864 43.2646C13.0813 43.3444 14.7263 43.6181 14.7521 43.6181C15.2234 43.6181 15.6946 43.6181 16.1659 43.6181C17.2114 43.4059 18.2567 43.1939 19.3022 42.9817C20.3475 42.7695 13.9039 43.4003 11.7446 41.6522Z" fill="#A7A5A5"/>
<path fill-rule="evenodd" clip-rule="evenodd" d="M11.932 31.973C8.4477 28.6377 8.07308 25.1257 9.25745 23.5557C10.4418 21.9857 12.1046 21.8704 13.0813 22.179C12.9346 21.9861 12.7878 21.7934 12.6411 21.6006C12.3375 21.5266 12.034 21.4527 11.7304 21.3788C11.4203 21.3788 11.1102 21.3788 10.8001 21.3788C10.4916 21.4766 10.1832 21.5743 9.87471 21.6721C9.518 21.9725 9.16128 22.2729 8.80457 22.5734C8.60698 22.9237 8.40941 23.274 8.21183 23.6242C8.07529 24.0017 7.93872 24.3793 7.80218 24.7569C7.80218 25.0542 7.80218 25.3514 7.80218 25.6486C7.85517 26.1177 7.90816 26.5867 7.96117 27.0558C8.10575 27.4576 8.25032 27.8592 8.3949 28.2608C8.64393 28.7686 8.89296 29.2763 9.142 29.784C9.5019 30.3576 9.86181 30.9312 10.2217 31.5046C10.5221 31.834 10.8226 32.1633 11.123 32.4925C11.6644 32.9489 12.2059 33.4052 12.7473 33.8615L14.4921 35.0198C14.9933 35.3074 15.4946 35.595 15.9958 35.8825C16.5568 36.1637 17.1175 36.4449 17.6783 36.726C18.4721 36.996 19.2657 37.2659 20.0593 37.5359L22.7347 37.8732C19.3489 36.8338 15.4164 35.3089 11.932 31.973Z" fill="#A7A5A5"/>
<path fill-rule="evenodd" clip-rule="evenodd" d="M14.103 19.7567C14.1501 19.6517 14.1973 19.5467 14.2444 19.4418C14.3323 19.8016 14.42 20.1616 14.5079 20.5215C14.6707 20.8385 14.8336 21.1556 14.9964 21.4726C15.1593 21.7897 15.639 22.2568 15.6583 22.2952C15.6775 22.3336 16.7894 23.0279 16.7894 23.0279C16.798 22.7837 16.8065 22.5394 16.815 22.2952C16.3234 22.0349 14.8871 20.5022 15.1185 18.3236C15.1185 18.3236 14.6944 18.33 14.3468 18.5485C14.3468 18.5485 14.5496 15.6051 18.1192 14.6476C18.0626 14.5732 18.006 14.4987 17.9494 14.4243C17.8928 14.3498 19.4427 14.185 20.7216 15.0397C20.7965 14.9904 20.8715 14.9412 20.9466 14.8918C20.9038 14.7675 20.861 14.6433 20.8182 14.519C20.5568 14.3498 20.2953 14.1806 20.0339 14.0114C19.672 13.8979 19.3099 13.7844 18.9479 13.6709C18.6567 13.643 18.3652 13.6151 18.074 13.5872C17.8083 13.6172 17.5426 13.6472 17.277 13.6772C17.2084 13.7372 17.14 13.7972 17.0715 13.8572C17.0972 13.9514 17.1229 14.0457 17.1485 14.1399L16.7058 14.5771C16.3973 14.6671 16.0888 14.7571 15.7804 14.847C15.4161 15.1448 15.052 15.4425 14.6878 15.7403C14.5058 16.0296 14.3237 16.3187 14.1415 16.608C13.998 16.9166 13.8545 17.2254 13.7111 17.534C13.6447 17.9132 13.5782 18.2923 13.5118 18.6715C13.5654 18.9648 13.6189 19.258 13.6725 19.5513L14.103 19.7567Z" fill="#A7A5A5"/>
<path fill-rule="evenodd" clip-rule="evenodd" d="M20.5552 22.0864C20.5263 22.3317 20.4974 22.5769 20.4684 22.8223C20.4684 22.9679 20.4684 23.1135 20.4684 23.2592C21.2976 21.6108 22.194 19.9431 25.0474 20.0331C24.9361 19.8736 24.8247 19.7141 24.7133 19.5546C24.5398 19.5246 24.3663 19.4946 24.1928 19.4647C24.0439 19.4411 23.895 19.4175 23.7461 19.3939C23.4719 19.4463 23.1977 19.4988 22.9235 19.5513C22.7542 19.6425 22.5851 19.7335 22.4159 19.8245C22.2306 19.9841 22.0454 20.1435 21.8602 20.3031C21.6738 20.4979 21.4875 20.6929 21.3011 20.8878C21.1832 21.0409 21.0655 21.1941 20.9476 21.3473L20.5552 22.0864Z" fill="#A7A5A5"/>
<path fill-rule="evenodd" clip-rule="evenodd" d="M31.2042 16.4857C31.2042 16.4857 30.6868 16.2654 29.8577 16.7186C29.0285 17.1718 28.6769 18.0537 28.6769 18.0537C28.5902 18.2558 28.5034 18.4579 28.4165 18.66C28.468 18.906 28.5195 19.1522 28.571 19.3984C28.6225 19.6446 28.9133 20.0202 28.9325 20.0395C28.9516 20.059 29.4242 20.41 29.4242 20.41C29.6844 20.5434 29.9447 20.6768 30.205 20.8101C30.4524 20.8358 30.6998 20.8616 30.9472 20.8873C28.8907 19.7689 28.9035 17.5236 31.2042 16.4857Z" fill="#A7A5A5"/>
<path fill-rule="evenodd" clip-rule="evenodd" d="M37.8541 9.54167C37.8541 9.54167 37.454 9.08385 37.4395 9.06934C37.425 9.05483 36.6973 8.4476 36.6973 8.4476C36.8419 8.3592 36.9865 8.2708 37.131 8.18241C37.2757 8.09402 36.7744 7.87371 36.7598 7.8595C36.7453 7.8453 36.1381 7.50293 36.1381 7.50293L35.1308 7.29146H33.6169C33.3566 7.34127 33.0962 7.39107 32.8359 7.44088C32.5774 7.49234 32.3187 7.54379 32.06 7.59523C31.8014 7.64669 31.6552 7.54214 31.6552 7.50371C31.6552 7.46527 31.6214 7.18558 31.6214 7.18558L31.2941 7.27603C31.2941 7.27603 30.7446 7.55557 30.4264 8.10029C30.1084 8.64502 29.7951 9.1317 29.7951 9.1317C29.657 9.43856 29.5187 9.74542 29.3805 10.0523C29.2906 10.462 29.2007 10.8717 29.1107 11.2814C29.3855 11.2605 29.6601 11.2396 29.9349 11.2188C30.2095 11.1979 30.359 9.46435 31.1688 8.61599C31.2041 8.80555 31.2395 8.9951 31.2748 9.18465C31.3102 9.37419 33.2703 7.3049 35.6893 8.10509C35.5255 8.3027 35.3617 8.50034 35.1978 8.69797C35.0338 8.89559 37.695 9.36509 38.5563 11.4344C38.5632 11.2116 38.5702 10.9888 38.5772 10.766C38.4534 10.5202 38.3297 10.2743 38.206 10.0285L37.8541 9.54167Z" fill="#A7A5A5"/>
<path fill-rule="evenodd" clip-rule="evenodd" d="M43.4018 25.2001C43.0741 25.2708 43.1371 26.813 42.0972 27.7835C41.6142 28.2344 41.4977 28.2101 41.334 28.5611C41.0602 29.1486 41.6665 29.8625 42.7943 28.5611C43.9223 27.2597 43.7294 25.1294 43.4018 25.2001Z" fill="#A7A5A5"/>
<path fill-rule="evenodd" clip-rule="evenodd" d="M40.3797 29.1347C40.1417 29.1347 39.9273 29.278 39.8363 29.4978C39.7452 29.7176 39.7956 29.9705 39.9638 30.1387C40.1321 30.3069 40.3851 30.3572 40.6048 30.266C40.8246 30.175 40.9678 29.9605 40.9678 29.7226C40.9678 29.5667 40.9058 29.4171 40.7955 29.3069C40.6852 29.1967 40.5356 29.1347 40.3797 29.1347Z" fill="#A7A5A5"/>
<path fill-rule="evenodd" clip-rule="evenodd" d="M37.6534 15.2282C37.4528 14.9586 37.2521 14.6893 37.0514 14.4198C36.9742 14.315 36.9018 14.2177 36.8371 14.1299C36.2294 13.3929 34.1919 12.0507 32.3827 11.6821C31.8752 11.5855 31.3678 11.4889 30.8603 11.3922H29.2504C29.2504 11.3922 27.0324 11.5671 27.0047 11.5756C26.977 11.5841 24.7684 12.2898 24.7391 12.308C24.7098 12.3263 22.9267 13.397 22.9267 13.397C23.1998 13.9178 23.4727 14.4387 23.7458 14.9594L25.4977 15.9653C25.4977 15.9653 26.5511 17.8348 26.5773 17.9118C26.6033 17.9888 27.219 20.2778 27.219 20.3796C27.219 20.4816 26.8087 22.4617 26.6787 22.9168C26.5487 23.3718 26.0108 27.3079 25.5297 28.3105C25.0486 29.313 22.9447 31.1067 21.9421 31.5494C20.9396 31.9922 21.1524 33.317 21.1648 33.3355C21.1771 33.3541 22.1811 33.8832 22.1811 33.8832C22.5472 34.0137 22.9132 34.1443 23.2793 34.275C23.5791 34.279 23.8788 34.2831 24.1786 34.2871C25.8983 34.5277 28.8472 34.3891 31.3561 33.8074C31.9371 33.4444 32.5181 33.0815 33.0989 32.7185C33.3643 32.0528 33.6295 31.387 33.8948 30.7211C34.0367 29.9624 34.1787 29.2035 34.3206 28.4447C34.6224 27.6417 34.9242 26.8386 35.226 26.0355C35.5278 25.2325 36.3441 24.3389 36.4029 24.1846C36.4615 24.0304 37.3853 21.6782 37.3853 21.6782L37.752 17.5716L37.6534 15.2282ZM28.2018 25.3511C28.1831 25.3419 28.0335 25.2634 28.012 25.251C27.9906 25.2386 27.799 25.146 27.7559 25.0735C27.713 25.001 27.5724 24.836 27.5584 24.8206C27.5443 24.8051 27.307 24.6077 27.307 24.6077C27.307 24.6077 27.341 24.3578 27.3472 24.3439C27.3534 24.3301 27.5584 24.1079 27.5584 24.1079C27.5697 24.0627 27.5811 24.0175 27.5925 23.9723C27.6063 23.9723 27.9995 23.8767 28.012 23.8673C28.0246 23.8579 28.7529 23.4926 28.7529 23.4926C28.9288 23.4664 29.1046 23.4402 29.2804 23.4139C29.3946 23.4027 29.5088 23.3913 29.6229 23.3801C29.6759 23.3944 29.7288 23.4088 29.7817 23.4233C29.8059 23.4463 29.8299 23.4694 29.8541 23.4926C29.9133 23.5435 29.9723 23.5942 30.0315 23.6452C30.0231 23.6817 30.0231 23.7198 30.0315 23.7564C30.047 23.8181 30.0315 23.9724 30.0315 23.9724C30.0363 24.0257 30.0383 24.0792 30.0377 24.1328C30.0362 24.1853 29.9266 24.4415 29.9157 24.4597C29.9047 24.478 29.7231 24.7205 29.7139 24.7543C29.7045 24.7883 29.5257 24.9657 29.487 25.0042C29.4485 25.0429 29.2465 25.1878 29.2263 25.2063C29.2061 25.2248 28.8948 25.3375 28.8948 25.3375C28.8948 25.3375 28.5432 25.3806 28.5277 25.3806C28.5122 25.3806 28.2187 25.3584 28.2018 25.3511ZM31.8387 29.1392C31.7368 29.4539 31.3466 29.6606 31.3373 29.6744C31.3281 29.688 30.7157 29.9504 30.7019 29.9551C30.688 29.9597 30.1805 29.9551 30.1711 29.9551C30.1617 29.9551 29.3953 29.6651 29.3953 29.6651C29.3953 29.6651 28.942 29.2935 28.9324 29.275C28.9226 29.2565 28.5653 28.4405 28.5653 28.4405C28.628 28.3443 28.6907 28.2482 28.7534 28.152C29.0891 27.9479 29.4249 27.7439 29.7605 27.5398C29.8474 27.4611 29.9343 27.3825 30.0211 27.3038C30.5981 27.2684 31.1749 27.2329 31.7518 27.1974C32.3286 27.1619 31.9446 27.68 31.9968 28.0118C32.0492 28.3435 31.9405 28.8257 31.8387 29.1388V29.1392ZM36.7571 20.7148C36.7109 21.0617 36.5258 21.3379 36.2298 21.5893C35.9338 21.8408 35.3553 22.2124 34.7908 22.308C34.2263 22.4036 33.3886 22.1986 32.6437 21.7759C31.8971 21.3503 31.1013 21.0556 31.0951 21.0293C31.0951 21.0293 29.8612 20.727 29.5466 20.5929C29.232 20.4588 28.8648 19.9435 28.6205 19.5703C28.3761 19.1972 28.4016 18.8962 28.4987 18.4521C28.5959 18.0078 29.2498 17.1998 29.2498 17.1998C29.5048 16.9894 29.7598 16.7792 30.0148 16.5689C30.3315 16.5072 30.6483 16.4454 30.965 16.3837C31.3079 16.3558 31.6508 16.3281 31.9938 16.3004C32.2102 16.3364 32.4266 16.3723 32.6431 16.4083C32.9921 16.4901 33.3413 16.5717 33.6903 16.6535C34.0394 16.7351 34.6358 17.1285 34.6543 17.1348C34.6729 17.1409 35.515 17.7579 35.515 17.7579C35.515 17.7579 35.9591 18.2345 35.9715 18.2653C35.9839 18.2962 36.5376 19.1013 36.5191 19.1214C36.5006 19.1414 36.7751 19.9434 36.7815 19.9758C36.7879 20.0083 36.8018 20.3672 36.7571 20.7142V20.7148Z" fill="#C6CACD"/>
<path fill-rule="evenodd" clip-rule="evenodd" d="M15.8993 6.29789C15.8559 6.3638 15.8125 6.42971 15.7691 6.49563C15.2968 9.33206 14.8245 12.1685 14.3522 15.005C14.5065 15.0299 14.6608 15.0548 14.8152 15.0798C15.0289 15.0911 15.2425 15.1023 15.4562 15.1137C15.8107 14.9643 16.1651 14.8152 16.5195 14.666C16.8738 14.5168 16.6162 12.5791 17.1047 10.394C17.5933 8.20898 17.8373 6.65383 17.8373 6.65383C17.8373 6.65383 16.8634 6.06651 15.8993 6.29789Z" fill="#C6CACD"/>
<path fill-rule="evenodd" clip-rule="evenodd" d="M13.9662 19.9145L13.6276 20.2773L13.2097 21.8389L14.6237 22.8415L14.9707 21.7299L14.2316 19.8724L13.9662 19.9145Z" fill="#C6CACD"/>
<path fill-rule="evenodd" clip-rule="evenodd" d="M11.7639 30.6614L11.3348 33.9401L11.6531 34.268H12.4193L13.6467 28.2849L12.3037 28.1884L11.7639 30.6614Z" fill="#C6CACD"/>
<path fill-rule="evenodd" clip-rule="evenodd" d="M41.5638 20.7142C41.3452 19.6861 40.8312 19.2233 40.8312 19.2233C40.8312 19.2233 40.1366 18.465 39.5973 17.8608C39.058 17.2567 38.6463 16.5629 38.6463 16.5629C38.6463 16.5629 38.0225 15.7257 37.4543 14.9616C37.4235 14.9983 37.3926 15.035 37.3617 15.0719C34.6497 12.6811 31.732 12.7453 31.732 12.7453C33.5186 13.9151 33.3129 15.4574 33.3129 15.4574C36.2565 16.8969 36.5903 18.7814 36.5903 18.7814C36.5903 18.7814 36.3655 18.7864 36.4939 19.0241C36.6223 19.2617 36.6225 19.8017 36.7638 20.2837C36.9052 20.7659 36.5903 20.7657 36.4873 21.2477C36.3845 21.7298 36.1662 21.5433 35.8771 21.8584C35.5879 22.1734 35.0353 22.1345 34.4246 22.3081C33.814 22.4818 32.4643 21.8068 32.4643 21.8068C33.1069 22.4495 33.236 24.2874 32.3888 24.8304C32.3888 24.8304 32.4033 24.9896 32.4418 25.2208C32.4805 25.4521 32.2346 25.9969 32.0715 26.4693C31.9082 26.9416 31.893 26.9609 31.893 26.9609C31.893 26.9609 31.9443 27.7899 32.0537 28.3297C32.1629 28.8695 31.9381 29.3259 31.9381 29.3259C33.3647 31.5496 31.359 33.8076 31.359 33.8076C32.8762 33.4566 34.2333 32.9434 35.0614 32.2566C35.0485 32.1793 35.0357 32.1023 35.0227 32.025C35.387 31.0225 35.7512 30.02 36.1154 29.0175C36.3985 28.8461 36.6813 28.6746 36.9644 28.5032C37.2 28.409 37.4355 28.3149 37.6712 28.2206C38.031 28.0964 38.391 27.9721 38.7508 27.8478C39.0456 27.7303 39.3191 27.5654 39.5606 27.3594C39.9465 27.0254 40.0618 26.8193 40.3834 26.1898C40.7048 25.5603 41.0389 25.1358 41.2573 24.4032C41.4758 23.6706 41.4889 23.3877 41.566 22.6807C41.6432 21.9738 41.7823 21.7425 41.5638 20.7142Z" fill="#A1A5A8"/>
<path fill-rule="evenodd" clip-rule="evenodd" d="M15.639 14.879C15.9239 14.7537 16.2087 14.6283 16.4936 14.503C16.5184 14.1806 16.543 13.8582 16.5676 13.5358C16.5784 13.4126 16.589 13.2894 16.5997 13.1663C16.6104 13.0431 16.7862 12.2506 16.7894 12.2377C16.7927 12.2247 17.1108 10.833 17.1108 10.833C17.1471 10.5085 17.1835 10.1839 17.2199 9.85934C17.3195 9.50159 17.4192 9.14385 17.5187 8.7861C17.567 8.41122 17.6152 8.03634 17.6634 7.66145C17.7031 7.3862 17.7427 7.11092 17.7824 6.83565C17.7962 6.70821 17.8102 6.58076 17.8241 6.45332C17.536 6.39013 17.2478 6.32695 16.9597 6.26376C17.3357 7.27603 15.8318 13.3367 15.639 14.879Z" fill="#A1A5A8"/>
<path fill-rule="evenodd" clip-rule="evenodd" d="M14.1543 22.5331L14.5402 22.8609L14.9707 21.7554L14.4951 21.2477L14.1543 22.5331Z" fill="#A1A5A8"/>
<path fill-rule="evenodd" clip-rule="evenodd" d="M13.0458 30.1806L13.6277 28.3428C13.2603 28.3221 12.8929 28.3015 12.5255 28.281C12.8434 28.5618 13.0941 29.1201 13.0458 30.1806Z" fill="#A1A5A8"/>
<path fill-rule="evenodd" clip-rule="evenodd" d="M27.833 23.9919C28.1609 23.7636 28.4889 23.5352 28.817 23.307C30.87 22.121 30.1435 21.3992 29.5081 20.7791C27.8499 18.208 28.8063 18.1308 28.4276 16.3448C27.6811 12.5907 22.926 13.3973 22.926 13.3973C22.2874 14.0348 21.6489 14.6724 21.0103 15.3098C19.8412 16.344 17.9426 19.104 17.2191 21.0321C17.1805 21.3607 17.1421 21.6892 17.1036 22.0177C17.142 22.5503 17.1805 23.083 17.2191 23.6156C17.2804 23.9307 17.3415 24.2459 17.4027 24.5609C17.4638 24.8761 17.8547 25.9769 17.8658 26.0449C17.8769 26.1127 18.1634 26.8068 18.1634 26.8068C18.2313 27.2216 18.2991 27.6365 18.367 28.0515C18.4503 28.6262 18.5335 29.2009 18.6168 29.7758C18.7002 30.3505 18.8868 30.3448 19.543 31.6467C20.1992 32.9485 21.4431 33.189 21.4431 33.189C25.2589 34.5371 29.7813 32.873 29.135 29.6122C29.135 29.6122 29.0377 29.3902 28.7972 28.8303C28.5567 28.2705 28.7108 27.9814 28.7108 27.9814C30.1283 26.4883 28.6815 25.5814 28.6815 25.5814C28.6815 25.5814 28.7355 25.4858 28.4024 25.418C28.0694 25.3503 27.5834 24.9738 27.3474 24.6807C27.1113 24.3874 27.833 23.9919 27.833 23.9919ZM25.8712 21.8957C25.8712 21.9189 25.7075 22.6763 25.7075 22.6763C25.6258 22.9079 25.5441 23.1394 25.4624 23.371C25.3673 23.6793 25.2723 23.9878 25.1771 24.2963C25.1355 24.5375 25.0938 24.7785 25.0521 25.0197C24.9878 25.3181 24.9235 25.6165 24.8593 25.915C24.684 26.2538 24.5087 26.5926 24.3335 26.9315C24.0861 27.1242 23.8388 27.3171 23.5916 27.5098C23.4131 27.5644 23.2347 27.6189 23.0563 27.6735C23.0424 27.6794 22.3823 27.6735 22.3823 27.6735C22.3823 27.6735 21.8857 27.5438 21.8609 27.5298C21.8362 27.516 21.3845 27.2784 21.3845 27.2784C21.203 27.0892 21.0215 26.9001 20.8401 26.7109C20.7145 26.4811 20.589 26.2512 20.4636 26.0216C20.3946 25.8507 20.3258 25.6801 20.2568 25.5094C20.188 25.3386 20.2615 24.6904 20.2568 24.6286C20.2523 24.5669 20.1935 23.5691 20.1935 23.5567C20.1935 23.5443 20.4251 22.6667 20.4342 22.6422C20.4433 22.6176 20.6378 21.8523 20.6378 21.837C20.6378 21.8215 21.1667 20.8546 21.1869 20.8297C21.2073 20.8048 21.9227 20.1744 21.9433 20.1604C21.964 20.1465 23.0044 19.4849 23.0044 19.4849C23.0044 19.4849 23.4285 19.4217 23.4532 19.4169C23.478 19.4121 24.1026 19.4169 24.1026 19.4169C24.3437 19.4812 24.5849 19.5455 24.826 19.6098C24.9838 19.7269 25.1417 19.8443 25.2996 19.9615C25.4471 20.1724 25.5947 20.3834 25.7422 20.5944C25.7937 20.8259 25.8451 21.0574 25.8966 21.289C25.948 21.5205 25.8712 21.8711 25.8712 21.8957Z" fill="#F6FBFD"/>
<path fill-rule="evenodd" clip-rule="evenodd" d="M15.6903 6.42167C15.536 7.58701 15.3817 8.75234 15.2273 9.91768C14.9145 11.7348 14.6018 13.5518 14.289 15.369C13.9763 17.186 14.5299 15.6919 14.5444 15.6968C14.559 15.7016 14.8626 15.7256 14.8626 15.7256C15.0505 15.4992 15.2385 15.2728 15.4264 15.0465C15.0573 14.5606 15.6386 12.8486 15.8894 11.3063C16.1405 9.76394 16.8149 6.95867 16.3714 6.25496L15.6903 6.42167Z" fill="#F6FBFD"/>
<path fill-rule="evenodd" clip-rule="evenodd" d="M13.4749 20.2372L13.3013 21.7072L13.936 22.1345L14.3022 20.7529L14.1063 19.8225L13.4749 20.2372Z" fill="#F6FBFD"/>
<path fill-rule="evenodd" clip-rule="evenodd" d="M12.2523 28.5163L11.7446 30.7462C11.6761 31.3074 11.6075 31.8687 11.539 32.4299C11.4705 32.9912 11.192 33.0148 11.5004 33.5225C11.8088 34.0301 12.2074 33.0052 12.3423 32.0895C12.4772 31.1736 12.6571 29.5579 12.4001 28.4904L12.2523 28.5163Z" fill="#F6FBFD"/>
<path fill-rule="evenodd" clip-rule="evenodd" d="M23.5083 45.4339C22.265 45.44 21.2579 45.3507 20.587 45.1732C20.6313 45.529 20.6754 45.8849 20.7196 46.2406C20.7212 46.2514 20.7227 46.2622 20.7243 46.273C20.9433 47.6463 21.1623 49.0196 21.3814 50.3928C23.6222 50.6149 25.8449 50.6101 27.9965 50.4297C26.9178 47.9757 25.1494 46.3517 23.5083 45.4339Z" fill="#DF6064"/>
<path fill-rule="evenodd" clip-rule="evenodd" d="M30.1512 27.7136C30.1512 27.7136 29.7379 28.295 29.0252 28.6313C29.8195 30.4653 32.2766 29.6708 31.5549 27.5099C30.9225 27.9202 30.1512 27.7136 30.1512 27.7136Z" fill="#AA282A"/>
<path fill-rule="evenodd" clip-rule="evenodd" d="M15.858 11.3015C15.8488 11.3632 15.838 11.425 15.8256 11.4867C15.9705 11.5068 16.1671 11.5824 16.2874 11.6503C16.3646 11.2678 16.4434 10.8722 16.5189 10.4818C16.3864 10.4295 16.1884 10.382 16.0386 10.3584C15.9739 10.7012 15.9028 11.0222 15.858 11.3015Z" fill="#AA282A"/>
<path fill-rule="evenodd" clip-rule="evenodd" d="M42.7463 45.1705C42.5443 44.572 42.265 44.3607 42.0815 43.8979C41.8982 43.4352 41.4168 43.0791 41.0588 42.4806C40.917 42.2431 40.6717 42.0426 40.3926 41.8477C38.2596 42.7794 35.9089 43.5199 33.5815 44.0813C35.9707 44.982 37.9172 46.3563 39.2403 47.8201C40.6688 47.2602 41.9781 46.6432 43.1395 46.0001C43.0131 45.7193 42.8805 45.4417 42.7463 45.1705Z" fill="#AA282A"/>
<path fill-rule="evenodd" clip-rule="evenodd" d="M46.2166 38.1935C44.7175 39.6372 42.6783 40.8526 40.3926 41.8473C40.6717 42.0417 40.9174 42.2423 41.0588 42.4802C41.4168 43.0787 41.8979 43.4348 42.0815 43.8975C42.2653 44.3601 42.5446 44.5716 42.7463 45.1699C42.8805 45.4416 43.0131 45.7192 43.1395 45.9999C45.012 44.9633 46.4974 43.8575 47.469 42.8086L46.2166 38.1935Z" fill="#771C1C"/>
<path fill-rule="evenodd" clip-rule="evenodd" d="M16.4935 10.4712C16.4178 10.8614 16.3392 11.2532 16.2619 11.6357C16.4306 11.7312 16.5845 11.8508 16.7186 11.9907C16.7987 11.6242 16.8789 11.2576 16.9591 10.8911C16.8884 10.6889 16.7125 10.5578 16.4935 10.4712Z" fill="#771C1C"/>
<path fill-rule="evenodd" clip-rule="evenodd" d="M31.0145 29.9106C31.0145 29.9106 31.5225 29.7574 31.7954 29.3035C32.0684 28.8495 32.0012 28.8181 32.0694 28.4318C32.1376 28.0454 31.7954 27.6646 31.7954 27.6646C30.9376 28.3009 30.5036 29.1684 31.0145 29.9106Z" fill="#771C1C"/>
<path fill-rule="evenodd" clip-rule="evenodd" d="M33.5815 44.0814C29.8335 44.9835 26.1441 45.4218 23.5083 45.4339C25.1494 46.3517 26.9183 47.9757 27.9965 50.4297C32.1208 50.0858 35.9876 49.0987 39.2403 47.8201C37.9172 46.3563 35.9706 44.9821 33.5815 44.0814Z" fill="#D63D3D"/>
<path fill-rule="evenodd" clip-rule="evenodd" d="M15.1546 10.3357L15.0786 10.7784C15.0786 11.1279 15.0786 11.4775 15.0786 11.8271C15.3257 11.5218 15.6034 11.4523 15.8576 11.4909C15.87 11.4291 15.8808 11.3674 15.89 11.3057C15.9347 11.0264 15.9948 10.7037 16.0598 10.3616C15.6883 10.3048 15.3102 10.3233 15.1546 10.3357Z" fill="#D63D3D"/>
<path fill-rule="evenodd" clip-rule="evenodd" d="M29.8094 29.7694C29.8824 29.7694 29.9554 29.7694 30.0282 29.7694C29.906 29.0882 30.5904 27.8285 31.3326 27.4816C30.893 27.4183 30.4534 27.355 30.0138 27.2919C29.5334 27.6968 29.053 28.1016 28.5725 28.5065C28.7771 28.7989 28.9816 29.0913 29.1862 29.3837L29.8094 29.7694Z" fill="#D63D3D"/>
<path fill-rule="evenodd" clip-rule="evenodd" d="M52.4599 31.0298C54.4465 28.4077 53.4438 24.2879 46.2331 24.732C46.2331 24.732 44.9993 22.3428 42.291 21.601C42.2232 20.1234 41.3624 19.0683 40.5526 18.375C39.743 17.6816 39.2493 16.6229 38.8098 16.1941C38.8098 16.1941 39.6394 14.5715 39.4976 12.5911C39.3558 10.6107 38.492 9.46464 37.6531 8.73221C37.8838 8.71215 38.1146 8.69208 38.3455 8.67203C37.3353 7.44118 35.736 6.34125 32.304 7.01701C32.413 6.73526 32.522 6.45352 32.631 6.17176C30.7323 6.42166 29.3566 7.97773 28.5468 10.9594C26.8117 10.8761 23.0529 12.2379 21.2467 14.0827C20.4061 13.424 18.3809 12.9012 16.8664 13.2745C17.2986 11.0601 17.7308 8.84578 18.163 6.63144C17.7281 5.81242 16.1703 5.28344 15.3914 6.36764C14.8541 9.65701 14.3169 12.9464 13.7796 16.2358C13.642 16.42 13.5153 16.6121 13.4002 16.8111C12.7601 17.9186 12.9062 19.006 13.2074 19.7417C13.1246 20.2476 13.0418 20.7535 12.959 21.2592C11.4321 20.5956 8.97201 20.6994 7.73809 23.4788C6.54446 26.1656 8.07767 30.145 11.028 33.0877C10.9828 33.3656 10.9376 33.6434 10.8924 33.9213C10.9447 34.4825 11.9883 35.1519 12.706 34.5289C12.774 34.5798 12.8434 34.6291 12.9129 34.6786C12.9129 34.6786 10.2692 36.1129 8.79157 38.1053C7.31392 40.0976 7.75043 43.3108 11.6573 43.8382C15.5643 44.3657 19.5497 43.9661 19.5497 43.9661C20.4572 49.5758 21.3646 55.1855 22.2719 60.7952C23.1793 66.4048 25.1794 62.8989 30.1535 63.1117C35.1277 63.3246 46.8888 61.3945 51.5157 53.1428L46.2779 35.9553C46.2779 35.9553 50.4748 33.6518 52.4599 31.0298ZM45.5901 26.4334C45.7026 27.9403 44.8928 29.9237 44.856 30.0133C44.8977 29.9655 45.5699 29.1866 45.8924 28.4646C45.8924 28.4646 45.6548 31.2981 42.9556 33.5344C40.2564 35.7707 36.911 35.0585 35.9964 32.8513C35.9964 32.8513 37.9522 34.4892 40.5357 33.0719C40.5357 33.0719 37.6607 33.4837 36.5101 31.9226C35.3855 30.3973 37.0562 28.6349 39.4976 28.1564C41.6831 27.7276 42.2108 26.4983 42.2108 26.4983C42.2108 26.4983 41.1882 26.9101 40.4909 27.0151C40.4909 27.0151 42.0626 24.9205 42.1567 22.7581C44.2743 23.7096 45.4744 24.891 45.5901 26.4334ZM16.0675 6.52756C16.0675 6.52756 16.8278 6.20047 17.503 6.79119C17.0649 9.03589 16.6269 11.2806 16.1888 13.5253C16.0433 13.5993 15.9062 13.6888 15.7801 13.7922C15.897 13.8129 16.01 13.8519 16.1149 13.9078C16.0856 14.0574 16.0561 14.207 16.0268 14.3566C15.8465 14.4429 15.2649 14.7453 14.6326 15.3098L16.0675 6.52756ZM14.3647 16.9509C14.7009 16.4157 15.1944 15.9098 15.8021 15.5135C16.0255 15.3657 16.2609 15.2365 16.5055 15.1275C17.0567 14.8793 17.6484 14.7341 18.2519 14.6989C18.8553 14.664 17.9373 14.1742 17.6581 13.9726C17.6581 13.9726 19.1388 13.7936 20.5331 14.8857C20.5331 14.8857 19.6956 15.6059 19.3762 17.2055C19.3762 17.2055 21.7362 14.429 24.3704 13.0919C27.0047 11.7547 30.4039 11.4785 33.4314 11.9993C33.4314 11.9993 32.429 10.9103 29.6142 10.9289C29.6142 10.9289 29.9905 8.8466 31.32 7.72844C31.32 7.72844 31.2722 8.14336 31.34 8.52894C31.34 8.52894 33.7277 6.81991 36.3357 8.131C36.3357 8.131 35.8161 8.36855 35.614 8.59978C35.614 8.59978 37.4153 9.30009 38.2128 10.8548C38.9363 12.2691 38.1125 14.6044 37.9554 15.0192C37.9554 15.0192 37.2228 14.0305 36.1122 13.483C37.2997 15.007 37.8921 16.5493 38.8036 17.7323C39.7152 18.9153 41.31 19.6988 41.1696 21.9738C41.0339 24.1547 39.9109 26.5438 39.0704 27.1778C38.0787 27.318 36.0149 27.8472 35.0509 30.0642C34.0869 32.2813 35.4458 34.1803 35.4458 34.1803C35.4458 34.1803 32.8669 35.1242 29.5664 36.0775C26.0357 36.0559 22.3512 35.5681 21.401 35.5207C22.6874 36.2285 24.9946 36.807 25.9647 37.0307C25.0194 37.2558 24.0678 37.4578 23.1455 37.6213C22.186 37.6677 18.4829 36.9087 15.7713 35.2384C14.8504 34.6708 13.8865 34.0261 12.962 33.2794L13.4917 30.5684C14.9398 31.972 16.8386 32.5642 16.8386 32.5642C16.8386 32.5642 14.579 30.7952 13.683 29.5937C13.7616 29.1901 13.8403 28.7866 13.919 28.383C14.8472 28.1068 15.6664 27.3109 15.7573 25.7126C15.7573 25.7126 16.6489 26.2618 17.4724 26.362C17.6962 26.9177 17.7116 27.4694 17.7409 28.0907C16.8895 28.0876 15.9842 27.881 15.9287 27.8687C15.998 27.9305 17.1377 28.9173 17.835 29.1519C17.9444 29.8675 18.1882 30.6896 18.7912 31.6905C20.3212 34.2219 23.4446 35.2073 26.2718 34.393C26.2718 34.393 21.3408 34.4375 19.601 30.8038C18.219 27.9132 19.2447 28.0166 18.2515 25.7124C17.4 23.7335 17.3907 21.2396 17.5327 20.2662C17.5327 20.2662 16.6766 20.8292 16.591 22.4964C16.591 22.4964 15.8655 22.1569 15.3032 21.2905C15.1128 20.9956 14.9637 20.6758 14.8606 20.3403C14.7124 19.8744 14.6308 19.3207 14.6662 18.6698C14.6662 18.6698 14.3607 18.7671 14.0215 19.0492C13.9983 19.0693 13.9736 19.0909 13.9505 19.1125C13.7262 18.4794 13.8973 17.6882 14.3645 16.9509H14.3647ZM14.9512 23.0987C14.9878 22.9111 15.0242 22.7234 15.0607 22.5358C15.4467 23.0248 15.9677 23.4859 16.6648 23.7852C16.6648 23.7852 16.7805 24.5579 17.0087 24.9883C17.0087 24.9883 16.1572 24.7198 15.5403 24.2711C15.5399 24.2706 15.3564 23.7404 14.9506 23.0987H14.9512ZM13.7682 20.6017C13.7682 20.6017 13.8777 20.4073 14.0151 20.2776C14.0151 20.2776 14.137 20.9876 14.5766 21.797C14.5359 22.0046 14.4954 22.2124 14.4547 22.4201C14.2037 22.12 13.9172 21.8512 13.6018 21.6196L13.7682 20.6017ZM8.6383 27.5786C7.30868 23.9359 9.87207 21.2809 12.0187 21.8594C12.2955 21.9351 12.5611 22.0471 12.8084 22.1926C13.0323 22.3235 13.2417 22.4775 13.4331 22.6523C13.7435 22.9321 14.0093 23.2576 14.2212 23.6177C14.4115 23.9371 14.5554 24.2819 14.6484 24.6418C14.866 25.4908 14.7565 26.374 14.1779 27.0573C13.9771 27.295 13.7251 27.4843 13.4408 27.611C13.16 27.739 12.8669 27.8007 12.5878 27.8239C12.3555 27.8414 12.1221 27.8367 11.8907 27.81C11.4836 27.7638 11.2012 27.6682 11.2012 27.6682C11.3294 27.8825 11.5482 28.0695 11.8259 28.2111C11.6352 29.3766 11.4445 30.5421 11.2537 31.7077C10.1601 30.5485 9.22548 29.1897 8.63784 27.5779L8.6383 27.5786ZM12.4233 32.8289C12.3395 33.2582 12.2557 33.6875 12.172 34.1167C12.172 34.1178 12.172 34.1188 12.172 34.12C11.9559 34.1202 11.7491 34.0322 11.5996 33.8762C11.6115 33.8037 11.6233 33.7313 11.6351 33.6587C11.7086 33.2093 11.7822 32.7599 11.8557 32.3106C12.0666 31.0195 12.2776 29.7286 12.4886 28.4376C12.745 28.4917 13.0074 28.5114 13.269 28.4965L12.4233 32.8289ZM12.2891 42.8096C9.69178 42.4749 8.72768 40.4699 9.94926 38.4523C11.1708 36.4349 13.9532 35.2843 13.9532 35.2843C13.9532 35.2843 14.1831 35.4357 14.5334 35.6548C11.3713 37.6277 12.0222 40.0552 13.3426 40.7754C12.684 39.3287 13.3102 37.3221 15.8432 36.4368C16.2936 36.6928 16.7517 36.935 17.1325 37.097C16.2766 39.463 19.9573 39.2425 25.0066 38.2599C30.0592 37.2773 36.151 35.0009 36.151 35.0009C38.1562 36.7376 41.972 36.1206 44.3628 33.5757C48.046 29.5454 46.6318 25.9085 46.6318 25.9085C48.7911 25.6387 53.2131 26.345 52.1334 29.4299C51.0536 32.5147 43.0727 37.4116 32.6227 40.1884C22.1728 42.9653 14.8845 43.1434 12.2887 42.8087L12.2891 42.8096ZM50.3533 53.0092C49.7807 54.2794 45.8753 57.7041 42.9951 59.0532C43.0569 58.9823 45.0525 56.7103 45.2952 53.863C45.2952 53.863 42.0115 59.5433 37.1329 60.9224C34.318 61.6171 27.8586 62.5714 23.4828 60.2762C22.6855 56.3556 20.7836 44.7492 20.8038 43.7601C21.9746 43.7879 28.602 42.5407 34.9428 40.697C40.6694 40.9052 43.2577 46.3451 43.3398 46.5178C42.5516 42.4664 40.056 40.4163 38.4999 39.5827C41.2097 38.6635 43.64 37.6486 45.2693 36.6013L50.3533 53.0092Z" fill="black"/>
<path fill-rule="evenodd" clip-rule="evenodd" d="M28.2217 28.8057C28.4792 29.3099 29.6746 31.1175 31.4006 30.2184C32.9722 29.4003 32.5296 27.3001 32.2534 26.913C33.2482 25.8904 32.3475 24.7121 32.3475 24.7121C32.2457 26.6402 30.6818 26.9749 29.9784 26.5506C29.9784 26.5506 29.0191 28.6868 26.8413 27.6365C26.8406 27.6365 27.054 28.6868 28.2217 28.8057ZM30.1511 27.7136C30.1511 27.7136 30.9229 27.9202 31.5548 27.5099C32.2764 29.671 29.8194 30.4653 29.0251 28.6313C29.7379 28.295 30.1512 27.7136 30.1512 27.7136H30.1511Z" fill="black"/>
<path fill-rule="evenodd" clip-rule="evenodd" d="M29.013 25.6915C29.4761 25.5821 30.0164 25.1686 30.3934 24.3002C30.7706 23.4318 30.432 22.7965 29.434 22.9369C28.4359 23.0771 26.9334 23.8747 26.963 24.4931C26.9926 25.1115 28.0921 25.9068 29.013 25.6915ZM27.7142 24.4284C28.0475 24.2247 28.4145 24.0073 29.141 23.7928C29.8673 23.5782 30.0216 24.0397 29.5297 24.5888C29.0377 25.1378 28.4747 25.3845 27.7313 24.7955C27.4628 24.5825 27.6356 24.4763 27.7142 24.4284Z" fill="black"/>
<path fill-rule="evenodd" clip-rule="evenodd" d="M31.4222 21.6011C33.1187 22.1796 33.8668 23.3903 35.9212 22.2859C37.2709 21.5595 37.752 19.6639 36.1049 17.8793C34.4578 16.0949 31.5514 15.5984 30.0987 16.2229C28.6461 16.8474 28.2386 18.2279 28.2386 18.2279C27.6497 20.5601 29.7255 21.0227 31.4222 21.6011ZM31.4284 16.6269C33.1926 16.4726 34.8353 17.7328 35.1377 17.989C36.7943 19.3971 36.7788 21.0143 35.5448 21.726C34.3109 22.4378 32.4387 21.2988 31.1724 20.7976C29.9969 20.3318 29.1734 20.3025 28.8972 19.2366C28.6212 18.1707 29.6654 16.7812 31.4284 16.6269Z" fill="black"/>
<path fill-rule="evenodd" clip-rule="evenodd" d="M22.5072 28.0451C23.8074 28.1254 24.79 27.3196 25.1694 26.2931C25.5487 25.2664 25.3855 24.5224 25.8757 23.1636C26.366 21.8048 26.7719 19.6948 24.4784 19.1427C22.1108 18.5735 20.1119 21.1122 19.8805 23.799C19.6754 26.3949 20.8362 27.9418 22.5072 28.0451ZM20.6038 23.3064C20.8662 20.7461 23.4773 18.9585 24.9504 20.106C26.3293 21.1795 25.2403 22.6802 24.9504 24.1068C24.6604 25.5336 24.4212 27.3367 22.5597 27.3937C20.6981 27.4509 20.462 24.6889 20.6047 23.307L20.6038 23.3064Z" fill="black"/>
<path fill-rule="evenodd" clip-rule="evenodd" d="M22.7062 24.8787C22.7672 24.9095 22.8306 24.9353 22.8959 24.9559C22.6059 24.5271 22.5563 23.9347 22.8174 23.4122C23.1596 22.7274 23.9169 22.3959 24.5802 22.6096C24.4507 22.4174 24.2737 22.2618 24.0665 22.1577C23.3632 21.8077 22.4887 22.1315 22.1139 22.8831C21.7392 23.6349 22.0027 24.5271 22.7062 24.8787Z" fill="#040002"/>
<path fill-rule="evenodd" clip-rule="evenodd" d="M32.4865 18.6752C33.0693 18.7231 33.5506 19.0716 33.7676 19.5406C33.7836 19.4742 33.7938 19.4067 33.7985 19.3385C33.8618 18.555 33.234 17.8655 32.398 17.7993C31.5621 17.733 30.8309 18.3128 30.7662 19.0959C30.7483 19.3267 30.7902 19.5584 30.8879 19.7683C31.0475 19.0902 31.7229 18.6135 32.4865 18.6752Z" fill="#040002"/>
<path fill-rule="evenodd" clip-rule="evenodd" d="M10.8376 46.0679C10.8376 46.0679 10.3436 47.8478 8.90334 49.0169C10.3441 50.1861 10.8376 51.966 10.8376 51.966C10.8376 51.966 11.3328 50.1861 12.7732 49.0169C11.3328 47.8478 10.8376 46.0679 10.8376 46.0679Z" fill="black"/>
<path fill-rule="evenodd" clip-rule="evenodd" d="M6.51269 32.9317C6.51269 32.9317 6.1268 34.3239 5 35.2385C6.1268 36.1532 6.51269 37.5452 6.51269 37.5452C6.51269 37.5452 6.89996 36.1532 8.02676 35.2385C6.89996 34.3239 6.51269 32.9317 6.51269 32.9317Z" fill="#040002"/>
<path fill-rule="evenodd" clip-rule="evenodd" d="M6.51269 32.9317C6.51269 32.9317 6.1268 34.3239 5 35.2385C6.1268 36.1532 6.51269 37.5452 6.51269 37.5452C6.51269 37.5452 6.89996 36.1532 8.02676 35.2385C6.89996 34.3239 6.51269 32.9317 6.51269 32.9317Z" fill="black"/>
<path fill-rule="evenodd" clip-rule="evenodd" d="M25.9035 5.43919C25.9035 5.43919 26.3601 3.79825 27.6896 2.7199C26.3608 1.64157 25.9043 0 25.9043 0C25.9043 0 25.4483 1.64204 24.1196 2.7199C25.4483 3.79825 25.9035 5.43919 25.9035 5.43919Z" fill="#040002"/>
<path fill-rule="evenodd" clip-rule="evenodd" d="M25.9035 5.43919C25.9035 5.43919 26.3601 3.79825 27.6896 2.7199C26.3608 1.64157 25.9043 0 25.9043 0C25.9043 0 25.4483 1.64204 24.1196 2.7199C25.4483 3.79825 25.9035 5.43919 25.9035 5.43919Z" fill="black"/>
<path fill-rule="evenodd" clip-rule="evenodd" d="M44.9395 16.5389C44.9395 16.5389 45.3529 15.053 46.5555 14.0768C45.3529 13.1007 44.9395 11.6147 44.9395 11.6147C44.9395 11.6147 44.5275 13.1007 43.325 14.0768C44.5275 15.053 44.9395 16.5389 44.9395 16.5389Z" fill="#040002"/>
<path fill-rule="evenodd" clip-rule="evenodd" d="M44.9395 16.5389C44.9395 16.5389 45.3529 15.053 46.5555 14.0768C45.3529 13.1007 44.9395 11.6147 44.9395 11.6147C44.9395 11.6147 44.5275 13.1007 43.325 14.0768C44.5275 15.053 44.9395 16.5389 44.9395 16.5389Z" fill="black"/>
<path fill-rule="evenodd" clip-rule="evenodd" d="M57.0699 27.9569C57.0699 27.9569 56.7789 29.0067 55.9297 29.6953C56.7786 30.3846 57.0699 31.4338 57.0699 31.4338C57.0699 31.4338 57.3616 30.3842 58.2108 29.6953C57.3616 29.0061 57.0699 27.9569 57.0699 27.9569Z" fill="#040002"/>
<path fill-rule="evenodd" clip-rule="evenodd" d="M57.0699 27.9569C57.0699 27.9569 56.7789 29.0067 55.9297 29.6953C56.7786 30.3846 57.0699 31.4338 57.0699 31.4338C57.0699 31.4338 57.3616 30.3842 58.2108 29.6953C57.3616 29.0061 57.0699 27.9569 57.0699 27.9569Z" fill="black"/>
<path fill-rule="evenodd" clip-rule="evenodd" d="M54.1953 33.4595C54.1953 33.4595 53.74 35.101 52.4114 36.1795C53.74 37.2578 54.1953 38.8995 54.1953 38.8995C54.1953 38.8995 54.6517 37.2578 55.9806 36.1795C54.6517 35.101 54.1953 33.4595 54.1953 33.4595Z" fill="black"/>
<path fill-rule="evenodd" clip-rule="evenodd" d="M21.1871 8.81064C21.1871 8.81064 21.5744 7.47192 22.701 6.59239C21.5744 5.71256 21.1871 4.37399 21.1871 4.37399C21.1871 4.37399 20.8011 5.71272 19.6743 6.59239C20.8009 7.47192 21.1871 8.81064 21.1871 8.81064Z" fill="black"/>
</g>
<defs>
<clipPath id="clip0_55_6334">
<rect width="64" height="64" fill="white"/>
</clipPath>
</defs>
</svg>
