<svg width="64" height="64" viewBox="0 0 64 64" fill="none" xmlns="http://www.w3.org/2000/svg">
<path fill-rule="evenodd" clip-rule="evenodd" d="M13.4595 24.4128H15.6758C17.6471 24.4128 19.2476 26.0383 19.2476 28.0405V35.9555C19.2476 37.9576 17.6471 39.5831 15.6758 39.5831H15.5011C14.4865 39.4219 14.0465 39.1128 13.7065 38.8517L10.8887 36.4986C10.8181 36.4406 10.73 36.4089 10.6392 36.4089C10.5484 36.4089 10.4604 36.4406 10.3898 36.4986L9.47434 37.2631L6.89606 35.11C6.82556 35.0519 6.73753 35.0202 6.64674 35.0202C6.55595 35.0202 6.46792 35.0519 6.39742 35.11L2.81553 38.3102C2.09465 38.9057 1.61782 38.7957 1.3086 38.7612C0.50989 38.0955 0 37.0855 0 35.9555V28.0405C0 26.0383 1.60047 24.4128 3.57204 24.4128H5.78344L5.77946 24.4219L5.70491 24.6426L5.6817 24.7183L5.58136 25.1705L5.56753 25.2497L5.52346 25.7026L5.5176 25.8269L5.51666 25.8705L5.52088 26.0781L5.53096 26.1997L5.55581 26.3902L5.58746 26.5617L5.62497 26.7195L5.67373 26.8905L5.80032 27.2524L5.84205 27.3609L6.06242 27.8338L6.14025 27.979L6.39508 28.4233L6.4926 28.5836L6.84823 29.1155L6.89958 29.1859L7.36234 29.7976L7.51191 29.9859L8.04032 30.6133L8.14886 30.734L8.58444 31.21L8.75698 31.3914L9.04205 31.679L8.98485 31.7276L8.94922 31.7602C8.8524 31.8519 8.7605 31.9493 8.67446 32.0517C8.63312 32.1012 8.5937 32.1523 8.55631 32.205C8.49927 32.2854 8.44825 32.3701 8.40369 32.4583C8.38092 32.5041 8.36049 32.5511 8.34251 32.599C8.29611 32.7215 8.26821 32.8504 8.25975 32.9814L8.25811 33.0945C8.26216 33.254 8.29415 33.4114 8.35259 33.5595C8.41179 33.7096 8.49814 33.8472 8.60718 33.965C8.68642 34.0507 8.77667 34.1255 8.8756 34.1869C8.95977 34.2393 9.04955 34.2824 9.14286 34.3152C9.34568 34.385 9.56088 34.4099 9.77395 34.3881H9.77512C9.95691 34.3702 10.1336 34.3169 10.2956 34.2312C10.3654 34.1936 10.432 34.15 10.4944 34.1005C10.6729 33.9593 10.8113 33.7724 10.8952 33.559C10.9609 33.3926 10.993 33.2147 10.9902 33.0357L10.985 32.9421C10.9731 32.8185 10.9441 32.6972 10.8988 32.5819C10.8791 32.5317 10.8568 32.4825 10.8319 32.4347C10.7858 32.3467 10.7333 32.2623 10.6749 32.1821C10.6481 32.1454 10.6205 32.1095 10.5919 32.0743C10.4967 31.9589 10.3943 31.85 10.2852 31.7481L10.2081 31.6814L10.3387 31.5505L10.8999 30.9552L11.094 30.7388L11.3958 30.394L11.592 30.1609L11.8719 29.8147L12.0613 29.5728L12.3396 29.195L12.48 28.9995L12.6793 28.6969L12.8452 28.439L13.158 27.8859L13.3369 27.5231L13.342 27.5119L13.4789 27.1752C13.4807 27.1709 13.4823 27.1664 13.4836 27.1619L13.6311 26.6947L13.6465 26.6267L13.7105 26.2547L13.723 26.154L13.7267 26.0924L13.7312 25.8595L13.73 25.8162L13.7183 25.6076L13.7037 25.4457L13.6311 24.9788C13.6299 24.9726 13.6287 24.9664 13.6268 24.9602L13.5335 24.615L13.5014 24.519L13.4595 24.4128ZM14.513 34.2831C14.2895 34.2863 14.0761 34.3779 13.9181 34.5384C13.76 34.6989 13.6698 34.9156 13.6667 35.1426C13.67 35.3695 13.7602 35.5862 13.9182 35.7466C14.0762 35.9071 14.2896 35.9986 14.513 36.0019C14.7364 35.9986 14.9498 35.907 15.1078 35.7466C15.2659 35.5861 15.3561 35.3695 15.3595 35.1426C15.3563 34.9156 15.2661 34.6988 15.108 34.5384C14.9499 34.3779 14.7365 34.2863 14.513 34.2831Z" fill="url(#paint0_radial_55_6336)"/>
<path fill-rule="evenodd" clip-rule="evenodd" d="M44.2723 37.5333L41.6136 31.7526C41.3916 31.271 41.2594 31.095 41.0374 30.8907L40.821 30.6926C40.6489 30.5229 40.5357 30.366 40.5357 30.179C40.5357 29.9117 40.7438 29.6869 41.1236 29.6869H43.4318C43.7943 29.6869 44.0198 29.8783 44.0198 30.164C44.0198 30.3236 43.9476 30.4431 43.8564 30.5602C43.7481 30.6998 43.6072 30.8357 43.6072 31.0833C43.6072 31.2386 43.6515 31.3933 43.7375 31.591L45.3242 35.3648L46.7474 31.686C46.8349 31.4412 46.8949 31.2257 46.8949 31.0531C46.8949 30.7848 46.7512 30.6752 46.6403 30.5552C46.5439 30.451 46.4668 30.3407 46.4668 30.164C46.4668 29.8755 46.698 29.6869 47.009 29.6869H48.4306C48.8292 29.6869 49.0186 29.8962 49.0186 30.164C49.0186 30.3355 48.9215 30.494 48.7302 30.6652L48.5291 30.8331C48.2492 31.0655 48.1196 31.4014 47.9728 31.749L45.8172 37.0233C45.5624 37.64 45.1833 38.496 44.604 39.1981C44.0158 39.9114 43.2225 40.4662 42.1479 40.4662C41.2481 40.4662 40.7038 40.03 40.7038 39.4012C40.7038 38.8252 41.1229 38.3664 41.6738 38.3664C41.9758 38.3664 42.1326 38.5112 42.292 38.66C42.4235 38.7829 42.5572 38.9088 42.8204 38.9088C43.0647 38.9088 43.2926 38.8038 43.4987 38.6345C43.8135 38.3757 44.0777 37.9683 44.2723 37.5333ZM7.71633 39.5831H3.57204C2.7465 39.5842 1.94629 39.2937 1.30859 38.7612C1.61781 38.7957 2.09465 38.9057 2.81552 38.3102L6.39741 35.11C6.46792 35.0519 6.55594 35.0202 6.64673 35.0202C6.73752 35.0202 6.82555 35.0519 6.89605 35.11L9.47434 37.2631L10.3898 36.4986C10.4604 36.4406 10.5484 36.4089 10.6392 36.4089C10.73 36.4089 10.8181 36.4406 10.8887 36.4986L13.7065 38.8517C14.0465 39.1129 14.4865 39.4219 15.5011 39.5831H13.6266C13.461 39.581 13.3001 39.5266 13.1664 39.4274L13.1336 39.4017L10.6538 37.3102L8.20653 39.4017C8.06832 39.5172 7.89533 39.5812 7.71633 39.5831ZM59.8958 37.5126C61.0926 37.5126 62.0732 37.0962 62.8381 36.2652C63.6022 35.4352 63.9843 34.4362 63.9843 33.2681C63.9843 32.1283 63.6211 31.1917 62.8972 30.4574C62.1738 29.7238 61.2346 29.3552 60.0791 29.3552C58.8624 29.3552 57.867 29.7564 57.0924 30.556C56.3172 31.3562 55.9292 32.3255 55.9292 33.464C55.9292 34.5926 56.2991 35.5488 57.0381 36.3336C57.7772 37.1188 58.7295 37.5126 59.8958 37.5126ZM49.7758 37.4221C50.4679 37.4221 50.9602 36.949 50.9602 36.2669C50.9602 35.6007 50.4517 35.1267 49.7758 35.1267C49.0678 35.1267 48.561 35.6014 48.561 36.2669C48.561 36.9483 49.0681 37.4221 49.7758 37.4221ZM52.2399 36.341L52.4083 36.1602C52.6089 35.9624 52.6732 35.7626 52.6732 35.2121V31.9571C52.6732 31.4812 52.6094 31.2688 52.4108 31.0869L52.2125 30.9064C52.0186 30.7326 51.9549 30.6243 51.9549 30.4505C51.9549 30.2033 52.1433 30.0007 52.4467 29.9302L53.7921 29.5988C53.9208 29.5671 54.0657 29.5362 54.1785 29.5362C54.3332 29.5362 54.4598 29.5879 54.5486 29.6776C54.6375 29.7674 54.69 29.8969 54.69 30.0586V35.2121C54.69 35.7319 54.7521 35.9736 54.9657 36.156C54.9691 36.159 54.9724 36.1623 54.9755 36.1657L55.1258 36.3438C55.3147 36.5305 55.3933 36.6543 55.3933 36.8245C55.3933 37.1281 55.1675 37.3017 54.8051 37.3017H52.5276C52.182 37.3017 51.9549 37.129 51.9549 36.8245C51.9549 36.6536 52.0332 36.5286 52.2399 36.341ZM37.0145 36.341L37.1828 36.1602C37.3833 35.9624 37.4477 35.7626 37.4477 35.2121V28.4162C37.4477 27.9552 37.3997 27.729 37.1873 27.5474L36.984 27.3474C36.8084 27.1745 36.7444 27.0671 36.7444 26.894C36.7444 26.6467 36.9343 26.4448 37.221 26.374L38.5512 26.0426C38.6799 26.011 38.825 25.98 38.9375 25.98C39.0911 25.98 39.2212 26.0271 39.314 26.1162C39.4069 26.2055 39.4646 26.3386 39.4646 26.5174V35.2121C39.4646 35.7331 39.5281 35.961 39.7426 36.1581L39.9142 36.3424C40.1043 36.5302 40.1676 36.6533 40.1676 36.8245C40.1676 36.9505 40.1299 37.0524 40.0624 37.1298C39.9672 37.2393 39.8075 37.3017 39.5949 37.3017H37.3171C37.1045 37.3017 36.9451 37.2393 36.8497 37.1298C36.7824 37.0524 36.7444 36.9505 36.7444 36.8245C36.7444 36.6531 36.807 36.529 37.0145 36.341ZM30.8121 32.8414V35.1819C30.8121 35.5348 30.8808 35.8605 31.1673 36.1286L31.3523 36.3107C31.5593 36.515 31.6223 36.6374 31.6223 36.8245C31.6223 37.1102 31.3966 37.3017 31.0344 37.3017H28.4662C28.104 37.3017 27.8782 37.1102 27.8782 36.8245C27.8782 36.6024 27.9424 36.4971 28.1494 36.3098L28.3339 36.1281C28.5484 35.9305 28.6884 35.6614 28.6884 35.1819V28.9283C28.6884 28.5474 28.6054 28.236 28.3335 27.9819L28.1483 27.7995C27.9579 27.6119 27.8782 27.4886 27.8782 27.301C27.8782 26.9981 28.1044 26.8088 28.4662 26.8088H35.3451C35.6081 26.8088 35.8393 26.8681 35.9867 27.0152C36.0894 27.1174 36.1551 27.2614 36.1623 27.4617L36.2695 29.0745C36.2803 29.2762 36.2216 29.4443 36.107 29.5479C36.0282 29.619 35.922 29.6619 35.7884 29.6619C35.6201 29.6619 35.4909 29.5974 35.3758 29.486C35.2722 29.3857 35.1798 29.245 35.0757 29.0795C34.8247 28.6717 34.7074 28.525 34.4397 28.3343C34.067 28.055 33.4992 27.959 32.4255 27.959C31.8059 27.959 31.4148 27.9864 31.1687 28.051C31.0093 28.0926 30.9174 28.1469 30.8682 28.2264C30.8177 28.3079 30.8121 28.411 30.8121 28.5367V31.706H32.4255C32.8116 31.706 33.0831 31.6352 33.3977 31.1983L33.3993 31.196C33.5254 31.0329 33.6166 30.9129 33.7034 30.8331C33.8047 30.7402 33.9017 30.6964 34.0306 30.6964C34.2726 30.6964 34.4962 30.8983 34.4962 31.1736V33.3586C34.4962 33.6514 34.2719 33.851 34.0306 33.851C33.9109 33.851 33.8131 33.8076 33.7118 33.7167C33.6246 33.6386 33.5332 33.5221 33.4143 33.366C33.0702 32.9136 32.8271 32.8414 32.4255 32.8414H30.8121ZM58.0684 32.786C58.0684 32.0021 58.2365 31.4388 58.5851 31.1C58.9292 30.7655 59.2994 30.5962 59.697 30.5962C60.2442 30.5962 60.7369 30.9069 61.1814 31.5186C61.636 32.1436 61.8606 32.9886 61.8606 34.0517C61.8606 34.8364 61.6918 35.405 61.3429 35.7536C60.999 36.0976 60.6293 36.2719 60.232 36.2719C59.6848 36.2719 59.1923 35.9586 58.7475 35.3421C58.293 34.7119 58.0684 33.8593 58.0684 32.786ZM14.513 34.2831C14.2895 34.2863 14.0761 34.3779 13.918 34.5384C13.76 34.6989 13.6698 34.9157 13.6667 35.1426C13.67 35.3695 13.7602 35.5862 13.9182 35.7466C14.0762 35.9071 14.2896 35.9986 14.513 36.0019C14.7364 35.9986 14.9498 35.907 15.1078 35.7466C15.2658 35.5862 15.3561 35.3695 15.3595 35.1426C15.3563 34.9156 15.2661 34.6989 15.108 34.5384C14.9499 34.3779 14.7365 34.2863 14.513 34.2831ZM9.04204 31.679L8.75697 31.3914L8.58443 31.21L8.14886 30.734L8.04032 30.6133L7.5119 29.986L7.36234 29.7976L6.89957 29.186L6.84823 29.1155L6.49259 28.5836L6.39507 28.4233L6.14024 27.979L6.06241 27.8338L5.84204 27.361L5.80031 27.2524L5.67372 26.8905L5.62496 26.7195L5.58745 26.5617L5.5558 26.3902L5.53095 26.1998L5.52087 26.0781L5.51665 25.8705L5.51759 25.8269L5.52345 25.7026L5.56752 25.2498L5.58136 25.1705L5.68169 24.7183L5.7049 24.6426L5.77945 24.4219L5.80336 24.3648L5.92199 24.1L6.00427 23.9424L6.11891 23.7505L6.23308 23.5795L6.31442 23.471L6.4082 23.3562L6.51135 23.241L6.59973 23.1507L6.81494 22.9583L6.97224 22.8276C6.97599 22.8243 6.97998 22.8214 6.98396 22.8186L7.1701 22.6907L7.31803 22.595L7.59888 22.4448C7.6031 22.4421 7.60802 22.44 7.61248 22.4379L8.01078 22.27L8.04758 22.256L8.40158 22.1507L8.55114 22.1167L8.75322 22.0755L8.88732 22.0548L9.09292 22.0288L9.23311 22.0162L9.51138 22.0012L9.62039 22L9.82692 22.0043L9.88061 22.0074L10.1797 22.0326L10.5755 22.0893L10.6212 22.099L11.0122 22.1979L11.1271 22.2326L11.2546 22.2774L11.41 22.3371L11.5329 22.39L11.7134 22.4764L11.8271 22.5357L12.0315 22.6576L12.1077 22.7052L12.3865 22.9119L12.4664 22.9824L12.6607 23.1621L12.6704 23.1719L12.8352 23.3514L12.8919 23.4164L13.0853 23.6774L13.1247 23.7398L13.2782 24.0031L13.3244 24.0933L13.4109 24.2898L13.5014 24.519L13.5335 24.615L13.6268 24.9602C13.6286 24.9663 13.63 24.9725 13.6311 24.9788L13.7037 25.4457L13.7183 25.6076L13.73 25.8162L13.7312 25.8595L13.7267 26.0924L13.723 26.154L13.7105 26.2548L13.6465 26.6267L13.6311 26.6948L13.4836 27.1619C13.4823 27.1664 13.4807 27.1709 13.4789 27.1752L13.342 27.5119L13.3368 27.5231L13.158 27.886L12.8452 28.439L12.6793 28.6969L12.48 28.9995L12.3396 29.195L12.0613 29.5729L11.8719 29.8148L11.592 30.161L11.3957 30.394L11.094 30.7388L10.8999 30.9552L10.3387 31.5505L10.2081 31.6814L10.2852 31.7481C10.3942 31.85 10.4967 31.9588 10.5919 32.0743C10.6205 32.1095 10.6481 32.1455 10.6749 32.1821C10.7333 32.2623 10.7858 32.3467 10.8319 32.4348C10.8568 32.4824 10.8791 32.5317 10.8987 32.5819C10.9435 32.6971 10.9738 32.819 10.985 32.9421L10.9902 33.0357C10.9931 33.2148 10.9608 33.3927 10.8952 33.559C10.8113 33.7725 10.6729 33.9593 10.4944 34.1005C10.432 34.15 10.3654 34.1936 10.2956 34.2312C10.1336 34.3169 9.9569 34.3702 9.77511 34.3881H9.77394C9.56087 34.4099 9.34567 34.3851 9.14285 34.3152C9.04948 34.2824 8.95987 34.2393 8.8756 34.1869C8.77675 34.1255 8.68647 34.0508 8.60717 33.965C8.49813 33.8472 8.41178 33.7096 8.35258 33.5595C8.29414 33.4115 8.26215 33.254 8.2581 33.0945L8.25974 32.9814C8.2682 32.8505 8.2961 32.7215 8.3425 32.599C8.36055 32.551 8.38094 32.504 8.40368 32.4583C8.44823 32.37 8.49933 32.2855 8.5563 32.205C8.59358 32.1524 8.63319 32.1012 8.67445 32.0517C8.76049 31.9493 8.85239 31.8519 8.94921 31.7602L8.98484 31.7276L9.04204 31.679ZM53.5671 28.5467C54.2605 28.5467 54.7512 28.1505 54.7512 27.4667C54.7512 26.799 54.261 26.4019 53.5671 26.4019C52.857 26.4019 52.3675 26.7995 52.3675 27.4667C52.3675 28.1338 52.8572 28.5467 53.5671 28.5467Z" fill="#24165B"/>
<path fill-rule="evenodd" clip-rule="evenodd" d="M10.6538 37.3102L13.1336 39.4017C13.2753 39.5188 13.4524 39.5828 13.6351 39.5831H7.7079C7.88982 39.5831 8.06611 39.519 8.20654 39.4017L10.6538 37.3102ZM9.63611 32.3743L9.65861 32.3809C9.66588 32.3845 9.67197 32.3898 9.67854 32.3943L9.69729 32.4112C9.74371 32.4545 9.78872 32.5 9.83209 32.5467C9.86257 32.5798 9.89234 32.6138 9.92094 32.649C9.95728 32.6936 9.99127 32.7402 10.0222 32.7888C10.0356 32.8102 10.048 32.8319 10.0597 32.8545C10.0698 32.874 10.0789 32.8943 10.0869 32.9148C10.101 32.9505 10.1115 32.9881 10.1148 33.0264L10.1141 33.0983C10.1095 33.1632 10.0896 33.2261 10.0563 33.2817C10.023 33.3373 9.97719 33.384 9.92258 33.4181C9.8517 33.4616 9.77203 33.4882 9.68956 33.4959L9.60211 33.4986L9.52827 33.4919C9.49374 33.4868 9.45976 33.4784 9.42676 33.4669C9.39317 33.4553 9.36094 33.4399 9.33064 33.4212L9.27297 33.3783C9.20506 33.3194 9.15879 33.2388 9.14169 33.1498C9.13883 33.1348 9.13656 33.1197 9.13489 33.1045L9.13278 33.0359C9.13395 33.0174 9.13677 32.999 9.14075 32.9807C9.15083 32.9407 9.16537 32.9019 9.18365 32.865C9.20729 32.8187 9.23424 32.7742 9.2643 32.7319C9.31423 32.6633 9.36838 32.5981 9.42629 32.5364C9.46356 32.4964 9.50178 32.4576 9.54163 32.4202L9.57 32.3943C9.58969 32.3809 9.58992 32.3809 9.61243 32.3743H9.63611ZM9.49099 22.8143L9.50013 22.8136V30.83L9.48044 30.7931C9.22063 30.3049 8.97877 29.8071 8.75534 29.3007C8.57405 28.8909 8.40988 28.4734 8.26327 28.0495C8.14609 27.7118 8.04709 27.3679 7.96671 27.0193C7.90436 26.7424 7.85653 26.4614 7.83684 26.1776C7.8293 26.0565 7.82703 25.9351 7.83004 25.8138C7.83192 25.7081 7.83613 25.6026 7.8427 25.4971C7.85301 25.3312 7.86966 25.1657 7.89357 25.0014C7.91256 24.8721 7.936 24.7433 7.96507 24.6159C7.98805 24.5148 8.01477 24.4143 8.04525 24.3155C8.08932 24.1726 8.14207 24.0331 8.20349 23.8969C8.226 23.8479 8.25014 23.799 8.27546 23.7512C8.42784 23.4645 8.63461 23.2005 8.90538 23.0238C9.08135 22.9076 9.28213 22.8357 9.49099 22.8143ZM10.5145 22.8345L11.0455 22.9883C11.2914 23.0805 11.5282 23.2007 11.7458 23.3507C12.0423 23.554 12.2979 23.8129 12.4988 24.1136C12.6167 24.2917 12.7142 24.4838 12.7904 24.6845C12.9008 24.9814 12.9693 25.2926 12.9934 25.609C13.0004 25.6919 13.0044 25.775 13.0061 25.8581C13.0079 25.9352 13.0075 26.0126 13.0014 26.0898C12.9863 26.2624 12.9543 26.4331 12.906 26.5993C12.8671 26.7353 12.8211 26.8691 12.7684 27.0002C12.7027 27.1633 12.6298 27.3233 12.5499 27.4795C12.3729 27.8267 12.1691 28.1588 11.9511 28.48C11.6809 28.8747 11.3927 29.2566 11.0877 29.6243C10.7564 30.0255 10.411 30.4144 10.052 30.7902C10.2956 30.3263 10.523 29.8538 10.7337 29.3736C10.8509 29.1059 10.9614 28.8355 11.0652 28.5624C11.1794 28.2624 11.2824 27.9581 11.374 27.6502C11.4419 27.4195 11.502 27.1864 11.5514 26.9507C11.5938 26.7486 11.6271 26.5443 11.6478 26.3388C11.6651 26.1674 11.6714 25.995 11.6672 25.8231C11.6656 25.7179 11.6618 25.6127 11.6557 25.5076C11.6309 25.0848 11.5676 24.6633 11.4462 24.2579C11.4002 24.1041 11.3443 23.9536 11.2788 23.8074C11.1233 23.4636 10.9065 23.1421 10.613 22.9076L10.5145 22.8345Z" fill="white"/>
<defs>
<radialGradient id="paint0_radial_55_6336" cx="0" cy="0" r="1" gradientUnits="userSpaceOnUse" gradientTransform="translate(9.62368 31.9978) scale(13.1302 14.2771)">
<stop stop-color="#BA7BF0"/>
<stop offset="0.43" stop-color="#996BEC"/>
<stop offset="1" stop-color="#5046E4"/>
</radialGradient>
</defs>
</svg>
