<svg width="64" height="64" viewBox="0 0 64 64" fill="none" xmlns="http://www.w3.org/2000/svg">
<path d="M48.0288 20.7021L32.7286 42.8241C32.5664 43.0586 32.3318 43.2343 32.0604 43.3245C31.789 43.4147 31.4957 43.4139 31.2248 43.3233C30.954 43.2322 30.7205 43.0557 30.5597 42.8207C30.3989 42.5853 30.3197 42.3042 30.334 42.0201L30.9463 29.8065L21.0608 27.71C20.8495 27.6652 20.6527 27.5692 20.4877 27.4306C20.3227 27.2919 20.1946 27.1149 20.1148 26.9151C20.0351 26.7153 20.0061 26.499 20.0304 26.2852C20.0547 26.0715 20.1315 25.8669 20.2541 25.6896L35.5545 3.56759C35.7167 3.33291 35.9513 3.15725 36.2227 3.06719C36.4941 2.97714 36.7875 2.9776 37.0584 3.06859C37.3292 3.15953 37.5627 3.336 37.7235 3.57123C37.8843 3.80642 37.9635 4.0875 37.9492 4.37184L37.3368 16.5856L47.2222 18.6819C47.4335 18.7267 47.6304 18.8227 47.7955 18.9613C47.9606 19.0999 48.0885 19.277 48.1681 19.4768C48.2481 19.6766 48.2769 19.8929 48.2527 20.1067C48.2286 20.3204 48.1516 20.5248 48.0288 20.7021Z" fill="#FCC72B"/>
<path d="M32.0061 61.3843C31.5992 61.3847 31.1962 61.3051 30.8202 61.1493C30.4442 60.9935 30.1027 60.7649 29.8154 60.477L15.3584 46.021C14.7801 45.4397 14.4559 44.6527 14.457 43.8326C14.4581 43.0125 14.7843 42.2259 15.3643 41.6462C15.9442 41.0662 16.7304 40.7398 17.5506 40.7385C18.3707 40.7377 19.1579 41.0616 19.7394 41.6399L32.0061 53.9053L58.7293 27.1834C59.3119 26.6102 60.0973 26.2904 60.9144 26.2938C61.7319 26.2971 62.5148 26.6232 63.0923 27.2011C63.6702 27.779 63.9966 28.5618 64 29.3791C64.0029 30.1963 63.6833 30.9818 63.11 31.5643L34.1963 60.477C33.909 60.7653 33.5676 60.9935 33.1917 61.1493C32.8159 61.3051 32.413 61.3847 32.0061 61.3843Z" fill="#729B1B"/>
<path d="M31.9937 61.3843C32.4006 61.3847 32.8037 61.3051 33.1796 61.1493C33.5556 60.9935 33.897 60.7649 34.1844 60.477L48.6414 46.021C49.2197 45.4397 49.544 44.6527 49.5428 43.8326C49.5419 43.0125 49.2155 42.2259 48.6355 41.6462C48.0554 41.0662 47.2692 40.7398 46.4491 40.7385C45.629 40.7377 44.842 41.0616 44.2602 41.6399L31.9937 53.9053L5.27056 27.1834C4.68798 26.6102 3.90252 26.2904 3.08531 26.2938C2.26806 26.2971 1.48523 26.6232 0.907358 27.2011C0.329476 27.779 0.0033535 28.5618 2.57182e-05 29.3791C-0.00330206 30.1963 0.316436 30.9818 0.889593 31.5643L29.8034 60.477C30.0908 60.7653 30.4322 60.9935 30.808 61.1493C31.1839 61.3051 31.5869 61.3847 31.9937 61.3843Z" fill="#729B1B" fill-opacity="0.5"/>
</svg>
