<svg width="64" height="64" viewBox="0 0 64 64" fill="none" xmlns="http://www.w3.org/2000/svg">
<g clip-path="url(#clip0_55_6318)">
<path d="M64 0H0V64H64V0Z" fill="#212121"/>
<g filter="url(#filter0_di_55_6318)">
<path fill-rule="evenodd" clip-rule="evenodd" d="M47.4358 42.1814C47.7761 46.5534 47.7761 48.6029 47.7761 50.84H37.6605C37.6605 50.3527 37.6692 49.907 37.678 49.455C37.7054 48.0498 37.7339 46.5846 37.5062 43.6255C37.2054 39.2934 35.3398 38.3307 31.9097 38.3307H28.8706H16V30.4487H32.3911C36.7239 30.4487 38.8904 29.1306 38.8904 25.6409C38.8904 22.5723 36.7239 20.7128 32.3911 20.7128H16V13H34.1965C44.0055 13 48.88 17.633 48.88 25.0336C48.88 30.569 45.4498 34.1791 40.8161 34.7808C44.7277 35.563 47.0145 37.7892 47.4358 42.1814Z" fill="#E8F2FF"/>
<path d="M16 50.84V44.9642H26.6957C28.4823 44.9642 28.8702 46.2893 28.8702 47.0795V50.84H16Z" fill="#E8F2FF"/>
</g>
</g>
<defs>
<filter id="filter0_di_55_6318" x="10.88" y="7.88" width="43.12" height="48.08" filterUnits="userSpaceOnUse" color-interpolation-filters="sRGB">
<feFlood flood-opacity="0" result="BackgroundImageFix"/>
<feColorMatrix in="SourceAlpha" type="matrix" values="0 0 0 0 0 0 0 0 0 0 0 0 0 0 0 0 0 0 127 0" result="hardAlpha"/>
<feOffset/>
<feGaussianBlur stdDeviation="2.56"/>
<feComposite in2="hardAlpha" operator="out"/>
<feColorMatrix type="matrix" values="0 0 0 0 0.223529 0 0 0 0 0.572549 0 0 0 0 1 0 0 0 0.9 0"/>
<feBlend mode="normal" in2="BackgroundImageFix" result="effect1_dropShadow_55_6318"/>
<feBlend mode="normal" in="SourceGraphic" in2="effect1_dropShadow_55_6318" result="shape"/>
<feColorMatrix in="SourceAlpha" type="matrix" values="0 0 0 0 0 0 0 0 0 0 0 0 0 0 0 0 0 0 127 0" result="hardAlpha"/>
<feOffset/>
<feGaussianBlur stdDeviation="2.24"/>
<feComposite in2="hardAlpha" operator="arithmetic" k2="-1" k3="1"/>
<feColorMatrix type="matrix" values="0 0 0 0 0.223529 0 0 0 0 0.572549 0 0 0 0 1 0 0 0 1 0"/>
<feBlend mode="normal" in2="shape" result="effect2_innerShadow_55_6318"/>
</filter>
<clipPath id="clip0_55_6318">
<rect width="64" height="64" fill="white"/>
</clipPath>
</defs>
</svg>
