<svg width="64" height="64" viewBox="0 0 64 64" fill="none" xmlns="http://www.w3.org/2000/svg">
<path d="M22.2047 34.3765C20.143 34.9616 18.7903 35.9875 17.8993 37.0126C18.7527 36.2658 19.8959 35.5803 21.438 35.1432C23.0153 34.6962 24.3609 34.6993 25.4727 34.9139V34.0445C24.5243 33.9578 23.4369 34.0269 22.2047 34.3765ZM17.805 27.0677L10.148 29.0849C10.148 29.0849 10.2876 29.2821 10.546 29.5451L17.0382 27.8344C17.0382 27.8344 16.9462 29.0198 16.1472 30.0803C17.6585 28.937 17.805 27.0677 17.805 27.0677ZM24.2145 45.063C13.439 47.9653 7.73804 35.4776 6.01203 28.996C5.21459 26.0041 4.86647 23.7382 4.77369 22.276C4.76372 22.1241 4.76833 21.9961 4.77907 21.8789C4.22009 21.9126 3.95247 22.2032 4.00692 23.0429C4.09971 24.5043 4.44782 26.7701 5.24526 29.7629C6.97051 36.2435 12.6722 48.7312 23.4478 45.829C25.7932 45.1971 27.5553 44.0462 28.878 42.5771C27.6588 43.6782 26.1329 44.5454 24.2145 45.063ZM26.2395 19.4251V20.192H30.466C30.3793 19.9205 30.2919 19.6758 30.2052 19.4251H26.2395Z" fill="#2D4552"/>
<path d="M31.4106 25.741C33.3114 26.2808 34.3167 27.6134 34.8481 28.7928L36.9674 29.3947C36.9674 29.3947 36.6783 25.2672 32.9449 24.2067C29.4522 23.2144 27.303 26.1474 27.0415 26.5269C28.0575 25.803 29.5412 25.2104 31.4106 25.741ZM48.2812 28.8118C44.7854 27.815 42.6369 30.7541 42.3793 31.1283C43.3961 30.4053 44.879 29.8125 46.7476 30.3454C48.6454 30.8861 49.6498 32.2171 50.1828 33.3973L52.3052 34.0014C52.3052 34.0014 52.0114 29.8731 48.2812 28.8118ZM46.1756 39.6947L28.5452 34.7659C28.5452 34.7659 28.7361 35.7336 29.4684 36.9866L44.3124 41.1363C45.5345 40.4293 46.1756 39.6947 46.1756 39.6947ZM33.9524 50.3038C19.9926 46.5611 21.6802 28.7744 23.9391 20.3459C24.8692 16.8725 25.8254 14.2908 26.6183 12.5602C26.1452 12.4628 25.7534 12.712 25.3662 13.4994C24.5242 15.207 23.4476 17.9874 22.4057 21.8795C20.1474 30.3078 18.4598 48.0939 32.419 51.8366C38.9986 53.5993 44.1244 50.9203 47.9454 46.7129C44.3185 49.9979 39.6879 51.8397 33.9524 50.3038Z" fill="#2D4552"/>
<path d="M26.2394 40.8949V37.3056L16.2669 40.1334C16.2669 40.1334 17.0038 35.8518 22.2047 34.3765C23.782 33.9294 25.1278 33.9325 26.2394 34.1472V19.4251H31.2327C30.689 17.7451 30.1631 16.4517 29.7214 15.5529C28.9906 14.0654 28.2415 15.0515 26.5409 16.4739C25.3431 17.4745 22.3159 19.6093 17.7606 20.8368C13.2051 22.0651 9.52232 21.7393 7.98571 21.4733C5.8073 21.0974 4.66787 20.619 4.77446 22.276C4.86723 23.7374 5.21536 26.0033 6.0128 28.996C7.73803 35.4768 13.4398 47.9645 24.2153 45.0622C27.03 44.3038 29.0167 42.8048 30.3938 40.8941H26.2394V40.8949ZM10.1472 29.0849L17.805 27.0677C17.805 27.0677 17.5818 30.0136 14.7111 30.7704C11.8395 31.5264 10.1472 29.0849 10.1472 29.0849Z" fill="#E2574C"/>
<path d="M55.0595 19.5953C53.0689 19.9443 48.2934 20.379 42.3916 18.7971C36.4883 17.2161 32.5715 14.4511 31.0196 13.1514C28.8198 11.3088 27.8521 10.0283 26.8998 11.9652C26.0579 13.6736 24.9812 16.4539 23.9391 20.3461C21.6811 28.7744 19.9934 46.5605 33.9524 50.3032C47.9086 54.0427 55.3385 37.7947 57.5967 29.3656C58.6388 25.4742 59.0958 22.5275 59.2215 20.6275C59.3649 18.4752 57.8865 19.1 55.0595 19.5953ZM27.0132 26.5685C27.0132 26.5685 29.2131 23.147 32.9441 24.2075C36.6775 25.268 36.9667 29.3955 36.9667 29.3955L27.0132 26.5685ZM36.1209 41.9216C29.5582 39.9992 28.546 34.7659 28.546 34.7659L46.1756 39.6949C46.1756 39.6941 42.6171 43.82 36.1209 41.9216ZM42.354 31.1667C42.354 31.1667 44.5508 27.7477 48.2812 28.8112C52.0115 29.8733 52.3052 34.0008 52.3052 34.0008L42.354 31.1667Z" fill="#2EAD33"/>
<path d="M22.7545 38.2939L16.2669 40.1326C16.2669 40.1326 16.9716 36.1179 21.7508 34.5269L18.0772 20.7403L17.7598 20.8368C13.2044 22.0653 9.52156 21.7393 7.98495 21.4733C5.80655 21.0976 4.66712 20.619 4.7737 22.2762C4.86648 23.7376 5.2146 26.0034 6.01204 28.9962C7.73728 35.4768 13.439 47.9645 24.2145 45.0622L24.5319 44.9625L22.7545 38.2939ZM10.1473 29.0851L17.805 27.0677C17.805 27.0677 17.5818 30.0136 14.7111 30.7704C11.8395 31.5264 10.1473 29.0851 10.1473 29.0851Z" fill="#D65348"/>
<path d="M36.4169 41.9936L36.1201 41.9214C29.5574 39.9992 28.5452 34.7659 28.5452 34.7659L37.6361 37.307L42.4491 18.8125L42.3908 18.7971C36.4875 17.2161 32.5708 14.4511 31.0188 13.1514C28.819 11.3088 27.8513 10.0283 26.899 11.9652C26.0579 13.6736 24.9812 16.4539 23.9391 20.3461C21.6811 28.7744 19.9934 46.5605 33.9524 50.303L34.2385 50.3675L36.4169 41.9936ZM27.0132 26.5685C27.0132 26.5685 29.2131 23.147 32.9441 24.2075C36.6775 25.268 36.9667 29.3955 36.9667 29.3955L27.0132 26.5685Z" fill="#1D8D22"/>
<path d="M23.085 38.1997L21.3452 38.6934C21.7562 41.0105 22.4807 43.2342 23.6178 45.1987C23.8158 45.155 24.0121 45.1174 24.2137 45.0622C24.742 44.9197 25.2319 44.7432 25.7036 44.5507C24.433 42.6653 23.5926 40.4937 23.085 38.1997ZM22.4057 21.8797C21.5116 25.2166 20.7118 30.0197 20.9319 34.8373C21.326 34.6662 21.7423 34.5069 22.2047 34.3757L22.5268 34.3037C22.1342 29.1577 22.983 23.9139 23.9391 20.3461C24.1815 19.4435 24.4246 18.604 24.6668 17.8211C24.2766 18.0694 23.8564 18.324 23.3778 18.5862C23.0551 19.5824 22.7292 20.6712 22.4057 21.8797Z" fill="#C04B41"/>
</svg>
