<svg width="64" height="64" viewBox="0 0 64 64" fill="none" xmlns="http://www.w3.org/2000/svg">
<path d="M20.9932 24.9663L31.6666 18.8041C31.9337 18.6498 32.2629 18.6498 32.53 18.8041L43.2036 24.9663C43.4705 25.1206 43.6353 25.4055 43.6353 25.7141V38.0385C43.6353 38.3468 43.4705 38.632 43.2036 38.7865L32.53 44.9487C32.2629 45.1029 31.9337 45.1029 31.6666 44.9487L20.9932 38.7865C20.7261 38.6322 20.5615 38.347 20.5615 38.0385V25.7141C20.5617 25.4055 20.7264 25.1206 20.9932 24.9663Z" fill="#8080F2"/>
<path d="M59.8492 30.5798L47.0966 8.39389C46.6334 7.59172 45.7777 7 44.8514 7H19.3457C18.4192 7 17.5633 7.59172 17.1001 8.39389L4.34743 30.5309C3.88419 31.3333 3.88419 32.3459 4.34743 33.1483L17.1001 55.1524C17.5633 55.9546 18.4192 56.3647 19.3457 56.3647H44.8512C45.7774 56.3647 46.6334 55.9669 47.0964 55.1645L59.849 33.1245C60.3127 32.3226 60.3127 31.382 59.8492 30.5798ZM49.2894 41.2483C49.2894 41.5745 49.093 41.8762 48.8103 42.0395L32.5662 51.4115C32.2837 51.5746 31.9297 51.5746 31.6472 51.4115L15.3906 42.0395C15.1081 41.8762 14.9104 41.5747 14.9104 41.2483V22.5041C14.9104 22.1777 15.1052 21.8762 15.3879 21.7129L31.6314 12.3409C31.9139 12.1776 32.2674 12.1776 32.5499 12.3409L48.8076 21.7129C49.0904 21.8762 49.2894 22.1777 49.2894 22.5041V41.2483Z" fill="#4B32C3"/>
</svg>
