<svg width="64" height="64" viewBox="0 0 64 64" fill="none" xmlns="http://www.w3.org/2000/svg">
<path d="M11.5315 25.8292C11.4118 25.6304 11.2426 25.466 11.0406 25.3518C10.8386 25.2377 10.6104 25.1777 10.3784 25.1777C10.1463 25.1777 9.91819 25.2377 9.71614 25.3518C9.51409 25.466 9.34498 25.6304 9.22522 25.8292L7.32828 29.0782C8.77746 29.8017 10.0122 30.8917 10.9098 32.24C11.8075 33.5882 12.3369 35.1478 12.4454 36.764H11.1135C11.0052 35.3787 10.537 34.0456 9.75529 32.8968C8.97358 31.748 7.90544 30.8233 6.65657 30.2141L4.90089 33.2497C5.60297 33.5646 6.21462 34.0509 6.67958 34.664C7.14455 35.2771 7.44792 35.9972 7.56179 36.7582H4.50306C4.46678 36.7556 4.43171 36.7441 4.40102 36.7246C4.37032 36.7051 4.34497 36.6782 4.32723 36.6465C4.3095 36.6147 4.29995 36.5791 4.29944 36.5427C4.29893 36.5063 4.30748 36.4704 4.32432 36.4382L5.17188 34.9968C4.88473 34.7572 4.55655 34.5716 4.20324 34.449L3.36432 35.8904C3.27698 36.0403 3.22028 36.2059 3.19752 36.3778C3.17475 36.5497 3.18637 36.7244 3.2317 36.8918C3.27703 37.0592 3.35517 37.2159 3.46157 37.3528C3.56798 37.4897 3.70053 37.6041 3.85152 37.6894C4.05047 37.8015 4.27471 37.861 4.50306 37.8623H8.69188C8.76968 36.9024 8.59825 35.9386 8.19419 35.0643C7.79014 34.19 7.16715 33.4349 6.38558 32.8721L7.05152 31.7189C8.03788 32.3964 8.83054 33.3193 9.35127 34.3967C9.872 35.474 10.1028 36.6685 10.0209 37.8623H13.5697C13.6524 36.0539 13.2589 34.2554 12.4288 32.6467C11.5986 31.0379 10.3607 29.6752 8.83891 28.6948L10.1852 26.3885C10.2152 26.3382 10.2639 26.3018 10.3205 26.2872C10.3772 26.2727 10.4374 26.2811 10.4879 26.3106C10.6407 26.3942 16.3373 36.3344 16.444 36.4497C16.4627 36.4834 16.4723 36.5215 16.4717 36.5601C16.471 36.5986 16.4602 36.6364 16.4403 36.6694C16.4204 36.7025 16.3922 36.7297 16.3584 36.7483C16.3246 36.7669 16.2865 36.7763 16.2479 36.7755H14.8757C14.893 37.1426 14.893 37.5087 14.8757 37.8739H16.2537C16.4287 37.875 16.6021 37.8414 16.7641 37.7751C16.926 37.7087 17.0731 37.6109 17.197 37.4873C17.3209 37.3637 17.419 37.2168 17.4857 37.055C17.5524 36.8932 17.5863 36.7198 17.5856 36.5449C17.5857 36.3137 17.524 36.0868 17.4068 35.8876L11.5315 25.8292ZM39.0112 33.3304L34.756 27.8357H33.6951V35.2014H34.7704V29.5568L39.1467 35.2014H40.0865V27.8357H39.0112V33.3304ZM28.2955 31.964H32.1095V31.0068H28.2926V28.7899H32.5968V27.8328H27.1971V35.2014H32.6515V34.2443H28.2926L28.2955 31.964ZM23.8097 31.0299C22.325 30.6724 21.9099 30.3899 21.9099 29.7038C21.9099 29.0868 22.4548 28.6688 23.2677 28.6688C24.0081 28.6905 24.7222 28.9481 25.3059 29.404L25.8825 28.5881C25.1435 28.0088 24.2267 27.7032 23.2879 27.7232C21.8292 27.7232 20.8115 28.5881 20.8115 29.8191C20.8115 31.1452 21.6764 31.6036 23.2504 31.987C24.6515 32.3099 25.0811 32.6097 25.0811 33.2814C25.0811 33.9532 24.5045 34.3683 23.6137 34.3683C22.7268 34.3642 21.8735 34.029 21.2209 33.4285L20.5722 34.204C21.4081 34.9222 22.4742 35.3161 23.5762 35.3139C25.156 35.3139 26.1708 34.4634 26.1708 33.1488C26.1622 32.036 25.5049 31.4393 23.8097 31.0299ZM59.5892 27.8357L57.3722 31.2951L55.1697 27.8357H53.884L56.7928 32.2897V35.2043H57.8998V32.2551L60.8288 27.8357H59.5892ZM40.9571 28.8332H43.3701V35.2043H44.4771V28.8332H46.8901V27.8357H40.96L40.9571 28.8332ZM52.0101 32.3272C53.1229 32.0187 53.7398 31.2404 53.7398 30.1276C53.7398 28.7121 52.7049 27.8213 51.0357 27.8213H47.7607V35.1986H48.8562V32.5521H50.7157L52.5838 35.2043H53.8638L51.8458 32.3733L52.0101 32.3272ZM48.8533 31.6065V28.8101H50.9204C51.9986 28.8101 52.6155 29.3204 52.6155 30.2054C52.6155 31.0904 51.9553 31.6065 50.9319 31.6065H48.8533Z" fill="#362D59"/>
</svg>
