<svg width="64" height="64" viewBox="0 0 64 64" fill="none" xmlns="http://www.w3.org/2000/svg">
<path d="M20.2459 29.1513C20.1232 28.2316 19.6326 27.4331 18.7472 26.7117L18.2352 26.3537L17.8939 26.8879C17.4566 27.5763 17.2379 28.5345 17.3073 29.4542C17.3393 29.7736 17.4406 30.3573 17.7552 30.8584C17.4406 31.0402 16.8166 31.2825 15.9846 31.266H0.0914694L0.0594698 31.4587C-0.0898616 32.3784 -0.0898617 35.2585 1.69678 37.4668C3.05677 39.1464 5.08874 40 7.74471 40C13.5046 40 17.7606 37.23 19.7606 32.1856C20.5445 32.2021 22.2352 32.1911 23.1045 30.4564C23.1258 30.4179 23.1792 30.3132 23.3285 29.9828L23.4138 29.8011L22.9285 29.4597C22.3952 29.1017 21.1845 28.964 20.2459 29.1513ZM12.8006 23H10.3847V25.2964H12.8006V23ZM12.8006 25.759H10.3847V28.0554H12.8006V25.759ZM9.94201 25.759H7.52604V28.0554H9.94201V25.759ZM7.08872 25.759H4.67275V28.0554H7.08872V25.759ZM4.23008 28.518H1.81411V30.8144H4.23008V28.518ZM7.08872 28.518H4.67275V30.8144H7.08872V28.518ZM9.94201 28.518H7.52604V30.8144H9.94201V28.518ZM12.8006 28.518H10.3847V30.8144H12.8006V28.518ZM15.6593 28.518H13.2433V30.8144H15.6593V28.518ZM30.3471 28.0003C30.1711 28.0003 30.0218 28.0609 29.9098 28.1821C29.7924 28.3032 29.7338 28.4629 29.7338 28.6446V31.7561C29.1364 31.2439 28.4484 30.9906 27.6591 30.9906C26.7471 30.9906 25.9685 31.332 25.3232 32.0149C24.6778 32.6978 24.3578 33.5183 24.3578 34.482C24.3578 35.4457 24.6832 36.2663 25.3232 36.9491C25.9685 37.632 26.7471 37.9734 27.6591 37.9734C28.5711 37.9734 29.3444 37.632 29.9951 36.9491C30.6404 36.2773 30.9604 35.4512 30.9604 34.482V28.6501C30.9604 28.4629 30.9018 28.3087 30.7791 28.1876C30.6671 28.0609 30.5231 28.0003 30.3471 28.0003ZM29.5738 35.3301C29.4671 35.5944 29.3178 35.8257 29.1311 36.024C28.9444 36.2222 28.7258 36.3819 28.4751 36.4976C28.2245 36.6132 27.9525 36.6738 27.6645 36.6738C27.3765 36.6738 27.1045 36.6187 26.8485 36.4976C26.5978 36.3819 26.3791 36.2222 26.1925 36.024C26.0058 35.8257 25.8618 35.5944 25.7551 35.3301C25.6485 35.0658 25.5952 34.7794 25.5952 34.482C25.5952 34.1846 25.6485 33.8983 25.7551 33.6339C25.8618 33.3696 26.0111 33.1383 26.1925 32.9401C26.3791 32.7418 26.5978 32.5876 26.8485 32.4665C27.0991 32.3508 27.3711 32.2902 27.6645 32.2902C27.9578 32.2902 28.2191 32.3453 28.4751 32.4665C28.7258 32.5821 28.9444 32.7418 29.1311 32.9401C29.3178 33.1383 29.4671 33.3696 29.5738 33.6339C29.6804 33.8983 29.7338 34.1791 29.7338 34.4765C29.7338 34.7794 29.6804 35.0603 29.5738 35.3301ZM57.3654 32.0149C56.7148 31.332 55.9308 30.9906 55.0294 30.9906C54.1228 30.9906 53.3388 31.332 52.6935 32.0149C52.0482 32.6978 51.7282 33.5183 51.7282 34.482C51.7282 35.4457 52.0535 36.2663 52.6935 36.9491C53.3388 37.632 54.1175 37.9734 55.0294 37.9734C55.8614 37.9734 56.5761 37.6926 57.1894 37.1254C57.3068 36.9987 57.3654 36.839 57.3654 36.6573C57.3654 36.4755 57.3068 36.3158 57.1894 36.1947C57.0721 36.0735 56.9281 36.013 56.7521 36.013C56.5974 36.0185 56.4641 36.068 56.3468 36.1782C56.1601 36.3434 55.9628 36.47 55.7441 36.5526C55.5254 36.6352 55.2908 36.6793 55.0294 36.6793C54.8001 36.6793 54.5815 36.6408 54.3735 36.5692C54.1655 36.4921 53.9681 36.3874 53.7975 36.2553C53.6215 36.1176 53.4721 35.9579 53.3388 35.7706C53.2108 35.5834 53.1095 35.3741 53.0455 35.1429H57.7174C57.8881 35.1429 58.0374 35.0823 58.1547 34.9611C58.2774 34.84 58.3361 34.6803 58.3361 34.4985C58.3361 34.0139 58.2561 33.5679 58.0961 33.1548C57.9307 32.7308 57.6907 32.3563 57.3654 32.0149ZM53.0348 33.8377C53.0988 33.6119 53.1948 33.4027 53.3228 33.2099C53.4508 33.0227 53.6055 32.8575 53.7815 32.7253C53.9575 32.5876 54.1548 32.4885 54.3681 32.4114C54.5815 32.3343 54.8001 32.3013 55.0241 32.3013C55.2481 32.3013 55.4668 32.3398 55.6748 32.4114C55.8881 32.4885 56.0801 32.5931 56.2508 32.7253C56.4268 32.863 56.5814 33.0227 56.7094 33.2099C56.8428 33.3971 56.9388 33.6064 57.0081 33.8377H53.0348ZM63.8347 31.4312C63.7227 31.321 63.584 31.2329 63.4187 31.1668C63.2533 31.1007 63.0667 31.0567 62.8694 31.0347C62.672 31.0071 62.4854 30.9961 62.3094 30.9961C61.9147 30.9961 61.5467 31.0622 61.2 31.1944C60.8534 31.3265 60.5334 31.5193 60.24 31.7671V31.6459C60.24 31.4642 60.1814 31.3155 60.0587 31.1889C59.9361 31.0622 59.7974 30.9961 59.6267 30.9961C59.4561 30.9961 59.3067 31.0622 59.1894 31.1889C59.0667 31.3155 59.0081 31.4697 59.0081 31.6459V37.3291C59.0081 37.5109 59.0667 37.6595 59.1894 37.7862C59.3121 37.9129 59.4561 37.9789 59.6267 37.9789C59.7974 37.9789 59.9414 37.9129 60.0587 37.7862C60.1814 37.6595 60.24 37.5053 60.24 37.3291V34.4875C60.24 34.1846 60.2934 33.8983 60.4 33.6339C60.5067 33.3696 60.656 33.1383 60.8427 32.9401C61.0294 32.7418 61.248 32.5876 61.4987 32.472C61.7494 32.3563 62.0214 32.3013 62.3094 32.3013C62.5974 32.3013 62.8694 32.3563 63.12 32.4555C63.216 32.4995 63.3067 32.527 63.3813 32.527C63.4667 32.527 63.5467 32.5105 63.6213 32.4775C63.696 32.4444 63.76 32.3949 63.8187 32.3398C63.872 32.2792 63.92 32.2132 63.952 32.1305C63.984 32.0534 64 31.9653 64 31.8772C64 31.69 63.9467 31.5413 63.8347 31.4312ZM37.3123 32.0149C36.6617 31.332 35.8777 30.9906 34.9764 30.9906C34.075 30.9906 33.2857 31.332 32.6404 32.0149C31.9951 32.6978 31.6751 33.5183 31.6751 34.482C31.6751 35.4457 32.0004 36.2663 32.6404 36.9491C33.2857 37.632 34.0644 37.9734 34.9764 37.9734C35.8884 37.9734 36.6617 37.632 37.3123 36.9491C37.9577 36.2773 38.2777 35.4512 38.2777 34.482C38.2723 33.9974 38.1923 33.5513 38.0323 33.1438C37.8723 32.7363 37.6323 32.3563 37.3123 32.0149ZM36.8857 35.3301C36.779 35.5944 36.6297 35.8257 36.443 36.024C36.2564 36.2222 36.0377 36.3819 35.787 36.4976C35.5364 36.6132 35.2644 36.6738 34.9764 36.6738C34.6884 36.6738 34.4164 36.6187 34.1604 36.4976C33.9097 36.3819 33.6911 36.2222 33.5044 36.024C33.3177 35.8257 33.1737 35.5944 33.0671 35.3301C32.9604 35.0658 32.9071 34.7794 32.9071 34.482C32.9071 34.1846 32.9604 33.8983 33.0671 33.6339C33.1737 33.3696 33.3231 33.1383 33.5044 32.9401C33.6911 32.7418 33.9097 32.5876 34.1604 32.4665C34.411 32.3508 34.683 32.2902 34.9764 32.2902C35.2697 32.2902 35.531 32.3453 35.787 32.4665C36.0377 32.5821 36.2564 32.7418 36.443 32.9401C36.6297 33.1383 36.779 33.3696 36.8857 33.6339C36.9923 33.8983 37.0457 34.1791 37.0457 34.4765C37.0457 34.7794 36.9923 35.0603 36.8857 35.3301ZM51.0508 31.6404C51.0508 31.5523 51.0348 31.4697 51.0028 31.3926C50.9708 31.3155 50.9282 31.2439 50.8695 31.1833C50.8162 31.1228 50.7468 31.0732 50.6722 31.0457C50.5975 31.0126 50.5175 30.9961 50.4322 30.9961C50.3095 30.9961 50.1975 31.0292 50.1015 31.0952L46.5709 33.5183V28.6557C46.5709 28.4739 46.5122 28.3197 46.3896 28.1931C46.2669 28.0664 46.1282 28.0003 45.9576 28.0003C45.7869 28.0003 45.6376 28.0664 45.5202 28.1931C45.3976 28.3197 45.3389 28.4739 45.3389 28.6557V37.3181C45.3389 37.4998 45.3976 37.654 45.5202 37.7807C45.6429 37.9074 45.7869 37.9734 45.9576 37.9734C46.1282 37.9734 46.2722 37.9074 46.3896 37.7807C46.5122 37.654 46.5709 37.4998 46.5709 37.3181V35.0658L47.2909 34.5646L50.0162 37.7972C50.1282 37.9074 50.2668 37.9624 50.4268 37.9624C50.5122 37.9624 50.5922 37.9459 50.6668 37.9129C50.7415 37.8798 50.8055 37.8303 50.8642 37.7752C50.9175 37.7146 50.9655 37.6485 50.9975 37.5659C51.0295 37.4888 51.0455 37.4007 51.0455 37.3181C51.0455 37.1474 50.9868 36.9987 50.8748 36.861L48.3469 33.8487L50.8215 32.1526C50.9762 32.0424 51.0508 31.8717 51.0508 31.6404ZM40.8056 32.9346C40.9923 32.7363 41.2163 32.5821 41.467 32.4665C41.7176 32.3508 41.9896 32.2958 42.2776 32.2958C42.5389 32.2958 42.7789 32.3398 42.9976 32.4334C43.2163 32.527 43.4296 32.6592 43.6269 32.8354C43.7443 32.9346 43.8776 32.9841 44.0269 32.9841C44.2029 32.9841 44.3523 32.9235 44.4642 32.7969C44.5816 32.6702 44.6402 32.516 44.6402 32.3288C44.6402 32.1416 44.5709 31.9708 44.4269 31.8387C43.8189 31.2715 43.1043 30.9906 42.2723 30.9906C41.3603 30.9906 40.5816 31.332 39.9363 32.0149C39.291 32.6978 38.971 33.5183 38.971 34.482C38.971 35.4457 39.2963 36.2663 39.9363 36.9491C40.5816 37.632 41.3603 37.9734 42.2723 37.9734C43.0989 37.9734 43.8189 37.6926 44.4269 37.1254C44.5549 36.9877 44.6242 36.828 44.6242 36.6463C44.6242 36.4645 44.5656 36.3048 44.4482 36.1837C44.3309 36.0625 44.1869 36.0019 44.0109 36.0019C43.8616 36.0075 43.7336 36.0515 43.6216 36.1396C43.4243 36.3213 43.2163 36.4535 42.9976 36.5416C42.7789 36.6297 42.5389 36.6738 42.2776 36.6738C41.9896 36.6738 41.7229 36.6187 41.467 36.5031C41.2163 36.3874 40.9923 36.2332 40.8056 36.035C40.619 35.8422 40.4696 35.6054 40.3576 35.3411C40.251 35.0768 40.1976 34.7904 40.1976 34.4875C40.1976 34.1846 40.251 33.8983 40.3576 33.6339C40.4696 33.3641 40.619 33.1383 40.8056 32.9346Z" fill="#1D63ED"/>
</svg>
