<svg width="64" height="64" viewBox="0 0 64 64" fill="none" xmlns="http://www.w3.org/2000/svg">
<path fill-rule="evenodd" clip-rule="evenodd" d="M0.150373 34.3078C-0.053012 34.648 -0.0498643 35.0772 0.158487 35.4143L3.92959 41.5141C4.17434 41.91 4.6461 42.0906 5.08395 41.9558L15.9664 38.6082C16.5604 38.4255 16.8592 37.7462 16.5996 37.1688L9.60377 21.608C9.26259 20.8491 8.23411 20.7868 7.80818 21.4992L0.150373 34.3078ZM9.41788 25.1653C9.2692 24.8125 8.7657 24.8669 8.6919 25.2437L5.99855 38.9948C5.94176 39.2847 6.20651 39.5324 6.48287 39.4478L14.0018 37.1464C14.2213 37.0791 14.3343 36.8306 14.2434 36.615L9.41788 25.1653Z" fill="#5A67D8"/>
<path fill-rule="evenodd" clip-rule="evenodd" d="M23.2134 31.4599H23.8763C24.4956 31.4599 24.9589 31.3345 25.2666 31.0835C25.5743 30.8325 25.728 30.4672 25.728 29.9875C25.728 29.5036 25.599 29.146 25.3413 28.915C25.0834 28.6839 24.6797 28.5684 24.1296 28.5684H23.2134V31.4599ZM27.7616 29.9143C27.7616 30.9626 27.4423 31.7641 26.8031 32.3193C26.1643 32.8747 25.2558 33.1521 24.0777 33.1521H23.2135V36.6167H21.1994V26.8762H24.2335C25.386 26.8762 26.2619 27.1305 26.8618 27.6389C27.4618 28.1475 27.7616 28.906 27.7616 29.9143Z" fill="#5A67D8"/>
<path fill-rule="evenodd" clip-rule="evenodd" d="M33.1008 29.0281C33.3695 29.0281 33.5925 29.0481 33.7701 29.0881L33.6208 30.9934C33.4603 30.9492 33.2656 30.9268 33.0359 30.9268C32.4033 30.9268 31.9108 31.0934 31.5575 31.4265C31.2045 31.7596 31.0282 32.2261 31.0282 32.8258V36.6167H29.0463V29.168H30.5473L30.8399 30.4205H30.9372C31.1624 30.0032 31.4667 29.6665 31.8502 29.4111C32.2334 29.1558 32.6502 29.0281 33.1008 29.0281Z" fill="#5A67D8"/>
<path fill-rule="evenodd" clip-rule="evenodd" d="M34.8214 36.6167H36.8033V29.1681H34.8214V36.6167ZM34.7372 27.2425C34.7372 26.5808 35.0968 26.25 35.8158 26.25C36.5346 26.25 36.8943 26.5808 36.8943 27.2425C36.8943 27.558 36.8044 27.8034 36.6248 27.9789C36.4449 28.1544 36.1752 28.2419 35.8158 28.2419C35.0968 28.2419 34.7372 27.9088 34.7372 27.2425Z" fill="#5A67D8"/>
<path fill-rule="evenodd" clip-rule="evenodd" d="M43.7803 34.4047C43.7803 35.1688 43.5214 35.7506 43.0036 36.1503C42.486 36.55 41.7116 36.75 40.6808 36.75C40.1523 36.75 39.7022 36.7132 39.3296 36.6399C38.9569 36.5666 38.6082 36.4589 38.2834 36.3168V34.6378C38.6516 34.8157 39.0662 34.9643 39.5278 35.0843C39.9889 35.2041 40.3949 35.2641 40.7458 35.2641C41.4649 35.2641 41.8246 35.0509 41.8246 34.6246C41.8246 34.4647 41.7769 34.3348 41.6816 34.2348C41.5862 34.1348 41.4217 34.0217 41.1877 33.8949C40.9539 33.7683 40.6418 33.6208 40.252 33.4519C39.6934 33.2122 39.2828 32.9901 39.0209 32.7857C38.7587 32.5815 38.5681 32.3471 38.4492 32.0827C38.3299 31.8185 38.2703 31.4932 38.2703 31.1067C38.2703 30.4449 38.5203 29.9332 39.0209 29.5712C39.5211 29.2091 40.2303 29.0282 41.1487 29.0282C42.0237 29.0282 42.8749 29.2237 43.7022 29.6144L43.1046 31.0801C42.7406 30.9201 42.4004 30.7893 42.0843 30.687C41.7681 30.5849 41.4454 30.5338 41.1163 30.5338C40.5315 30.5338 40.2389 30.6959 40.2389 31.0201C40.2389 31.2024 40.3335 31.36 40.5217 31.4932C40.7103 31.6263 41.1227 31.8242 41.7594 32.0863C42.327 32.3217 42.743 32.5415 43.007 32.7457C43.2711 32.9501 43.4661 33.1854 43.5918 33.4519C43.7175 33.7184 43.7803 34.036 43.7803 34.4047Z" fill="#5A67D8"/>
<path fill-rule="evenodd" clip-rule="evenodd" d="M51.6309 36.6167H49.6491V32.2661C49.6491 31.7288 49.5613 31.3256 49.3862 31.0569C49.2105 30.7882 48.9344 30.6537 48.5575 30.6537C48.0509 30.6537 47.6827 30.8447 47.453 31.2268C47.2233 31.6088 47.1087 32.2372 47.1087 33.1123V36.6167H45.1268V29.168H46.6409L46.9073 30.1208H47.0178C47.2127 29.7788 47.4944 29.511 47.8623 29.3179C48.2305 29.1248 48.6529 29.0281 49.1295 29.0281C50.2167 29.0281 50.953 29.3925 51.3387 30.1208H51.5139C51.7089 29.7743 51.996 29.5056 52.375 29.3146C52.7539 29.1236 53.1816 29.0281 53.6582 29.0281C54.4811 29.0281 55.104 29.2447 55.5261 29.6776C55.9485 30.1107 56.1596 30.8047 56.1596 31.7596V36.6167H54.1715V32.2661C54.1715 31.7288 54.0836 31.3256 53.9085 31.0569C53.7327 30.7882 53.4568 30.6537 53.0798 30.6537C52.5948 30.6537 52.2321 30.8315 51.9913 31.1868C51.7511 31.5422 51.6309 32.1061 51.6309 32.8789V36.6167Z" fill="#5A67D8"/>
<path fill-rule="evenodd" clip-rule="evenodd" d="M61.9267 33.1655L61.16 33.1921C60.5838 33.21 60.155 33.3166 59.8736 33.5121C59.5918 33.7076 59.4512 34.0049 59.4512 34.4049C59.4512 34.9777 59.7716 35.2642 60.4126 35.2642C60.8717 35.2642 61.239 35.1287 61.514 34.8577C61.789 34.5869 61.9267 34.2272 61.9267 33.7784V33.1655ZM62.5114 36.6167L62.1281 35.6039H62.076C61.7424 36.035 61.3992 36.3335 61.046 36.5C60.6932 36.6666 60.233 36.7499 59.6656 36.7499C58.9679 36.7499 58.4191 36.5457 58.0183 36.1371C57.6178 35.7284 57.4174 35.1466 57.4174 34.3914C57.4174 33.601 57.687 33.018 58.2262 32.6426C58.7658 32.2673 59.5789 32.0596 60.6662 32.0196L61.9265 31.9796V31.6531C61.9265 30.8981 61.5497 30.5206 60.796 30.5206C60.2155 30.5206 59.5332 30.7003 58.7493 31.0602L58.0931 29.6878C58.9291 29.2391 59.8562 29.0147 60.874 29.0147C61.8486 29.0147 62.5958 29.2326 63.1158 29.6678C63.6353 30.103 63.8953 30.7648 63.8953 31.6531V36.6167H62.5114Z" fill="#5A67D8"/>
</svg>
