<svg width="64" height="64" viewBox="0 0 64 64" fill="none" xmlns="http://www.w3.org/2000/svg">
<g clip-path="url(#clip0_55_6330)">
<path d="M57.75 0H6.25C2.79822 0 0 2.79822 0 6.25V57.75C0 61.2018 2.79822 64 6.25 64H57.75C61.2018 64 64 61.2018 64 57.75V6.25C64 2.79822 61.2018 0 57.75 0Z" fill="#3178C6"/>
<path fill-rule="evenodd" clip-rule="evenodd" d="M39.625 50.875V57.125C40.6375 57.65 41.875 58.0375 43.25 58.3C44.625 58.5625 46.125 58.6875 47.625 58.6875C49.125 58.6875 50.5 58.55 51.875 58.2625C53.25 57.975 54.375 57.5 55.375 56.8875C56.3875 56.225 57.25 55.3875 57.75 54.2625C58.25 53.1375 58.6375 51.8875 58.6375 50.2625C58.6375 49.125 58.4625 48.1375 58.125 47.2625C57.7875 46.3875 57.3 45.6375 56.625 45.0125C55.9875 44.35 55.25 43.7625 54.375 43.2625C53.5 42.7625 52.5 42.2375 51.375 41.7625C50.55 41.425 49.875 41.1 49.125 40.775C48.475 40.45 47.9125 40.125 47.5 39.8C47.0375 39.4625 46.6875 39.1125 46.4375 38.75C46.1875 38.375 46.0625 37.9625 46.0625 37.5C46.0625 37.075 46.1738 36.6875 46.4 36.3375C46.6263 35.9875 46.9375 35.7 47.3375 35.45C47.7375 35.2 48.2375 35.0125 48.8375 34.875C49.425 34.7375 50.075 34.675 50.8375 34.675C51.3625 34.675 51.9125 34.7137 52.4625 34.7925C53.0375 34.8712 53.625 34.9925 54.2125 35.155C54.8 35.3175 55.375 35.5175 55.9625 35.7675C56.5125 36.0175 57.025 36.305 57.4625 36.63V30.755C56.5125 30.3925 55.4625 30.1175 54.3375 29.9425C53.2125 29.7675 51.9625 29.68 50.4625 29.68C48.9625 29.68 47.5875 29.8425 46.2125 30.155C44.8375 30.4675 43.7125 30.9675 42.7125 31.655C41.7 32.33 40.9625 33.155 40.3375 34.28C39.75 35.33 39.4625 36.53 39.4625 38.03C39.4625 39.905 40 41.53 41.0875 42.78C42.1625 44.155 43.8375 45.155 45.9625 46.155C46.825 46.505 47.5875 46.855 48.3375 47.1925C49.0875 47.53 49.7125 47.88 50.2125 48.2425C50.75 48.605 51.175 49.005 51.4625 49.43C51.775 49.855 51.9375 50.355 51.9375 50.93C51.9375 51.33 51.84 51.705 51.65 52.055C51.46 52.405 51.1625 52.705 50.7625 52.955C50.3625 53.205 49.875 53.405 49.2625 53.555C48.675 53.6925 48.0125 53.7675 47.1375 53.7675C45.7625 53.7675 44.3875 53.53 43.1375 53.055C41.7625 52.58 40.5125 51.8675 39.3875 50.93L39.625 50.875ZM29.125 35.5H37.125V30.375H14.75V35.5H22.75V58.375H29.125V35.5Z" fill="white"/>
</g>
<defs>
<clipPath id="clip0_55_6330">
<rect width="64" height="64" fill="white"/>
</clipPath>
</defs>
</svg>
