<svg width="64" height="64" viewBox="0 0 64 64" fill="none" xmlns="http://www.w3.org/2000/svg">
<g clip-path="url(#clip0_55_6327)">
<path opacity="0.5" d="M62.4762 60.9524H47.2381C46.3965 60.9524 45.7143 61.6346 45.7143 62.4762C45.7143 63.3178 46.3965 64 47.2381 64H62.4762C63.3178 64 64 63.3178 64 62.4762C64 61.6346 63.3178 60.9524 62.4762 60.9524Z" fill="#4D616E"/>
<path opacity="0.5" d="M41.1429 60.9524H22.8571C22.0156 60.9524 21.3333 61.6346 21.3333 62.4762C21.3333 63.3178 22.0156 64 22.8571 64H41.1429C41.9844 64 42.6667 63.3178 42.6667 62.4762C42.6667 61.6346 41.9844 60.9524 41.1429 60.9524Z" fill="#4D616E"/>
<path d="M16.7619 60.9524H1.52381C0.682233 60.9524 0 61.6346 0 62.4762C0 63.3178 0.682233 64 1.52381 64H16.7619C17.6035 64 18.2857 63.3178 18.2857 62.4762C18.2857 61.6346 17.6035 60.9524 16.7619 60.9524Z" fill="#EA5E5E"/>
<path opacity="0.5" d="M62.4762 54.8571H50.2857C49.4441 54.8571 48.7619 55.5394 48.7619 56.381C48.7619 57.2225 49.4441 57.9048 50.2857 57.9048H62.4762C63.3178 57.9048 64 57.2225 64 56.381C64 55.5394 63.3178 54.8571 62.4762 54.8571Z" fill="#4D616E"/>
<path opacity="0.5" d="M44.1905 54.8571H41.1429C40.3013 54.8571 39.619 55.5394 39.619 56.381C39.619 57.2225 40.3013 57.9048 41.1429 57.9048H44.1905C45.0321 57.9048 45.7143 57.2225 45.7143 56.381C45.7143 55.5394 45.0321 54.8571 44.1905 54.8571Z" fill="#4D616E"/>
<path opacity="0.5" d="M35.0476 54.8571H22.8571C22.0156 54.8571 21.3333 55.5394 21.3333 56.381C21.3333 57.2225 22.0156 57.9048 22.8571 57.9048H35.0476C35.8892 57.9048 36.5714 57.2225 36.5714 56.381C36.5714 55.5394 35.8892 54.8571 35.0476 54.8571Z" fill="#4D616E"/>
<path d="M16.7619 54.8571H13.7143C12.8727 54.8571 12.1905 55.5394 12.1905 56.381C12.1905 57.2225 12.8727 57.9048 13.7143 57.9048H16.7619C17.6035 57.9048 18.2857 57.2225 18.2857 56.381C18.2857 55.5394 17.6035 54.8571 16.7619 54.8571Z" fill="#F7B93E"/>
<path d="M7.61905 54.8571H1.52381C0.682233 54.8571 0 55.5394 0 56.381C0 57.2225 0.682233 57.9048 1.52381 57.9048H7.61905C8.46062 57.9048 9.14286 57.2225 9.14286 56.381C9.14286 55.5394 8.46062 54.8571 7.61905 54.8571Z" fill="#56B3B4"/>
<path opacity="0.5" d="M62.4762 48.7619H35.0476C34.206 48.7619 33.5238 49.4441 33.5238 50.2857C33.5238 51.1273 34.206 51.8095 35.0476 51.8095H62.4762C63.3178 51.8095 64 51.1273 64 50.2857C64 49.4441 63.3178 48.7619 62.4762 48.7619Z" fill="#4D616E"/>
<path opacity="0.5" d="M28.9524 48.7619H22.8571C22.0156 48.7619 21.3333 49.4441 21.3333 50.2857C21.3333 51.1273 22.0156 51.8095 22.8571 51.8095H28.9524C29.794 51.8095 30.4762 51.1273 30.4762 50.2857C30.4762 49.4441 29.794 48.7619 28.9524 48.7619Z" fill="#4D616E"/>
<path d="M16.7619 48.7619H1.52381C0.682233 48.7619 0 49.4441 0 50.2857C0 51.1273 0.682233 51.8095 1.52381 51.8095H16.7619C17.6035 51.8095 18.2857 51.1273 18.2857 50.2857C18.2857 49.4441 17.6035 48.7619 16.7619 48.7619Z" fill="#BF85BF"/>
<path opacity="0.5" d="M62.4762 42.6667H56.381C55.5394 42.6667 54.8571 43.3489 54.8571 44.1905C54.8571 45.0321 55.5394 45.7143 56.381 45.7143H62.4762C63.3178 45.7143 64 45.0321 64 44.1905C64 43.3489 63.3178 42.6667 62.4762 42.6667Z" fill="#4D616E"/>
<path opacity="0.5" d="M50.2857 42.6667H44.1905C43.3489 42.6667 42.6667 43.3489 42.6667 44.1905C42.6667 45.0321 43.3489 45.7143 44.1905 45.7143H50.2857C51.1273 45.7143 51.8095 45.0321 51.8095 44.1905C51.8095 43.3489 51.1273 42.6667 50.2857 42.6667Z" fill="#4D616E"/>
<path d="M38.0952 42.6667H10.6667C9.82509 42.6667 9.14286 43.3489 9.14286 44.1905C9.14286 45.0321 9.82509 45.7143 10.6667 45.7143H38.0952C38.9368 45.7143 39.6191 45.0321 39.6191 44.1905C39.6191 43.3489 38.9368 42.6667 38.0952 42.6667Z" fill="#F7B93E"/>
<path d="M4.57143 42.6667H1.52381C0.682233 42.6667 0 43.3489 0 44.1905C0 45.0321 0.682233 45.7143 1.52381 45.7143H4.57143C5.41301 45.7143 6.09524 45.0321 6.09524 44.1905C6.09524 43.3489 5.41301 42.6667 4.57143 42.6667Z" fill="#BF85BF"/>
<path opacity="0.5" d="M62.4762 36.5714H53.3333C52.4918 36.5714 51.8095 37.2537 51.8095 38.0952C51.8095 38.9368 52.4918 39.619 53.3333 39.619H62.4762C63.3178 39.619 64 38.9368 64 38.0952C64 37.2537 63.3178 36.5714 62.4762 36.5714Z" fill="#4D616E"/>
<path d="M47.2381 36.5714H38.0952C37.2537 36.5714 36.5714 37.2537 36.5714 38.0952C36.5714 38.9368 37.2537 39.619 38.0952 39.619H47.2381C48.0797 39.619 48.7619 38.9368 48.7619 38.0952C48.7619 37.2537 48.0797 36.5714 47.2381 36.5714Z" fill="#BF85BF"/>
<path d="M32 36.5714H19.8095C18.9679 36.5714 18.2857 37.2537 18.2857 38.0952C18.2857 38.9368 18.9679 39.619 19.8095 39.619H32C32.8416 39.619 33.5238 38.9368 33.5238 38.0952C33.5238 37.2537 32.8416 36.5714 32 36.5714Z" fill="#EA5E5E"/>
<path d="M13.7143 36.5714H1.52381C0.682233 36.5714 0 37.2537 0 38.0952C0 38.9368 0.682233 39.619 1.52381 39.619H13.7143C14.5559 39.619 15.2381 38.9368 15.2381 38.0952C15.2381 37.2537 14.5559 36.5714 13.7143 36.5714Z" fill="#56B3B4"/>
<path opacity="0.5" d="M62.4762 30.4762H56.381C55.5394 30.4762 54.8571 31.1584 54.8571 32C54.8571 32.8416 55.5394 33.5238 56.381 33.5238H62.4762C63.3178 33.5238 64 32.8416 64 32C64 31.1584 63.3178 30.4762 62.4762 30.4762Z" fill="#4D616E"/>
<path d="M50.2857 30.4762H25.9048C25.0632 30.4762 24.381 31.1584 24.381 32C24.381 32.8416 25.0632 33.5238 25.9048 33.5238H50.2857C51.1273 33.5238 51.8095 32.8416 51.8095 32C51.8095 31.1584 51.1273 30.4762 50.2857 30.4762Z" fill="#56B3B4"/>
<path d="M19.8095 30.4762H10.6667C9.82509 30.4762 9.14286 31.1584 9.14286 32C9.14286 32.8416 9.82509 33.5238 10.6667 33.5238H19.8095C20.6511 33.5238 21.3333 32.8416 21.3333 32C21.3333 31.1584 20.6511 30.4762 19.8095 30.4762Z" fill="#F7B93E"/>
<path d="M4.57143 30.4762H1.52381C0.682233 30.4762 0 31.1584 0 32C0 32.8416 0.682233 33.5238 1.52381 33.5238H4.57143C5.41301 33.5238 6.09524 32.8416 6.09524 32C6.09524 31.1584 5.41301 30.4762 4.57143 30.4762Z" fill="#EA5E5E"/>
<path opacity="0.5" d="M62.4762 24.381H59.4286C58.587 24.381 57.9048 25.0632 57.9048 25.9048C57.9048 26.7463 58.587 27.4286 59.4286 27.4286H62.4762C63.3178 27.4286 64 26.7463 64 25.9048C64 25.0632 63.3178 24.381 62.4762 24.381Z" fill="#4D616E"/>
<path d="M53.3333 24.381H38.0952C37.2537 24.381 36.5714 25.0632 36.5714 25.9048C36.5714 26.7463 37.2537 27.4286 38.0952 27.4286H53.3333C54.1749 27.4286 54.8571 26.7463 54.8571 25.9048C54.8571 25.0632 54.1749 24.381 53.3333 24.381Z" fill="#F7B93E"/>
<path opacity="0.5" d="M32 24.381H22.8571C22.0156 24.381 21.3333 25.0632 21.3333 25.9048C21.3333 26.7463 22.0156 27.4286 22.8571 27.4286H32C32.8416 27.4286 33.5238 26.7463 33.5238 25.9048C33.5238 25.0632 32.8416 24.381 32 24.381Z" fill="#4D616E"/>
<path d="M16.7619 24.381H1.52381C0.682233 24.381 0 25.0632 0 25.9048C0 26.7463 0.682233 27.4286 1.52381 27.4286H16.7619C17.6035 27.4286 18.2857 26.7463 18.2857 25.9048C18.2857 25.0632 17.6035 24.381 16.7619 24.381Z" fill="#BF85BF"/>
<path opacity="0.5" d="M62.4762 18.2857H59.4286C58.587 18.2857 57.9048 18.9679 57.9048 19.8095C57.9048 20.6511 58.587 21.3333 59.4286 21.3333H62.4762C63.3178 21.3333 64 20.6511 64 19.8095C64 18.9679 63.3178 18.2857 62.4762 18.2857Z" fill="#4D616E"/>
<path d="M53.3333 18.2857H38.0952C37.2537 18.2857 36.5714 18.9679 36.5714 19.8095C36.5714 20.6511 37.2537 21.3333 38.0952 21.3333H53.3333C54.1749 21.3333 54.8571 20.6511 54.8571 19.8095C54.8571 18.9679 54.1749 18.2857 53.3333 18.2857Z" fill="#EA5E5E"/>
<path opacity="0.5" d="M32 18.2857H22.8571C22.0156 18.2857 21.3333 18.9679 21.3333 19.8095C21.3333 20.6511 22.0156 21.3333 22.8571 21.3333H32C32.8416 21.3333 33.5238 20.6511 33.5238 19.8095C33.5238 18.9679 32.8416 18.2857 32 18.2857Z" fill="#4D616E"/>
<path d="M16.7619 18.2857H13.7143C12.8727 18.2857 12.1905 18.9679 12.1905 19.8095C12.1905 20.6511 12.8727 21.3333 13.7143 21.3333H16.7619C17.6035 21.3333 18.2857 20.6511 18.2857 19.8095C18.2857 18.9679 17.6035 18.2857 16.7619 18.2857Z" fill="#56B3B4"/>
<path d="M7.61905 18.2857H1.52381C0.682233 18.2857 0 18.9679 0 19.8095C0 20.6511 0.682233 21.3333 1.52381 21.3333H7.61905C8.46062 21.3333 9.14286 20.6511 9.14286 19.8095C9.14286 18.9679 8.46062 18.2857 7.61905 18.2857Z" fill="#F7B93E"/>
<path opacity="0.5" d="M62.4762 12.1905H56.381C55.5394 12.1905 54.8571 12.8727 54.8571 13.7143C54.8571 14.5559 55.5394 15.2381 56.381 15.2381H62.4762C63.3178 15.2381 64 14.5559 64 13.7143C64 12.8727 63.3178 12.1905 62.4762 12.1905Z" fill="#4D616E"/>
<path d="M50.2857 12.1905H47.2381C46.3965 12.1905 45.7143 12.8727 45.7143 13.7143C45.7143 14.5559 46.3965 15.2381 47.2381 15.2381H50.2857C51.1273 15.2381 51.8095 14.5559 51.8095 13.7143C51.8095 12.8727 51.1273 12.1905 50.2857 12.1905Z" fill="#56B3B4"/>
<path d="M41.1429 12.1905H28.9524C28.1108 12.1905 27.4286 12.8727 27.4286 13.7143C27.4286 14.5559 28.1108 15.2381 28.9524 15.2381H41.1429C41.9844 15.2381 42.6667 14.5559 42.6667 13.7143C42.6667 12.8727 41.9844 12.1905 41.1429 12.1905Z" fill="#BF85BF"/>
<path d="M22.8571 12.1905H1.52381C0.682233 12.1905 0 12.8727 0 13.7143C0 14.5559 0.682233 15.2381 1.52381 15.2381H22.8571C23.6987 15.2381 24.381 14.5559 24.381 13.7143C24.381 12.8727 23.6987 12.1905 22.8571 12.1905Z" fill="#56B3B4"/>
<path opacity="0.5" d="M62.4762 6.09524H53.3333C52.4918 6.09524 51.8095 6.77747 51.8095 7.61905C51.8095 8.46062 52.4918 9.14286 53.3333 9.14286H62.4762C63.3178 9.14286 64 8.46062 64 7.61905C64 6.77747 63.3178 6.09524 62.4762 6.09524Z" fill="#4D616E"/>
<path d="M47.2381 6.09524H16.7619C15.9203 6.09524 15.2381 6.77747 15.2381 7.61905C15.2381 8.46062 15.9203 9.14286 16.7619 9.14286H47.2381C48.0797 9.14286 48.7619 8.46062 48.7619 7.61905C48.7619 6.77747 48.0797 6.09524 47.2381 6.09524Z" fill="#F7B93E"/>
<path d="M10.6667 6.09524H1.52381C0.682233 6.09524 0 6.77747 0 7.61905C0 8.46062 0.682233 9.14286 1.52381 9.14286H10.6667C11.5082 9.14286 12.1905 8.46062 12.1905 7.61905C12.1905 6.77747 11.5082 6.09524 10.6667 6.09524Z" fill="#EA5E5E"/>
<path opacity="0.5" d="M62.4762 0H44.1905C43.3489 0 42.6667 0.682233 42.6667 1.52381C42.6667 2.36539 43.3489 3.04762 44.1905 3.04762H62.4762C63.3178 3.04762 64 2.36539 64 1.52381C64 0.682233 63.3178 0 62.4762 0Z" fill="#4D616E"/>
<path d="M38.0952 0H1.52381C0.682233 0 0 0.682233 0 1.52381C0 2.36539 0.682233 3.04762 1.52381 3.04762H38.0952C38.9368 3.04762 39.619 2.36539 39.619 1.52381C39.619 0.682233 38.9368 0 38.0952 0Z" fill="#56B3B4"/>
</g>
<defs>
<clipPath id="clip0_55_6327">
<rect width="64" height="64" fill="white"/>
</clipPath>
</defs>
</svg>
