<svg width="64" height="64" viewBox="0 0 64 64" fill="none" xmlns="http://www.w3.org/2000/svg">
<path d="M23.979 31.812C23.1382 31.812 22.4545 32.0609 21.9304 32.5585C21.4062 33.0565 21.1403 33.7092 21.1403 34.509C21.1403 34.9235 21.2064 35.3015 21.3365 35.6478C21.4666 35.9948 21.6691 36.3162 21.9413 36.6067C22.2135 36.8975 22.7583 37.2924 23.5704 37.7945C24.5668 38.4028 25.2189 38.8965 25.5318 39.2819C25.845 39.6671 26.0004 40.0707 26.0004 40.4915C26.0004 41.0549 25.815 41.5047 25.4338 41.8428C25.0519 42.181 24.5413 42.3495 23.9082 42.3495C23.2404 42.3495 22.6587 42.1141 22.1592 41.6466C21.6597 41.1785 21.4075 40.5593 21.4019 39.7832H21.0913V42.6001H21.4019C21.4967 42.3334 21.6279 42.1969 21.7996 42.1969C21.8822 42.1969 22.0757 42.2539 22.3771 42.3604C23.1105 42.6213 23.7127 42.7472 24.1861 42.7472C25.0018 42.7472 25.6981 42.4615 26.2783 41.8809C26.8576 41.3005 27.1501 40.6005 27.1501 39.7832C27.1501 39.1495 26.957 38.5856 26.578 38.0942C26.199 37.6021 25.4619 37.0297 24.3604 36.3724C23.4126 35.803 22.7973 35.3392 22.5134 34.9776C22.2289 34.6166 22.0829 34.2172 22.0829 33.7789C22.0829 33.3049 22.2571 32.9242 22.6005 32.6402C22.944 32.356 23.3941 32.2152 23.9572 32.2152C24.591 32.2152 25.1193 32.4033 25.5373 32.7819C25.9549 33.1611 26.1964 33.6866 26.2674 34.3619H26.578V31.921H26.2892C26.2539 32.0454 26.2212 32.125 26.1911 32.1607C26.1619 32.1962 26.1057 32.2152 26.0222 32.2152C25.9217 32.2152 25.7426 32.1729 25.4883 32.0899C24.9434 31.9064 24.4411 31.812 23.979 31.812ZM34.1296 31.812C33.1051 31.812 32.1749 32.0535 31.3345 32.5367C30.4928 33.019 29.8266 33.6887 29.3349 34.5417C28.8435 35.3947 28.5994 36.3006 28.5994 37.266C28.5994 38.563 29.0239 39.7185 29.8798 40.7313C30.7361 41.7434 31.7621 42.3741 32.9527 42.6165C33.225 42.7583 33.6144 43.1244 34.1242 43.7171C34.6987 44.3858 35.1847 44.8682 35.5844 45.1555C35.9837 45.4429 36.4147 45.6535 36.8702 45.7929C37.3262 45.9318 37.8192 46 38.3522 46C38.9978 46 39.5758 45.8878 40.0849 45.6567L39.9705 45.3734C39.6749 45.48 39.3598 45.5314 39.0279 45.5314C38.5774 45.5314 38.1221 45.3829 37.6657 45.0846C37.21 44.7857 36.6401 44.2152 35.9603 43.3738C35.6408 42.9706 35.4203 42.7162 35.2956 42.6165C36.5983 42.3621 37.6694 41.7307 38.5048 40.7204C39.34 39.7104 39.758 38.5578 39.758 37.266C39.758 35.7321 39.2122 34.4431 38.1289 33.3921C37.0446 32.341 35.7112 31.812 34.1296 31.812ZM40.4663 31.812L40.4826 32.1444C41.1648 32.1444 41.5468 32.3453 41.6323 32.7492C41.6641 32.8937 41.6787 33.1605 41.6813 33.5446L41.6758 40.8947C41.6702 41.4437 41.5919 41.7942 41.4416 41.9463C41.291 42.0973 41.0364 42.1919 40.6679 42.2296L40.6515 42.562H47.4513L47.6257 40.8947H47.3151C47.2264 41.3489 47.023 41.6743 46.6994 41.8591C46.3749 42.0453 45.8011 42.137 44.9722 42.137H44.3293C43.5835 42.137 43.152 41.8674 43.038 41.3251C43.0145 41.2179 43.0064 41.1029 43.0053 40.9764L43.0325 33.5446C43.0324 32.9966 43.1016 32.6293 43.245 32.4495C43.39 32.2703 43.6513 32.1701 44.0296 32.1444L44.0133 31.812H40.4663ZM34.2386 32.2152C35.3941 32.2152 36.3376 32.6703 37.0664 33.5882C37.795 34.5065 38.1561 35.765 38.1561 37.3586C38.1561 38.8687 37.7897 40.0778 37.0555 40.9873C36.3212 41.8965 35.344 42.3495 34.1296 42.3495C32.963 42.3495 32.0169 41.8824 31.2909 40.9438C30.5656 40.0051 30.2067 38.7864 30.2067 37.2878C30.2067 35.7478 30.57 34.5151 31.3018 33.5937C32.0333 32.6733 33.0127 32.2152 34.2386 32.2152ZM49.8759 33.7953C49.71 33.7953 49.5836 33.8513 49.489 33.9642C49.3923 34.0766 49.3626 34.2129 49.3964 34.3783C49.4291 34.5387 49.5196 34.6794 49.6634 34.7978C49.8064 34.9161 49.9607 34.9776 50.1265 34.9776C50.2869 34.9776 50.4092 34.9161 50.497 34.7978C50.5849 34.6794 50.6117 34.5387 50.5788 34.3783C50.545 34.2129 50.4576 34.0766 50.3227 33.9642C50.1862 33.8513 50.0363 33.7953 49.8759 33.7953ZM54.36 34.9231C54.0782 36.0072 53.4673 36.5939 52.5293 36.6884L52.5402 36.999H53.6354L53.6136 40.6713C53.6153 41.2992 53.6345 41.7172 53.679 41.9299C53.7868 42.4393 54.1194 42.6982 54.676 42.6982C55.4813 42.6982 56.3261 42.2076 57.2096 41.2271L56.9426 40.9982C56.3047 41.644 55.7407 41.9681 55.2481 41.9681C54.9454 41.9681 54.7578 41.794 54.6869 41.4505C54.6675 41.367 54.6597 41.2696 54.6597 41.1562L54.6706 36.999H56.3433L56.327 36.5032H54.6761V34.9231H54.36ZM60.8274 36.3071C59.8918 36.3071 59.1308 36.7612 58.5391 37.6637C57.9504 38.5678 57.7682 39.5693 57.9997 40.6713C58.1359 41.3168 58.4072 41.8171 58.8224 42.1697C59.2369 42.5221 59.7628 42.6982 60.3916 42.6982C60.9769 42.6982 61.792 42.55 62.1351 42.2514C62.479 41.953 62.7959 41.4696 63.0886 40.8075L62.8543 40.5624C62.3875 41.4213 61.4453 41.8537 60.7348 41.8537C59.758 41.8537 59.1598 41.3177 58.9368 40.2518C58.9078 40.1157 58.8862 39.9696 58.8714 39.8159C60.0335 39.6319 60.9142 39.3061 61.5085 38.8352C62.1024 38.364 62.6987 37.8645 62.5873 37.3368C62.5211 37.0233 62.3583 36.7767 62.1078 36.5904C61.8542 36.4041 61.1955 36.3071 60.8274 36.3071ZM50.6005 36.3452L48.5846 36.8083V37.1679L49.282 37.0807C49.6198 37.0807 49.8186 37.2337 49.8813 37.5384C49.9025 37.6404 49.9158 37.7836 49.9195 37.9634L49.8977 41.2598C49.892 41.7159 49.8415 41.9811 49.7397 42.0607C49.637 42.1405 49.3663 42.1806 48.9278 42.1806L48.9169 42.4911H52.1152L52.1098 42.1806C51.6654 42.1806 51.3773 42.1455 51.2489 42.077C51.1227 42.009 51.0358 41.8852 50.9983 41.6956C50.9693 41.559 50.9567 41.3236 50.9547 40.9982L50.9656 36.3452H50.6005ZM60.3153 36.9554C60.5099 36.9554 60.698 37.0306 60.8874 37.1788C61.0742 37.3265 61.1879 37.4908 61.2252 37.6692C61.4076 38.5455 60.6306 39.1514 58.8823 39.489C58.8324 38.85 58.9431 38.2699 59.2256 37.7455C59.5058 37.2216 59.8709 36.9554 60.3153 36.9554Z" fill="#003B57"/>
<path d="M19.4633 19.2268H2.11413C0.951373 19.2268 1.52588e-05 20.1783 1.52588e-05 21.3411V40.4739C1.52588e-05 41.6366 0.951373 42.588 2.11413 42.588H13.5408C13.4111 36.9025 15.3526 25.8686 19.4633 19.2268Z" fill="#0F80CC"/>
<path d="M18.833 19.8436H2.11415C1.28852 19.8436 0.616653 20.5153 0.616653 21.341V39.078C4.40312 37.6248 10.0862 36.3708 14.0156 36.4278C14.8052 32.299 17.126 24.2073 18.833 19.8436Z" fill="url(#paint0_linear_55_6322)"/>
<path d="M23.51 18.6006C22.3218 17.541 20.8832 17.9667 19.4633 19.2268C19.2526 19.414 19.0423 19.6217 18.833 19.8436C16.4041 22.4203 14.1495 27.1932 13.449 30.8383C13.7219 31.3916 13.935 32.0977 14.0754 32.6372C14.1113 32.7755 14.1438 32.9054 14.1697 33.0159C14.2314 33.2774 14.2645 33.447 14.2645 33.447C14.2645 33.447 14.2427 33.3646 14.1534 33.1055C14.1364 33.0558 14.1174 33.0016 14.095 32.9377C14.0854 32.9113 14.0721 32.8793 14.0575 32.8451C13.8991 32.4767 13.4608 31.6994 13.2679 31.3609C13.1029 31.8476 12.9571 32.3028 12.8351 32.7147C13.3919 33.7336 13.7312 35.4796 13.7312 35.4796C13.7312 35.4796 13.7018 35.3664 13.5619 34.9715C13.4377 34.6222 12.8189 33.5381 12.6724 33.2847C12.4217 34.2102 12.322 34.8351 12.4119 34.9873C12.5863 35.2821 12.7524 35.7907 12.8983 36.3533C13.2278 37.6206 13.4569 39.1634 13.4569 39.1634C13.4569 39.1634 13.4643 39.2656 13.4767 39.423C13.4309 40.4872 13.4584 41.5906 13.5408 42.588C13.6499 43.9082 13.8555 45.0424 14.1174 45.6493L14.2953 45.5524C13.9106 44.3565 13.7543 42.7893 13.8228 40.9819C13.9263 38.2193 14.562 34.8876 15.7367 31.4152C17.7213 26.1732 20.4748 21.9674 22.9948 19.9589C20.698 22.0332 17.5892 28.7478 16.6586 31.2343C15.6166 34.0187 14.8783 36.6316 14.4332 39.135C15.201 36.7881 17.6836 35.7793 17.6836 35.7793C17.6836 35.7793 18.9012 34.2776 20.3242 32.1322C19.4718 32.3266 18.0722 32.6594 17.6034 32.8564C16.9119 33.1465 16.7255 33.2454 16.7255 33.2454C16.7255 33.2454 18.9655 31.8813 20.8873 31.2637C23.5303 27.101 26.4098 21.1874 23.51 18.6006Z" fill="#003B57"/>
<defs>
<linearGradient id="paint0_linear_55_6322" x1="11.1205" y1="20.2372" x2="11.1205" y2="38.0083" gradientUnits="userSpaceOnUse">
<stop stop-color="#97D9F6"/>
<stop offset="0.920245" stop-color="#0F80CC"/>
<stop offset="1" stop-color="#0F80CC"/>
</linearGradient>
</defs>
</svg>
