<svg width="64" height="64" viewBox="0 0 64 64" fill="none" xmlns="http://www.w3.org/2000/svg">
<mask id="mask0_55_6324" style="mask-type:luminance" maskUnits="userSpaceOnUse" x="0" y="24" width="17" height="17">
<path d="M12.3379 24H4.11263C1.84129 24 0 25.8413 0 28.1126V36.3379C0 38.6092 1.84129 40.4505 4.11263 40.4505H12.3379C14.6092 40.4505 16.4505 38.6092 16.4505 36.3379V28.1126C16.4505 25.8413 14.6092 24 12.3379 24Z" fill="white"/>
</mask>
<g mask="url(#mask0_55_6324)">
<path fill-rule="evenodd" clip-rule="evenodd" d="M12.5722 36.5873C12.9722 36.1874 13.0476 35.6464 13.0034 35.1791C12.9588 34.7059 12.785 34.192 12.5382 33.6794C12.3158 33.2175 12.0192 32.7262 11.6604 32.2252C12.0192 31.7242 12.3158 31.2329 12.5382 30.771C12.785 30.2585 12.9588 29.7446 13.0034 29.2713C13.0476 28.8041 12.9722 28.2631 12.5722 27.8631C12.1722 27.4632 11.6313 27.3878 11.164 27.4319C10.6908 27.4765 10.1769 27.6504 9.66431 27.8972C9.20235 28.1196 8.71105 28.4161 8.21013 28.7749C7.70916 28.4161 7.21786 28.1196 6.75591 27.8972C6.24332 27.6504 5.72945 27.4765 5.25624 27.4319C4.78896 27.3878 4.24797 27.4632 3.84801 27.8631C3.44806 28.2631 3.37266 28.8041 3.41676 29.2713C3.46144 29.7446 3.63526 30.2585 3.88206 30.771C4.10447 31.2329 4.40098 31.7242 4.75984 32.2252C4.40098 32.7262 4.10447 33.2175 3.88206 33.6794C3.63526 34.192 3.46144 34.7059 3.41676 35.1791C3.37266 35.6464 3.44806 36.1874 3.84801 36.5873C4.24797 36.9873 4.78896 37.0627 5.25624 37.0186C5.72945 36.9739 6.24332 36.8001 6.75591 36.5533C7.21786 36.3309 7.70916 36.0343 8.21013 35.6755C8.71105 36.0343 9.20235 36.3309 9.66431 36.5533C10.1769 36.8001 10.6908 36.9739 11.164 37.0186C11.6313 37.0627 12.1722 36.9873 12.5722 36.5873ZM8.21013 34.7689C8.65702 34.4195 9.11152 34.018 9.55722 33.5724C10.0029 33.1267 10.4044 32.6721 10.7538 32.2252C10.4044 31.7783 10.0029 31.3238 9.55722 30.8781C9.11152 30.4324 8.65702 30.0309 8.21013 29.6816C7.76319 30.0309 7.3087 30.4324 6.86299 30.8781C6.41728 31.3238 6.01579 31.7783 5.66642 32.2252C6.01579 32.6721 6.41728 33.1267 6.86299 33.5724C7.3087 34.018 7.76319 34.4195 8.21013 34.7689ZM8.81633 35.2143C9.23695 34.8757 9.65875 34.4972 10.0704 34.0855C10.482 33.6739 10.8606 33.252 11.1992 32.8314C12.1933 34.2774 12.5757 35.5574 12.059 36.0741C11.5423 36.5909 10.2623 36.2084 8.81633 35.2143ZM5.22097 32.8314C5.55965 33.252 5.93816 33.6739 6.34979 34.0855C6.76146 34.4972 7.18326 34.8757 7.60393 35.2143C6.15793 36.2084 4.87793 36.5909 4.3612 36.0741C3.84447 35.5574 4.22694 34.2774 5.22097 32.8314ZM5.22097 31.619C5.55965 31.1984 5.93816 30.7765 6.34979 30.3649C6.76146 29.9532 7.18326 29.5747 7.60393 29.2361C6.15793 28.242 4.87793 27.8596 4.3612 28.3763C3.84447 28.893 4.22694 30.1731 5.22097 31.619ZM8.81633 29.2361C9.23695 29.5747 9.65875 29.9532 10.0704 30.3649C10.482 30.7765 10.8606 31.1984 11.1992 31.619C12.1933 30.1731 12.5757 28.893 12.059 28.3763C11.5423 27.8596 10.2623 28.242 8.81633 29.2361Z" fill="black" stroke="black" stroke-width="0.5"/>
</g>
<path d="M18.5068 35.4003V31.0655H19.5021L19.5185 32.4474L19.3787 32.1348C19.439 31.9155 19.5432 31.7181 19.6912 31.5426C19.8393 31.3672 20.0093 31.23 20.2012 31.1313C20.3986 31.0271 20.6042 30.9751 20.8181 30.9751C20.9113 30.9751 20.999 30.9833 21.0813 30.9997C21.1691 31.0162 21.2403 31.0354 21.2952 31.0573L21.0237 32.1677C20.9634 32.1348 20.8894 32.1074 20.8016 32.0855C20.7139 32.0635 20.6262 32.0526 20.5384 32.0526C20.4013 32.0526 20.2697 32.08 20.1436 32.1348C20.023 32.1842 19.916 32.2555 19.8228 32.3487C19.7296 32.4419 19.6556 32.5516 19.6008 32.6777C19.5514 32.7983 19.5267 32.9354 19.5267 33.089V35.4003H18.5068Z" fill="black"/>
<path d="M23.5998 35.4824C23.1447 35.4824 22.7416 35.3865 22.3907 35.1945C22.0452 35.0026 21.7738 34.7422 21.5764 34.4131C21.3845 34.0786 21.2885 33.6975 21.2885 33.2698C21.2885 32.9299 21.3433 32.62 21.453 32.3404C21.5626 32.0607 21.7135 31.8195 21.9054 31.6166C22.1028 31.4082 22.3358 31.2491 22.6045 31.1395C22.8787 31.0243 23.1776 30.9668 23.5011 30.9668C23.7862 30.9668 24.0522 31.0216 24.2989 31.1313C24.5457 31.2409 24.7595 31.3918 24.9405 31.5837C25.1214 31.7701 25.2586 31.9949 25.3518 32.2581C25.4505 32.5158 25.4971 32.7983 25.4916 33.1053L25.4834 33.459H21.9712L21.782 32.7681H24.6362L24.5046 32.9079V32.727C24.4881 32.557 24.4333 32.4089 24.3401 32.2828C24.2468 32.1512 24.1262 32.0498 23.9781 31.9785C23.8356 31.9017 23.6765 31.8633 23.5011 31.8633C23.2324 31.8633 23.0048 31.9154 22.8184 32.0196C22.6374 32.1238 22.5003 32.2746 22.4071 32.472C22.3139 32.6639 22.2673 32.9052 22.2673 33.1958C22.2673 33.4755 22.3249 33.7195 22.44 33.9279C22.5607 34.1362 22.7279 34.298 22.9418 34.4131C23.1611 34.5228 23.4161 34.5777 23.7067 34.5777C23.9096 34.5777 24.096 34.5448 24.266 34.4789C24.436 34.4131 24.6197 34.2953 24.8171 34.1253L25.3189 34.8244C25.1708 34.9615 25.0008 35.0794 24.8089 35.1781C24.6224 35.2713 24.425 35.3453 24.2167 35.4002C24.0083 35.455 23.8027 35.4824 23.5998 35.4824Z" fill="black"/>
<path d="M27.8085 35.4825C27.4521 35.4825 27.1286 35.3838 26.838 35.1864C26.5474 34.989 26.3143 34.7203 26.1388 34.3803C25.9634 34.0404 25.8756 33.6538 25.8756 33.2206C25.8756 32.7873 25.9634 32.4008 26.1388 32.0608C26.3143 31.7208 26.5528 31.4549 26.8544 31.263C27.156 31.071 27.496 30.9751 27.8743 30.9751C28.0937 30.9751 28.2938 31.008 28.4748 31.0738C28.6557 31.1341 28.8147 31.2218 28.9519 31.337C29.089 31.4521 29.2013 31.5837 29.2891 31.7318C29.3823 31.8798 29.4454 32.0388 29.4783 32.2089L29.2562 32.1513V31.0655H30.2761V35.4003H29.248V34.3639L29.4865 34.3227C29.4481 34.4708 29.3768 34.6161 29.2726 34.7587C29.1739 34.8958 29.0478 35.0192 28.8943 35.1288C28.7462 35.233 28.579 35.318 28.3925 35.3838C28.2116 35.4496 28.0169 35.4825 27.8085 35.4825ZM28.0882 34.586C28.324 34.586 28.5324 34.5284 28.7133 34.4132C28.8943 34.2981 29.0341 34.1391 29.1328 33.9362C29.237 33.7278 29.2891 33.4893 29.2891 33.2206C29.2891 32.9574 29.237 32.7243 29.1328 32.5214C29.0341 32.3185 28.8943 32.1595 28.7133 32.0443C28.5324 31.9292 28.324 31.8716 28.0882 31.8716C27.8524 31.8716 27.644 31.9292 27.4631 32.0443C27.2876 32.1595 27.1505 32.3185 27.0518 32.5214C26.9531 32.7243 26.9038 32.9574 26.9038 33.2206C26.9038 33.4893 26.9531 33.7278 27.0518 33.9362C27.1505 34.1391 27.2876 34.2981 27.4631 34.4132C27.644 34.5284 27.8524 34.586 28.0882 34.586Z" fill="black"/>
<path d="M33.092 35.4825C32.6863 35.4825 32.3216 35.3838 31.9981 35.1864C31.6746 34.989 31.4196 34.7203 31.2331 34.3803C31.0467 34.0404 30.9535 33.6565 30.9535 33.2288C30.9535 32.8011 31.0467 32.4172 31.2331 32.0773C31.4196 31.7373 31.6746 31.4686 31.9981 31.2712C32.3216 31.0738 32.6863 30.9751 33.092 30.9751C33.4814 30.9751 33.8351 31.0491 34.1531 31.1971C34.4712 31.3452 34.7179 31.5508 34.8934 31.814L34.334 32.4885C34.2518 32.3734 34.1476 32.2692 34.0215 32.176C33.8954 32.0828 33.7611 32.0087 33.6184 31.9539C33.4759 31.899 33.3333 31.8716 33.1907 31.8716C32.9495 31.8716 32.7329 31.9319 32.5409 32.0526C32.3545 32.1677 32.2065 32.3295 32.0968 32.5379C31.9871 32.7408 31.9323 32.9711 31.9323 33.2288C31.9323 33.4865 31.9871 33.7168 32.0968 33.9197C32.2119 34.1226 32.3655 34.2843 32.5574 34.405C32.7493 34.5257 32.9632 34.586 33.199 34.586C33.3416 34.586 33.4786 34.564 33.6102 34.5202C33.7473 34.4708 33.8762 34.4023 33.9968 34.3145C34.1175 34.2268 34.2299 34.1171 34.334 33.9855L34.8934 34.6682C34.707 34.9095 34.4492 35.1069 34.1202 35.2604C33.7967 35.4085 33.4539 35.4825 33.092 35.4825Z" fill="black"/>
<path d="M35.92 35.4002V29.9633H36.9317V35.4002H35.92ZM35.0646 32.0031V31.0655H37.8776V32.0031H35.0646Z" fill="black"/>
<path d="M42.6657 35.4824C42.2106 35.4824 41.8075 35.3865 41.4566 35.1945C41.1111 35.0026 40.8397 34.7422 40.6423 34.4131C40.4504 34.0786 40.3544 33.6975 40.3544 33.2698C40.3544 32.9299 40.4092 32.62 40.5189 32.3404C40.6285 32.0607 40.7794 31.8195 40.9713 31.6166C41.1687 31.4082 41.4017 31.2491 41.6704 31.1395C41.9446 31.0243 42.2435 30.9668 42.567 30.9668C42.8521 30.9668 43.1181 31.0216 43.3648 31.1313C43.6116 31.2409 43.8254 31.3918 44.0064 31.5837C44.1873 31.7701 44.3244 31.9949 44.4176 32.2581C44.5163 32.5158 44.563 32.7983 44.5575 33.1053L44.5493 33.459H41.0371L40.8479 32.7681H43.702L43.5704 32.9079V32.727C43.554 32.557 43.4991 32.4089 43.4059 32.2828C43.3127 32.1512 43.1921 32.0498 43.044 31.9785C42.9015 31.9017 42.7424 31.8633 42.567 31.8633C42.2983 31.8633 42.0707 31.9154 41.8843 32.0196C41.7033 32.1238 41.5662 32.2746 41.473 32.472C41.3798 32.6639 41.3332 32.9052 41.3332 33.1958C41.3332 33.4755 41.3908 33.7195 41.5059 33.9279C41.6266 34.1362 41.7938 34.298 42.0076 34.4131C42.227 34.5228 42.482 34.5777 42.7726 34.5777C42.9755 34.5777 43.1619 34.5448 43.3319 34.4789C43.5019 34.4131 43.6856 34.2953 43.883 34.1253L44.3847 34.8244C44.2367 34.9615 44.0667 35.0794 43.8748 35.1781C43.6883 35.2713 43.4909 35.3453 43.2826 35.4002C43.0742 35.455 42.8686 35.4824 42.6657 35.4824Z" fill="black"/>
<path d="M45.2211 35.4003V31.0655H46.2164L46.2329 31.9374L46.0683 32.0032C46.1177 31.8607 46.1917 31.7291 46.2904 31.6084C46.3891 31.4823 46.507 31.3754 46.6441 31.2876C46.7812 31.1944 46.9265 31.1231 47.0801 31.0738C47.2336 31.0189 47.3899 30.9915 47.5489 30.9915C47.7847 30.9915 47.9931 31.0299 48.174 31.1067C48.3605 31.178 48.514 31.2931 48.6346 31.4521C48.7607 31.6111 48.854 31.814 48.9143 32.0608L48.758 32.0279L48.8238 31.8963C48.8841 31.7647 48.9691 31.6468 49.0788 31.5426C49.1884 31.433 49.3118 31.337 49.4489 31.2547C49.586 31.167 49.7286 31.1012 49.8766 31.0573C50.0302 31.0135 50.181 30.9915 50.329 30.9915C50.658 30.9915 50.9322 31.0573 51.1516 31.1889C51.3709 31.3205 51.5353 31.5207 51.6453 31.7894C51.7548 32.0581 51.8098 32.3898 51.8098 32.7846V35.4003H50.7896V32.8504C50.7896 32.6311 50.7595 32.4501 50.6992 32.3076C50.6443 32.165 50.5566 32.0608 50.436 31.995C50.3208 31.9237 50.1755 31.8881 50 31.8881C49.8629 31.8881 49.7313 31.9127 49.6052 31.9621C49.4845 32.0059 49.3804 32.0717 49.2926 32.1595C49.2049 32.2418 49.1364 32.3377 49.087 32.4474C49.0377 32.557 49.013 32.6777 49.013 32.8093V35.4003H47.9931V32.8422C47.9931 32.6338 47.9629 32.4611 47.9026 32.324C47.8423 32.1815 47.7545 32.0745 47.6394 32.0032C47.5242 31.9265 47.3844 31.8881 47.2199 31.8881C47.0828 31.8881 46.9539 31.9127 46.8333 31.9621C46.7126 32.0059 46.6085 32.069 46.5207 32.1513C46.433 32.2335 46.3645 32.3295 46.3151 32.4392C46.2658 32.5488 46.2411 32.6695 46.2411 32.8011V35.4003H45.2211Z" fill="black"/>
<path d="M54.3535 35.4825C53.9972 35.4825 53.6739 35.3838 53.3829 35.1864C53.0924 34.989 52.8596 34.7203 52.6838 34.3803C52.5085 34.0404 52.4205 33.6538 52.4205 33.2206C52.4205 32.7873 52.5085 32.4008 52.6838 32.0608C52.8596 31.7208 53.0981 31.4549 53.3994 31.263C53.7011 31.071 54.0409 30.9751 54.4193 30.9751C54.6388 30.9751 54.8388 31.008 55.0197 31.0738C55.2007 31.1341 55.36 31.2218 55.4968 31.337C55.6341 31.4521 55.7466 31.5837 55.834 31.7318C55.9276 31.8798 55.9903 32.0388 56.0232 32.2089L55.8011 32.1513V31.0655H56.8211V35.4003H55.7929V34.3639L56.0314 34.3227C55.9934 34.4708 55.9219 34.6161 55.8176 34.7587C55.7189 34.8958 55.5929 35.0192 55.4392 35.1288C55.2912 35.233 55.1241 35.318 54.9375 35.3838C54.7565 35.4496 54.5622 35.4825 54.3535 35.4825ZM54.6331 34.586C54.8691 34.586 55.0773 34.5284 55.2583 34.4132C55.4392 34.2981 55.579 34.1391 55.6777 33.9362C55.7821 33.7278 55.834 33.4893 55.834 33.2206C55.834 32.9574 55.7821 32.7243 55.6777 32.5214C55.579 32.3185 55.4392 32.1595 55.2583 32.0443C55.0773 31.9292 54.8691 31.8716 54.6331 31.8716C54.3977 31.8716 54.189 31.9292 54.008 32.0443C53.8327 32.1595 53.6955 32.3185 53.5968 32.5214C53.4981 32.7243 53.4487 32.9574 53.4487 33.2206C53.4487 33.4893 53.4981 33.7278 53.5968 33.9362C53.6955 34.1391 53.8327 34.2981 54.008 34.4132C54.189 34.5284 54.3977 34.586 54.6331 34.586Z" fill="black"/>
<path d="M57.8934 35.4002V31.0655H58.9051V35.4002H57.8934ZM58.3869 30.1443C58.1839 30.1443 58.025 30.0949 57.9099 29.9962C57.8004 29.892 57.7454 29.7467 57.7454 29.5603C57.7454 29.3848 57.803 29.2422 57.9181 29.1326C58.0333 29.0229 58.1895 28.968 58.3869 28.968C58.5951 28.968 58.7545 29.0201 58.864 29.1243C58.9792 29.223 59.0367 29.3684 59.0367 29.5603C59.0367 29.7303 58.9792 29.8701 58.864 29.9798C58.7489 30.0894 58.59 30.1443 58.3869 30.1443Z" fill="black"/>
<path d="M59.9801 35.4002V29.3135H61V35.4002H59.9801Z" fill="black"/>
</svg>
