<svg width="64" height="64" viewBox="0 0 64 64" fill="none" xmlns="http://www.w3.org/2000/svg">
<g clip-path="url(#clip0_55_6335)">
<path d="M52 0H12C5.37258 0 0 5.37258 0 12V52C0 58.6274 5.37258 64 12 64H52C58.6274 64 64 58.6274 64 52V12C64 5.37258 58.6274 0 52 0Z" fill="black"/>
<path opacity="0.48" fill-rule="evenodd" clip-rule="evenodd" d="M43.2822 38.7424C44.267 39.836 44.7152 41.2253 44.6438 42.5874C44.5725 43.9495 43.9815 45.2843 42.8878 46.2691C41.9076 47.1516 40.6351 47.6393 39.3162 47.638L16.3402 47.6143C15.8824 47.6138 15.4683 47.4279 15.1686 47.1276C14.869 46.8274 14.6839 46.4128 14.6844 45.9551L17.0713 22.9326C17.2237 21.4688 17.9549 20.2054 19.014 19.3459C20.0731 18.4865 21.46 18.031 22.9238 18.1834C24.2357 18.3199 25.4503 18.938 26.3328 19.9181L43.2822 38.7424Z" stroke="#FF3333" stroke-width="8.925"/>
<path fill-rule="evenodd" clip-rule="evenodd" d="M15.0459 18.9674C14.7396 18.6273 14.6002 18.1952 14.6224 17.7716C14.6446 17.348 14.8284 16.9328 15.1686 16.6266C15.4734 16.3521 15.8692 16.2004 16.2794 16.2008L47.5143 16.2331C47.972 16.2335 48.3862 16.4195 48.6858 16.7197C48.9854 17.02 49.1705 17.4346 49.1701 17.8923L45.9283 49.1293C45.8809 49.5845 45.6535 49.9775 45.3241 50.2448C44.9947 50.512 44.5634 50.6537 44.1081 50.6063C43.7001 50.5639 43.3224 50.3716 43.0479 50.0668L15.0459 18.9674Z" stroke="#FF6A33" stroke-width="8.925"/>
</g>
<defs>
<clipPath id="clip0_55_6335">
<rect width="64" height="64" fill="white"/>
</clipPath>
</defs>
</svg>
