<?xml version="1.0" encoding="utf-8"?>
<!-- Generator: Adobe Illustrator 16.0.0, SVG Export Plug-In . SVG Version: 6.00 Build 0)  -->
<!DOCTYPE svg PUBLIC "-//W3C//DTD SVG 1.1//EN" "http://www.w3.org/Graphics/SVG/1.1/DTD/svg11.dtd">
<svg version="1.1" xmlns="http://www.w3.org/2000/svg" xmlns:xlink="http://www.w3.org/1999/xlink" x="0px" y="0px" width="792px"
	 height="612px" viewBox="0 0 792 612" enable-background="new 0 0 792 612" xml:space="preserve">
<g id="Capa_1">
	<g>
		<ellipse fill-rule="evenodd" clip-rule="evenodd" fill="#FCF6F6" cx="399.953" cy="406.287" rx="60.98" ry="60.929"/>
		<path fill-rule="evenodd" clip-rule="evenodd" fill="#050202" d="M383.308,372.776c0.728-0.063,1.456-0.127,2.183-0.195
			c3.214,5.109,3.95,12.264,12.919,11.964c6.278-0.21,12.62,1.741,18.955,2.567c0.626,0.08,1.426-0.94,2.103-1.5
			c8.052-6.668,8.674-8.937,4.489-18.408c-1.33-3.009-3.184-5.785-4.797-8.669c-0.616-4.48,2.108-4.725,5.295-3.998
			c3.064,0.695,5.942,2.067,8.085,4.368c2.705,2.908,3.457-0.174,4.888-1.299c13.967,9.612,22.13,23.083,24.6,39.587
			c3.643,24.344-3.617,44.717-24.568,58.851c-20.73,13.983-44.039,19.09-65.776,6.025c-41.52-24.953-45.122-71.386-12.026-104.253
			c1.757,2.877-1.551,3.517-2.325,5.27c-9.344,10.724-14.862,23.045-16.182,37.7c3.797-1.033,4.941-3.959,6.141-6.285
			c3.225-6.249,5.647-12.915,8.939-19.124c1.817-3.427,3.199-6.693,2.807-10.579c3.605,0.111,4.361,2.808,5.047,5.567
			c-0.991,0.454-2.338,0.64-2.916,1.406c-4.958,6.573-9.428,13.945-10.454,21.82c-0.905,6.945,4.081,13.162,9.32,18.176
			c0.664,0.636,1.348,0.856,2.335,0.604c8.866-2.274,19.123-2.626,20.392-15.135c0.021-0.211,0.11-0.455,0.25-0.606
			C390.223,388.764,389.268,380.803,383.308,372.776z M351.541,436.484c-0.55-0.167-1.408-0.64-1.595-0.45
			c-0.788,0.799-0.211,1.429,0.562,1.901c5.514,9.218,12.944,16.396,22.944,20.909C366.569,450.969,358.49,444.265,351.541,436.484z
			 M355.667,433.182c-0.25,4.602,4.045,10.352,12.167,16.286c9.614,7.023,25.047,1.225,28.229-10.192
			c2.053-7.365,0.045-12.035-5.77-17.103c-7.376-6.428-13.29-13.718-24.792-9.105c-2.87,1.151-5.121,1.864-6.105,4.688
			C357.651,422.766,356.195,427.866,355.667,433.182z M398.61,428.828c0.772,5.516-0.133,10.467-2.012,15.245
			c-1.118,2.844-0.545,4.704,2.018,6.738c11.477,9.112,20.807,9.085,32.06-0.233c7.575-6.274,7.4-14.993,7.908-23.551
			c0.12-2.023-1.676-2.189-2.918-3.049c-8.782-6.065-17.314-8.431-26.42-0.24C406.592,426.126,402.574,426.999,398.61,428.828z
			 M453.091,405.193c-0.354-2.61-0.627-5.47-1.144-8.285c-2.07-11.271-7.798-16.764-19.127-18.676
			c-2.119-0.358-3.604-0.095-5.289,1.512c-5.983,5.707-10.389,11.739-6.736,20.57c0.49,1.188,0.729,2.629,0.596,3.899
			c-0.92,8.722,3.819,13.389,11.35,16.052c2.81,0.995,5.19,3.694,8.595,2.461C445.931,421.061,453.072,410.466,453.091,405.193z
			 M457.589,416.637c5.374-10.408,0.914-32.69-7.539-40.742C450.531,390.01,456.028,402.091,457.589,416.637z M414.661,462.596
			c10.526-1.28,19.128-6.124,26.164-13.854C431.016,451.35,424.159,459.412,414.661,462.596z"/>
		<path fill-rule="evenodd" clip-rule="evenodd" fill="#050202" d="M376.352,362.729c0.079,0.396,0.179,0.783,0.292,1.157
			c0.59,1.391,2.207,2.396,1.632,4.248c-1.921,0.177-3.838,0.354-5.755,0.53c-2.821,0.023-4.423-1.255-4.563-4.187
			c-0.169-3.502,1.646-5.58,4.415-6.898C375.224,358.427,374.666,361.394,376.352,362.729z"/>
		<path fill-rule="evenodd" clip-rule="evenodd" fill="#050202" d="M393.114,356.334c-2.403,2.296-4.806,4.592-7.208,6.885
			c-3.871-4.467-0.528-7.92,2.39-10.248C390.529,351.189,393.259,352.627,393.114,356.334z"/>
		<g>
			<path fill-rule="evenodd" clip-rule="evenodd" fill="#338A81" d="M519.282,327.579c-7.519-12.026-8.691-25.927-11.878-39.16
				c-2.099-8.717-4.478-17.656-3.471-26.802c0.819-7.441,2.296-14.81,3.445-22.215c1.877-12.082-0.144-23.237-7.229-33.487
				c-3.467-5.015-7.622-9.451-10.222-15.258c-4.059-9.067-9.506-17.518-16.871-24.43c-8.833-8.29-22.393-6.819-26.446,2.742
				c-2.045,2.397-1.987,5.165-1.41,8.022c0.08,1.744,0.161,3.487,0.241,5.23c-0.261,2.915-0.163,5.786,1.051,8.517
				c-0.181,3.267-0.056,6.583-0.618,9.781c-0.807,4.591-3.663,6.898-8.566,7.128c-5.086,0.238-7.928-1.509-8.104-6.793
				c0.44-1.513,1.531-1.521,2.768-1.199c3.632,4.55,3.632,4.55,6.398,1.234c-0.986-1.596-0.906-4.157-3.714-4.107
				c-0.352-0.258-0.703-0.515-1.054-0.773c-1.11-1.941-2.22-3.882-3.33-5.824c0.112-0.678,0.003-1.224-0.812-1.342
				c0,0-0.028-0.046-0.028-0.046c-0.068-2.155-0.133-4.311-0.199-6.467c-0.001,0.001,0.221-0.288,0.221-0.288
				c0.817-0.116,1.633-0.232,2.45-0.348c2.221,0.771,3.437,0.526,2.213-2.188c-0.226-0.484-0.453-0.969-0.679-1.452
				c-0.381-1.938-1.084-3.715-2.553-5.109c0.146-1.255-0.27-2.235-1.405-2.857c-0.081-0.788-0.161-1.574-0.24-2.361
				c-0.393-0.479-0.784-0.958-1.177-1.436c0.393,0.479,0.784,0.958,1.177,1.435c0.45,0.062,0.899,0.125,1.351,0.187
				c2.856,0.071,3.578-0.586,2.249-2.018c-2.076-2.24-4.345-4.745-7.058-5.854c-4.855-1.985-3.795-4.801-1.771-8.458
				c-2.785,0-5.307-0.53-7.492,0.104c-5.701,1.652-11.414,1.303-16.56-0.884c-3.916-1.665-7.373-1.506-10.741-0.055
				c-3.427,1.477-6.37,0.904-9.59-0.172c-8.719-2.915-13.858-1.054-19.138,6.935c2.918,3.458,7.304,4.662,11.051,6.835
				c11.811,6.849,14.168,16.466,6.669,27.755c-1.808,2.722-3.87,5.276-5.816,7.908l-0.011,0.05c0,0-0.372,0.064-0.371,0.068
				c-4.091,0.841-5.836-1.453-6.07-5.005c-0.318-4.836-0.238-9.698-0.342-14.548c-0.37-17.282-16.302-28.943-30.909-22.628
				c-2.43,0.435-4.406,1.689-6.412,3.104c-25.704,18.135-40.031,58.875-31.682,90.314c1.264,7.187,1.791,14.422,1.072,21.694
				c-0.778,7.875-1.719,15.733-2.588,23.599c-2.222,13.911-2.169,27.658,2.982,41.034c-0.142,0.936-0.027,1.718,1.123,1.887
				c0.474,3.978,2.187,7.79,6.374,7.719c3.511-0.06,3.077-4.018,3.094-6.817c0.541-3.058,1.082-6.117,1.622-9.18
				c1.632-2.567,3.263-5.137,4.894-7.707c8.611-10.059,14.368-22.889,27.631-28.423c0.873-0.089,1.31-0.607,1.418-1.446
				c0.373-0.387,0.746-0.775,1.119-1.161c0,0,0.213-0.265,0.213-0.265c0.313-0.349,0.627-0.697,0.939-1.045
				c-0.001,0,0.329-0.392,0.329-0.392c0.34-0.735,0.679-1.471,1.017-2.205c0.452-0.197,0.631-0.537,0.535-1.021
				c0.642-0.592,1.283-1.184,1.926-1.776c0.401-0.143,0.625-0.427,0.669-0.852l0.283,0.082c0,0-0.164-0.226-0.162-0.227
				c0.809-0.976,1.621-1.952,2.431-2.928c2.176-2.192,4.353-4.384,6.529-6.577c-0.001,0.001,0.331-0.272,0.331-0.272
				c4.059,3.686,2.982,8.147,1.849,12.744c5.419,0.178,4.635,4.135,4.546,7.58c-0.146,5.633-2.051,11.416,1.564,16.694l0.136,0.441
				c-0.184,1.109,0.161,2.026,0.996,2.769c1.692,6.603,3.139,13.282,5.177,19.777c1.119,3.565,0.049,5.176-3.034,6.698
				c-3.794,1.874-7.824,3.667-10.073,7.672c4.902,3.651,6.498-5.221,11.442-2.304c-4.43,3.96-7.923,8.467-13.334,10.666
				c1.764,2.874-1.544,3.514-2.32,5.27c0.569,0.569,1.138,1.139,1.708,1.709c3.605,0.111,4.361,2.808,5.047,5.567
				c2.648-1.382,7.201,6.691,8.437-1.7c-2.822,0.023-4.424-1.255-4.564-4.187c-0.169-3.502,1.646-5.58,4.415-6.898
				c2.852,0.847,2.294,3.813,3.979,5.149c2.903-5.209-0.76-12.235,4.87-16.84c1.699-1.388-1.071-2.557-1.778-3.744
				c2.532-2.849,4.533-1.427,6.216,0.49c1.17,1.331,2.042,3.125,0.385,4.712c-4.219,4.039-7.959,8.207-6.9,14.76
				c0.072,0.444-1.631,1.174-2.508,1.77c0.597,1.4,2.214,2.406,1.639,4.258c1.675,1.548,3.354,3.095,5.032,4.642
				c0.728-0.063,1.456-0.127,2.185-0.192c1.718-3.052,0.833-6.22,0.417-9.366c-3.874-4.466-0.531-7.919,2.387-10.247
				c2.233-1.781,4.962-0.344,4.818,3.363c3.362,1.787,4.591,5.179,6.297,8.242c1.278,2.294,3.041,4.14,5.345,5.168
				c3.169-2.291-0.769-4.808,1.327-7.344c2.464,0.934,2.875,3.784,4.308,5.626c2.284,2.936,5.22,4.586,8.585,2.93
				c4.257-2.099,0.667-4.761-0.183-7.146c-0.648-1.825-1.896-3.664,0.367-5.275c-0.616-4.48,2.108-4.725,5.295-3.998
				c3.064,0.695,5.942,2.067,8.085,4.368c2.705,2.908,3.457-0.174,4.888-1.299c-2.947-3.469-5.9-6.932-8.838-10.406
				c-3.127-3.701-2.742-6.493,1.784-8.877c2.146-1.13,4.202-1.097,6.379-1.16c9.086-0.264,18.146-1.211,26.942-3.309
				c8.004-1.909,8.929-6.231,3.625-12.407c-4.085-4.756-9.548-7.88-14.063-12.095c-8.622-8.045-14.929-17.54-16.11-29.58
				c-0.392-3.98-1.541-9.482,3.102-11.225c3.886-1.459,6.197,3.303,8.656,5.999c1.327,1.453,2.449,3.142,3.417,4.863
				c3.684,6.554,7.044,13.3,10.938,19.725c6.191,10.218,15.053,17.764,25.756,22.785c3.958,1.856,8.149,3.093,11.858,5.651
				c5.73,3.954,11.308,8.44,18.745,9.11C521.496,333.354,520.736,329.903,519.282,327.579z M499.844,224.628
				c-0.002,0.231,0,0.462,0.008,0.689C499.844,225.09,499.842,224.859,499.844,224.628z M429.869,270.925
				c-4.484-3.749-4.89-9.262-1.098-15.192C430.997,260.678,434.568,265.497,429.869,270.925z M396.149,264.683
				c-0.02,0.013-0.036,0.018-0.055,0.03c-0.349,3.959,7.157,6.355,1.849,11.621c-3.858-3.511-8.765-6.254-7.203-12.666
				c2.591-1.881,3.235,2.425,5.354,1.044c0.002-0.026,0.001-0.053,0.004-0.079c0.01-0.012,0.021-0.016,0.031-0.027
				c-1.024-4.844-6.112-9.757,0.833-14.641c1.466,2.194,2.992,4.611,4.656,6.928c1.846,2.568,0.833,4.806-0.333,7.275
				c-1.588,3.36-3.604-1.264-5.156,0.438C396.135,264.632,396.144,264.658,396.149,264.683z M414.841,203.726
				c-0.165-3.293,3.321-4.367,4.97-6.719c-1.646,2.352-5.134,3.426-4.967,6.72c4.814,2.505,1.963,5.91,2.046,10.421
				c-5.077-3.51-2.508-7.111-2.856-10.088C414.396,204.174,414.664,204.062,414.841,203.726z M412.955,216.397
				c6.672,5.039,0.4,9.666-0.709,14.47C407.789,225.762,414.63,221.398,412.955,216.397z M415.516,237.731
				c-0.264-0.115-0.569-0.341-0.81-0.405C414.946,237.39,415.254,237.616,415.516,237.731
				C415.516,237.731,415.516,237.731,415.516,237.731z M412.044,246.079c-0.317,6.17-7.534-1.763-9.534,3.145
				c0.703-2.53,1.371-5.072,2.143-7.582c0.177-0.569,0.719-1.026,1.173-1.641C409.036,241.035,412.202,242.981,412.044,246.079z
				 M411.784,254.424c-0.85,1.818-1.468,3.14-2.421,5.178c-1.807-1.961-3.252-3.53-4.808-5.219
				C406.878,252.898,408.875,254.291,411.784,254.424z M406.604,235.473c-1.585-0.674-2.131-2.646-4.061-2.008
				c-2.013,1.918,0.452,5.225-2.072,7.138c-4.551-5.378-2.047-9.444,2.477-13.459C405.146,229.371,408.218,230.965,406.604,235.473z
				 M403.721,278.349c0.62,4.546,3.406,3.529,5.423,4.212c-1.823,4.391-4.502,4.688-7.894,2.812
				C400.54,282.9,403.109,282.011,403.721,278.349z M405.813,270.767c-1.205-2.234,1.071-3.287,3.807-3.886
				c1.047,2.94,1.945,5.626,6.722,6.693C410.816,274.973,407.563,274.015,405.813,270.767z M368.501,155.99
				c12.681-1.018,20.679,4.622,19.961,13.547C380.733,166.526,369.243,158.813,368.501,155.99z M385.692,193.793
				c4.241-5.461,4.694-12.351,8.602-17.75c1.498-2.07-0.857-3.616-1.38-5.424c-0.718-2.487-2.318-4.805-1.603-7.634
				c3.189-2.184,5.773,1.494,8.743,0.917c1.053-3.922,1.053-3.922-8.274-8.713c8.938-1.469,18.253,1.963,30.66,11.296
				c0.077,4.334-1.783,3.677-4.416,1.849c-2.146-1.49-3.001-5.2-7.6-3.97c2.187,3.205,4.158,6.097,6.131,8.988l0.001,0
				c0.058,1.493,0.916,3.078-0.496,4.405c-2.37-3.017-4.207-6.53-8.409-9.253c-0.298,6.351,6.522,10.196,3.837,16.07
				c-2.6,1.015-2.736-3.633-5.714-2.246c-1.666,5.102,4.008,10.042,1.648,16.168c-2.551-2.352-1.348-5.799-6.085-6.771
				c2.604,7.437-2.508,13.514-3.311,22.097c3.895-2.942,5.998-4.532,8.12-6.135c0.948,1.527,1.639,2.639,2.328,3.75
				c-0.119,0.857-0.281,1.711-0.351,2.572c-0.15,1.869,0.627,4-1.632,5.226c-2.568,1.394-2.476-2.897-4.713-2.155
				c-0.473,7.589-3.17,10.49-9.279,9.958c0,0,0,0,0,0c-0.698-1.005-1.546-1.2-2.566-0.479c0.467,0.567,0.934,1.134,1.4,1.701
				c2.318,6.206,2.318,6.206-0.543,11.957c-4.338-3.446-7.434-6.985-3.738-12.536c-1.562-1.983-3.389-2.214-5.689-1.981
				c0,2.228,0,4.38,0,7.06c-3.083-0.891-2.176-3.99-3.775-5.238c-0.984-0.947-1.47-1.882-1.449-2.802
				c-0.021,0.92,0.465,1.854,1.449,2.802c0.049-1.841,0.099-3.682,0.149-5.522c0.593-1.35,0.778-2.656-0.409-3.816
				c-0.82-0.029-1.641-0.058-2.462-0.087l0,0c0.821,0.029,1.642,0.058,2.462,0.086c-1.206-1.56-1.719-3.337-1.667-5.292
				C378.099,206.046,381.33,199.411,385.692,193.793z M418.33,172.543c-0.252,0.127-0.499,0.256-0.744,0.379
				C417.831,172.798,418.078,172.67,418.33,172.543z M384.369,261.648c1.071,1.733,1.438,4.008-0.142,4.727
				c-4.309,1.961-5.772-2.315-8.695-4.404C378.831,261.258,381.432,256.893,384.369,261.648z M379.523,247.49
				c3.764,2.06,5.356,5.096,5.533,9.119C383.4,253.67,377.442,253.295,379.523,247.49z M381.981,241.041
				c3.544-0.783,6.378,0.33,7.875,3.306c1.12,2.229-0.372,4.135-2.495,5.442C384.188,247.717,383.509,244.214,381.981,241.041z
				 M374.515,221.139c-0.146,0.116-0.303,0.223-0.478,0.317C374.211,221.361,374.369,221.255,374.515,221.139z M373.956,221.504
				c-0.021,0.011-0.043,0.02-0.064,0.03C373.912,221.523,373.936,221.515,373.956,221.504z M370.484,224.053
				C370.484,224.053,370.484,224.053,370.484,224.053c0.863,6.02,8.379,8.38,7.943,15.635c-3.599,0.785-4.867,4.661-7.06,8.133
				c-3.852-3.701-3.369-8.475-5.052-12.352c0.23-3.056,0.466-6.11,0.687-9.167C367.168,223.999,368.274,223.179,370.484,224.053z
				 M362.266,236.342c-0.504,0.159-0.988,0.267-1.423,0.249C361.278,236.609,361.762,236.501,362.266,236.342
				c0.201-0.064,0.406-0.135,0.612-0.21C362.672,236.207,362.467,236.278,362.266,236.342z M365.694,248.925
				c-0.316,0.017-0.626,0.088-0.933,0.184C365.068,249.014,365.378,248.942,365.694,248.925z M296.809,302.429
				c-0.6-1.393-0.184-3.089-0.753-4.491C296.625,299.34,296.209,301.036,296.809,302.429c2.286-17.456,6.677-34.819,2.32-52.569
				c-2.655-17.175-0.747-34.065,5.232-50.149c5.69-15.306,15.314-28.13,29.303-37.206c10.95-0.52,15.554,3.029,17.916,13.993
				c1.161,5.388,1.984,10.85,3.231,16.215c1.063,4.573,2.755,9.349,6.54,12.016c5.501,3.879,6.162,8.106,4.119,14.034
				c-1.033,2.996-1.605,6.303-1.534,9.728c0.044,2.167-0.469,6.215-4.958,4.093l0,0c-0.386-3.162-2.661-5.273-4.305-7.734
				c-1.733-6.693-3.466-13.388-5.198-20.081c-0.16-3.967-0.062-7.966-0.538-11.896c-0.878-7.257-1.019-7.241-7.812-9.451
				c-2.634,0.479-2.946,3.833-5.446,4.509c-1.37-2.873-1.37-2.873,0.371-8.198c-5.299,0.783-9.202,2.703-10.339,8.411
				c-0.278,1.394-1.208,3.259-2.355,3.787c-14.48,6.664-14.357,21.129-17.706,33.503c-1.845,6.816-0.357,14.098,0.057,21.133
				c1.117,18.976-3.488,37.297-5.79,55.889c-0.978,7.899-0.867,15.897,2.709,23.374c0,0.002,0,0.002,0,0.002
				c-0.281,2.201,0.144,4.661-2.241,6.09C296.782,322.383,297.151,312.362,296.809,302.429z M354.22,266.546
				c-0.025,0.059-0.035,0.116-0.029,0.169C354.186,266.662,354.195,266.605,354.22,266.546z M351.311,244.956
				c-2.678,0.476-5.028-1.088-5.691-4.174c-0.081-4.789,3.8-6.793,6.679-9.502c0.305-1.41,0.572-2.833,1.095-4.163
				c-0.523,1.33-0.79,2.753-1.095,4.164c0.316,0.212,0.663,0.289,1.039,0.231c0,0,0,0,0.001,0c0.459,1.025,0.918,2.05,1.378,3.076
				c0.056,1.526,0.307,3.076,0.123,4.572C354.54,241.591,353.925,244.492,351.311,244.956z M305.45,314.439
				c-0.581-4.342-1.276-8.666-0.437-13.06c1.233-6.458,3.139-12.813,2.32-19.551c-0.368-3.024,2.694-4.632,3.307-7.872
				c4.007,3.018,3.326,6.754,3.049,10.038c-0.898,10.677-2.116,21.327-3.213,31.97l-0.002-0.002c0,0.002,0.002,0.002,0.002,0.003
				c0,0.005,0,0.009-0.001,0.015c0.073,0.073,0.137,0.125,0.207,0.191l-0.257,0.062C308.017,317.72,305.972,318.344,305.45,314.439z
				 M312.49,267.501c-6.206-3.747,1.298-8.211-1.504-11.879C316.511,258.197,316.511,258.197,312.49,267.501z M314.106,314.453
				c-0.001,0.004-0.003,0.008-0.004,0.012C314.103,314.461,314.104,314.457,314.106,314.453z M309.525,223.989
				c3.106,8.27,12.022,13.855,10.338,24.325c-0.754,0.197-1.508,0.395-2.262,0.592c0.357,0.906,0.529,2.018,0.958,2.844
				c-0.429-0.826-0.601-1.938-0.958-2.845C307.695,243.208,309.043,233.483,309.525,223.989z M341.389,211.152
				c-6.116-6.135-6.456-14.248-0.871-19.369c1.799,1.453,3.288,2.657,4.883,3.947C344.233,200.866,341.7,205.546,341.389,211.152z
				 M340.514,218.916c2.616,3.605,4.627,3.558,6.562-0.426c1.65,4.646,2.037,8.777-4.168,10.223
				c-3.069-2.063-6.367-3.838-8.666-6.875c-0.077-0.762-0.156-1.525-0.234-2.289c-0.551-0.006-1.103-0.012-1.654-0.017
				c0.552,0.005,1.103,0.011,1.655,0.016c1.865-1.897,0.467-4.687,1.8-6.926C338.399,214.077,339.019,216.856,340.514,218.916z
				 M333.691,255.012c-2.927-1.911-5.092-4.499-6.718-7.567c0.521-1.704,1.042-3.41,1.562-5.114
				c1.974,1.365,3.911,2.789,5.935,4.076c2.201,1.398,4.148,1.463,5.216-1.44c0.568,0.821,1.135,1.64,1.701,2.461
				c1.875-0.946,2.117-2.934,2.81-4.632c-0.693,1.698-0.935,3.686-2.81,4.632c-0.996,1.914-1.993,3.828-2.988,5.742
				C336.83,253.784,335.261,254.398,333.691,255.012z M332.068,223.951L332.068,223.951c3.564,3.757,4.937,7.923,2.387,12.819
				c-0.735,0.286-1.47,0.571-2.205,0.856c0,0,0,0,0,0.001c-0.21-0.222-0.432-0.234-0.666-0.033
				C325.353,232.822,325.455,229.957,332.068,223.951z M329.996,215.395c0.32,0.126,0.598,0.291,0.854,0.474
				C330.594,215.686,330.316,215.521,329.996,215.395z M336.117,243.935c-1.748-0.708-3.141-1.776-3.667-3.722
				C332.977,242.158,334.369,243.227,336.117,243.935z M329.496,238.539c-0.05,0.042-0.113,0.076-0.161,0.119
				C329.383,238.615,329.446,238.581,329.496,238.539z M328.237,214.981c0,0-0.088,0.008-0.091,0.008
				c0.452,3.948-1.401,6.564-3.829,8.85c2.428-2.286,4.28-4.902,3.826-8.85c-8.983-6.021-9.444-10.021-2.495-17.998
				c2.088-2.396,3.492-5.388,6.203-7.893C333.249,198.087,331.032,206.567,328.237,214.981z M322.505,215.709
				c4.025,3.515-1.794,6.769-0.744,10.34c-0.351,0.33-0.439,0.719-0.265,1.167c-0.214,0.409-0.427,0.818-0.641,1.228
				c-0.424,0.004-0.636,0.219-0.637,0.645c-0.335,2.16-0.288,4.157,0.199,6.171c0.195,0.805,0.46,1.613,0.8,2.436
				c-0.339-0.823-0.604-1.631-0.8-2.436c-0.488-2.014-0.535-4.011-0.201-6.17c-6.934-4.839-8.943-12.57-5.449-21.737
				C319.02,208.605,319.651,213.217,322.505,215.709z M324.789,255.463c0,0,0,0-0.001,0c0.32-0.231,0.387-0.521,0.201-0.871
				l-0.269-0.04c0-0.002,0-0.003,0-0.005c2.416-0.985,3.954,0.053,5.222,2.099c1.562,2.521,3.276,4.945,4.925,7.411
				c-1.131,0.109-1.356,0.952-1.504,1.857c-4.658,2.01-7.647-0.401-10.24-3.864C323.678,259.855,324.234,257.659,324.789,255.463z
				 M324.042,293.008c-0.781,4.483-2.359,8.15-5.102,11.818c-2.41-2.345-0.706-5.388-2.142-7.569c0,0,0-0.001,0-0.002
				c-0.11-0.422-0.22-0.845-0.33-1.267c0.255-3.115-0.899-6.388,0.157-9.414c-1.055,3.026,0.099,6.299-0.155,9.414
				c1.758-3.673,0.837-7.645,1.283-11.464c3.091-5.099,1.445-11.292,3.784-16.93c4.696,1.767,1.345,6.38,3.424,8.812
				C323.808,281.877,325.012,287.439,324.042,293.008z M331.232,293.13c-4.635-5.202-0.591-11.921-4.171-16.507
				c2.287-3.455,6.767,1.786,8.907-2.248c0.477-0.574,0.953-1.149,1.521-1.834c-0.567,0.685-1.044,1.26-1.519,1.835
				c0.498,1.229,0.995,2.459,1.491,3.689c-0.018,1.053-0.035,2.105-0.053,3.158c0.125,0.864,0.192,1.713-0.149,2.458
				c0.341-0.745,0.274-1.594,0.148-2.457c-1.027,0.937-1.093,2.118-0.865,3.374c-0.162,0.829-0.324,1.658-0.486,2.487
				C334.623,288.882,333.19,290.678,331.232,293.13z M347.639,277.305c-0.477,3.376-2.314,5.809-6.738,3.073
				c1.288-4.565,1.949-9.414,0.773-14.305c-0.654,0.044-1.147-1.097-1.661-1.464c0.514,0.368,1.007,1.508,1.661,1.463
				c0.462-3.462,1.58-5.469,5.04-2.267C348.862,268.172,348.273,272.816,347.639,277.305z M348.706,261.799
				c-3.567-3.264-4.647-7.183-3.096-11.792c4.342-1.126,5.956,2.529,6.769,5.102C353.12,257.453,352.895,261.213,348.706,261.799z
				 M356.726,267.982c0.199,0.068,0.353,0.02,0.471-0.118C357.078,268.001,356.925,268.05,356.726,267.982z M361.02,269.673
				c-0.263-0.113-0.569-0.335-0.812-0.396C360.45,269.338,360.757,269.561,361.02,269.673
				C361.02,269.673,361.02,269.673,361.02,269.673z M366.028,267.04c-1.754,1.52-1.957,4.129-3.156,6.04
				c1.199-1.91,1.402-4.521,3.156-6.041c-0.203-1.229-0.407-2.458-0.61-3.688c-1.096-0.957-1.242-2.116-1.219-3.311
				c-0.023,1.195,0.123,2.354,1.219,3.311c0.057-1.916,0.647-3.945-1.162-5.464c0.005-0.403-0.096-0.778-0.303-1.123
				c-0.882-0.015-1.764-0.028-2.646-0.042c-1.026,0.833-2.351,1.546-1.287,3.215c0.085,1.04,0.292,2.103,0.067,3.082
				c0.224-0.979,0.017-2.042-0.068-3.082c-1.466,1.353-1.133,3.053-0.92,4.731c-0.546,0.849-1.093,1.696-1.639,2.545
				c-0.459,0.002-0.858,0.159-1.197,0.47c-0.308-0.369-0.701-0.535-1.18-0.499c0.123-0.458,0.038-0.875-0.257-1.25
				c0.525-1.128,1.051-2.256,1.577-3.385c0.101-2.075-0.453-4.229-0.272-6.295c-0.181,2.066,0.374,4.22,0.272,6.293
				c2.004-3.119,1.005-6.599,1.199-9.935c0.335-0.153,0.445-0.405,0.328-0.755c0.996-0.687,1.991-1.374,2.985-2.056
				c0.675-2.07,2.009-4.282,2.226-6.289c-0.217,2.008-1.551,4.221-2.227,6.293l0.267,0.277c0,0,0,0,0.001,0
				c0.042,2.213,0.083,4.426,0.125,6.639c0.882,0.015,1.764,0.028,2.646,0.042c0.336-1.094,0.356-2.366,1.655-2.914
				c1.97,3.466,3.94,6.932,5.911,10.397c-1.044,2.264-2.088,4.529-3.427,7.432C367.184,269.638,366.606,268.34,366.028,267.04z
				 M357.165,253.188c-0.22,0.328-0.391,0.663-0.534,1C356.774,253.851,356.944,253.517,357.165,253.188z M356.499,254.523
				c-0.112,0.316-0.199,0.637-0.26,0.96C356.3,255.16,356.386,254.84,356.499,254.523z M385.898,333.861
				c-0.185,2.289-2.546,3.115-4.577,2.449c-3.902-1.282-4.282-4.582-3.876-8.277C380.83,329.604,386.361,328.1,385.898,333.861z
				 M387.718,326.26c-1.498,0.898-2.999,0.308-4.342-0.527c-1.735-1.081-2.041-2.732-1.629-4.607
				c0.685-3.128,3.505-4.758,5.09-7.255c0,0.001,0,0.002,0,0.004c0.29,0.878,0.583,1.755,0.877,2.632
				c0.176,1.71,0.155,3.471,0.582,5.115C388.739,323.327,389.798,325.009,387.718,326.26z M392.767,343.102
				c-0.833-3.372,2.714-2.028,3.09-4.589c-0.081-1.52-3.985-0.607-2.975-4.54c2.36-3.817,7.467-0.036,11.209-1.688
				c-1.679-3.122-1.679-3.122-8.673-2.794c-2.728-4.777,4.388-7.975,2.17-12.634c0.821-0.808,1.195-1.765,0.972-2.919l0.143-0.457
				c0,0.001,0,0.001,0,0.003c1.323-0.735,0.366-3.205,3.002-3.354c2.39,4.795,4.867,9.771,7.348,14.745
				c0.595-0.32,1.192-0.641,1.787-0.962c-1.354-6.092-4.457-11.472-7.701-16.795c-3.715-7.74-11.057-8.974-18.363-11.095
				c-1.475,4.376,0.588,7.002,2.258,9.73c0.809-0.693,1.618-1.386,2.478-2.123c-0.859,0.737-1.668,1.43-2.478,2.124
				c-0.063,2.641-0.125,5.281-0.191,7.922c-6.778-3.597-5.641,4.309-9.375,6.496c-3.859-6.032-4.596-13.373-7.914-19.557
				c1.229-6.101,4.064-12.272-1.527-18.473c4.118-0.691,3.972-7.166,9.079-4.534c1.532-4.594-9.105-5.562-2.217-10.798
				c2.892,2.819,6.861,3.669,10.415,5.325c-0.057,4.215-1.194,7.12-6.01,6.84c-0.14,2.056-0.001,4.243,1.767,4.547
				c5.164,0.886,7.205-3.924,10.373-6.53c1.981,0.457,3.168,1.646,4.114,3.475c-2.146,4.88-4.784,9.103-11.319,8.004
				c-0.051,0.552-0.103,1.104-0.154,1.657c3.687,4.219,7.416,5.679,12.146,1.134c4.649-4.468,8.729-1.231,12.479,1.925
				c5.13-2.039,5.684-7.881,9.702-10.741c2.372,0.738,2.573,3.348,4.074,4.813c0.519-0.004,1.038-0.008,1.558-0.013
				c-0.52,0.004-1.039,0.009-1.556,0.014c-0.309,1.776,0.11,3.356,1.262,4.743c0,0,0,0,0-0.001
				c2.496,7.89-2.532,11.919-8.404,15.304c1.468,2.706,4.667,3.501,4.836,6.515c0.003,0.474,0.005,0.946,0.007,1.419
				c-0.252,0.776-0.504,1.552-0.756,2.328c-1.697-0.371-3.397-0.754-4.864,0.858c1.679,3.208,3.359,6.417,5.042,9.624
				c-3.992,0.686-6.766-2.824-10.493-3.04c0,0.001,0,0.003,0,0.004c-0.861,0.925-0.584,1.792,0.125,2.642
				c0.32,3.536-1.522,6.951,0.023,10.694c0.785,1.9-1.594,3.456-3.526,4.037C401.407,343.689,397.023,345.097,392.767,343.102z
				 M400.325,307.521c-1.482,0.74-1.706,2.356-1.687,4.144C398.619,309.878,398.843,308.262,400.325,307.521z M400.867,307.309
				c0.395-0.118,0.856-0.19,1.398-0.207C401.724,307.118,401.262,307.19,400.867,307.309z M399.754,357.948
				c-1.288-7.102,3.592-7.912,9.834-9.417C406.327,352.991,401.769,354.152,399.754,357.948z M419.202,350.313
				c-4.321,3.643-6.571,8.205-5.688,14.212c-3.155-0.143-3.913-2.94-3.513-4c2.584-6.853,2.887-14.604,8.025-21.566
				c0.276-1.524-2.96-0.776-3.481-2.817c0.849-1.055,1.797-2.233,2.745-3.411v-0.002c1,0.388,1.998,0.774,2.997,1.16
				c-0.298,3.07-0.693,6.078,0.465,9.152C421.721,345.617,421.607,348.285,419.202,350.313z M431.501,333.231
				c-1.227-0.709-2.388-1.697-3.962-0.938h-0.001c-0.291-5.104,3.246-7.176,7.074-9.019c-0.116,1.021-0.173,1.978,1.347,1.318
				c-0.036,0.475-0.162,0.994,0.017,1.364c0.409,0.854,0.878,0.105,1.337-0.053C436.196,328.993,437.944,334.326,431.501,333.231z
				 M446.459,330.234c-3.613,2.352-5.63-1.811-7.975-3.871c-0.31-0.272-0.749-0.397-1.129-0.592
				c-0.004,0.01-0.007,0.021-0.011,0.031c-0.42-0.42-0.839-0.839-1.26-1.259c-0.218-0.718-0.012-1.868-1.336-1.448
				c0.615-2.266-1.543-3.325-2.251-5.015c-1.225-2.925-2.337-5.864,0.81-8.378c6.364-0.814,6.738,5.983,10.605,8.344
				c0.15,0.752,0.502,1.268,1.348,1.188c0.146,0.796,0.22,1.619,0.487,2.373C446.767,324.48,450.309,327.73,446.459,330.234z
				 M444.524,306.727c4.519,6.878,9.354,13.549,14.174,20.486c-3.437,2.612-4.736-0.409-6.509-1.956
				c-2.274-1.984-2.767-5.986-6.666-6.137c1.439-0.866,0.349-1.692-0.227-2.528c-3.675-4.292-5.215-10.623-11.692-12.233
				c-5.522-3.815-3.337-10.882-6.605-15.649c0.154-0.832,0.31-1.665,0.464-2.498c1.871,0.522,3.554,0.514,4.491-1.594
				c0.322-0.382,0.616-0.648,0.882-0.805c-0.266,0.157-0.56,0.423-0.88,0.805c0.855,0.211,1.711,0.424,2.565,0.637
				C434.489,293.974,440.157,300.081,444.524,306.727z M459.402,285.342c-3.15-6.054-2.78-11.78-4.788-16.729
				c-7.943,1.711-10.515-5.718-14.958-9.376c-3.241-2.668,0.615-6.883,1.762-10.218c0.709-2.061,2.648-3.684,5.206-1.674
				c0.634-0.047,1.268-0.094,1.899-0.14c0.207-1.718-0.953-2.705-2.003-3.75c0.587-1.238,1.36-2.652,2.906-1.83
				c2.64,1.405,1.911,4.149,2.058,6.498h-0.001l-0.008,0.184c-0.983-0.367-1.968-0.735-2.952-1.102
				c-0.632,0.046-1.266,0.093-1.899,0.141c-0.091,1.126,0.122,2.14,1.06,2.887c-0.249,2.182-0.605,4.377,0.753,6.203
				c2.191,1.396,3.91-0.843,5.875-0.426c0.177-1.359,0.354-2.719,0.528-4.079c-0.175,1.359-0.352,2.719-0.527,4.079
				c0.653,1.764,0.988,3.729,2.91,4.689c-0.403,1.669-0.161,3.154,1.256,4.305c-0.111,0.391-0.014,0.719,0.292,0.985
				c0.099,3.823-1.08,7.757,0.994,11.407C459.666,279.548,459.568,281.7,459.402,285.342z M482.923,269.734
				c1.347-1.945,2.969-4.116,2.21-6.885c-3.632-2.924-3.749-6.51-1.892-11.566c4.886,3.745,1.462,8.028,1.978,11.535
				c0,0-0.082,0.033-0.083,0.032C485.893,265.619,484.27,267.789,482.923,269.734z M487.658,237.479c0,2.607,0,5.215,0,7.936
				c-8.52-2.692-13.986-14.757-9.85-21.667c3.946,1.355,6.064,4.639,8.23,7.869C486.137,233.693,485.736,235.906,487.658,237.479z
				 M477.28,216.092c-1.932-4.647-3.176-9.579-4.708-14.339c6.511-0.267,15.529,13.303,16.403,26.109
				C484.012,223.955,479.379,221.144,477.28,216.092z M476.554,247.614c0.949-0.226,1.398-0.881,1.801-1.644
				C477.952,246.732,477.503,247.388,476.554,247.614c-0.679,0.662-1.358,1.323-2.039,1.985c0.465,0.839,0.606,1.438,0.532,1.873
				c0.073-0.436-0.067-1.033-0.532-1.873c-0.887-0.74-1.772-1.479-2.658-2.218l0,0c0.035-1.498-0.848-2.331-2.098-2.9
				c-1.846-7.688-5.171-15.099-4.591-23.346C471.259,229.098,472.878,238.79,476.554,247.614z M468.362,214.69
				c-7.734-3.419-8.932-5.627-7.168-13.226C467.67,202.054,469.385,205.218,468.362,214.69z M461.116,241.457
				c-0.426,0.611-0.853,1.222-1.278,1.833l-0.083-0.144c0,0,0,0,0,0c-0.252-0.342-0.561-0.405-0.927-0.191
				c-0.74-0.831-1.479-1.662-2.218-2.492c-0.769-1.532-1.959-2.937-1.457-4.85c-2.919-1.605-3.863-4.038-4.197-6.727
				c0.334,2.689,1.278,5.122,4.197,6.726c1.449-0.861,2.485-2.587,4.685-2.158C462.293,235.73,460.066,238.884,461.116,241.457z
				 M454.896,252.039c0-0.45-0.056-0.957-0.062-1.413C454.84,251.082,454.897,251.589,454.896,252.039L454.896,252.039z
				 M458.993,262.481c-0.152,0.745-0.304,1.491-0.456,2.235c0.152-0.745,0.304-1.491,0.454-2.234
				c-0.206-0.943-0.04-2.241-1.635-1.871c0.983-3.332-1.06-5.815-2.418-8.49c0.774-0.776,1.548-1.55,2.323-2.325
				c3.434,2.473,6.706,5.027,5.939,10.01C462.81,262.35,462.057,264.201,458.993,262.481z M466.365,270.616
				c2.077,0.315,0.607,2.898,2.212,3.51c0.305,0.089,0.567,0.188,0.794,0.298c-0.227-0.109-0.488-0.208-0.791-0.297
				c0.339,1.268,0.678,2.535,1.016,3.802c-0.859,8.009,3.66,15.246,3.641,23.333C463.562,296.646,459.23,276.574,466.365,270.616z
				 M470.186,260.633c0.072-1.317,0.145-2.635,0.218-3.953c0.111-0.681,0.226-1.362,0.338-2.042
				c-0.059-0.372-0.004-0.659,0.131-0.887c-0.134,0.227-0.188,0.514-0.13,0.885c1.418-0.541,2.448,0.363,3.561,0.954
				c-0.822,5.333,4.013,10.251,1.334,16.261C471.749,268.722,471.206,264.56,470.186,260.633z M494.377,315.376
				c0.149,1.65,1.509,2.914,2.129,4.754C495.886,318.289,494.525,317.025,494.377,315.376z M499.453,312.487
				c-0.027-0.472-0.405-0.928-1.115-1.366c0.044,0.943,0.088,1.887,0.13,2.829c-1.187,1.375-2.587,1.204-4.054,0.563
				c0,0.002,0,0.003,0,0.004c0,0.003-0.32-0.328-0.32-0.328c-2.561-0.656-5.12-1.313-7.684-1.966
				c-0.793-0.07-1.582-0.144-2.373-0.215c-5.415-9.705-8.414-20.096-8.871-31.208c0.465,0.026,0.87,0.134,1.197,0.353
				c-0.325-0.219-0.73-0.327-1.194-0.352c0.642,0.458,1.28,0.913,1.919,1.368c1.429,2.464,3.457,0.308,5.665,0.364
				c1.451,10.018,5.949,19.372,3.661,29.688c2.56,0.655,5.119,1.312,7.68,1.969c-4.522-9.152-3.526-19.469-6.118-29.03
				c-0.52-1.909-0.928-3.848-1.387-5.774c-1.288-0.329-1.392-1.753-2.33-2.622c0.938,0.868,1.042,2.293,2.33,2.621
				c0.457-0.816,0.916-1.631,1.374-2.446c6.604,7.341,6.359,17.049,8.854,25.8c0.775,2.717,1.028,5.583,1.521,8.38
				C499.048,311.56,499.426,312.016,499.453,312.487z M503.592,315.014c-3.636-15.827-8.204-31.453-10.271-47.619
				c-0.484-0.19-0.833-0.415-0.819-0.731c-0.014,0.316,0.335,0.54,0.819,0.73c-0.118-0.471-0.237-0.94-0.355-1.41
				c-0.381-2.195-0.76-4.389-1.142-6.583c-0.418-0.229-0.639-0.463-0.647-0.701c0.009,0.238,0.229,0.471,0.647,0.7
				c-0.011-0.476-0.02-0.952-0.029-1.427c0.006-0.853,0.014-1.705,0.021-2.558c-0.444-0.252-0.653-0.498-0.643-0.739
				c-0.011,0.241,0.198,0.486,0.643,0.738c0.011-0.482,0.023-0.963,0.034-1.445c4.521-17.956,3.562-35.222-6.55-51.3
				c-2.646-4.207-5.517-8.251-9.479-11.333c-7.085,5.037-9.36,3.819-11.094-6.247c-3.851,2.511-6.442,5.232-4.61,9.694
				c-1.753,2.215-3.77-1.077-5.88,2.599c0.43,8.309,0.393,18.294-3.486,27.73c-4.442,3.902-8.165,8.283-9.483,14.263
				c-3.697,4.168-2.425,10.82-7.218,14.44c-0.743,0.082-1.472,0.113-2.12-0.099c0.648,0.212,1.375,0.181,2.119,0.099
				c-0.667-1.852-2.119-1.29-3.442-1.123c2.38-3.441,4.222-6.768,0.768-10.816c-0.912-1.07,0.568-2.836,1.58-4.058
				c2.501-3.021,2.344-6.667,1.753-10.12c-0.498-2.92,0.558-4.045,3.406-4.379c-1.95-4.436-7.644-6.429-7.589-12.094
				c0.818-0.22,1.437-0.581,2-0.51c15.521,1.938,22.164-6.119,17.056-20.961c-2.086-6.063-2.418-12.013,0.246-17.85
				c1.633-3.573,3.909-4.955,8.412-3.129c7.883,3.195,13.965,8.911,18.733,15.042c8.017,10.308,15.964,21.074,19.15,34.267
				c3.178,0.631,3.692,2.436,3.743,4.469c0.006,0.225,0.006,0.455,0.004,0.685c0.002-0.23,0.002-0.459-0.004-0.685
				c-0.051-2.033-0.565-3.836-3.743-4.468c1.137,5.339,2.272,10.679,3.41,16.018c-0.429,2.456-0.593,4.906,0.164,7.335
				c-0.091,3.215,0.852,6.512-0.188,9.651c1.04-3.139,0.098-6.435,0.186-9.647c-1.593,3.641-1.135,7.442-0.891,11.226
				c-0.071,0.886-0.143,1.772-0.214,2.657c0.868,0.923,1.305,1.837,1.292,2.741c0.013-0.904-0.424-1.817-1.292-2.74
				c-0.695,1.793-0.646,3.603-0.117,5.422c-1.267,10.47,0.001,20.69,3.08,30.721c3.351,10.917,4.225,22.393,8.774,34.267
				C504.093,323.312,504.47,318.83,503.592,315.014z"/>
			<path fill-rule="evenodd" clip-rule="evenodd" fill="#338A81" d="M381.619,286.484c-0.555,2.168,0.319,3.329,2.454,3.646
				c0.051-0.553,0.103-1.105,0.153-1.657C383.057,288.228,383.634,285.69,381.619,286.484z"/>
		</g>
	</g>
</g>
<g id="Capa_2">
	<g>
		<g>
			<g>
				<path fill="#E30613" d="M186.694,445.314l-5.652-9.823l11.455-18.679l-0.05-0.087l-16.679,9.596l-5.225-9.082l31.176-17.935
					l5.375,9.344l-11.528,19.359l0.05,0.087l17.029-9.796l5.225,9.082L186.694,445.314z"/>
				<path fill="#E30613" d="M166.297,407.021l-4.231-10.24l33.233-13.733l4.231,10.24L166.297,407.021z"/>
				<path fill="#E30613" d="M182.3,352.867c3.699,1.572,5.994,4.924,7,8.72c2.723,10.271-3.583,18.715-13.464,21.335
					c-13.24,3.51-21.01-4.381-23.088-12.218c-2.348-8.859,0.986-15.733,8.751-19.459l2.723,10.271
					c-2.428,1.061-3.661,3.68-2.99,6.211c1.948,7.35,9.623,5.054,12.008,4.421c3.261-0.863,8.607-3.688,6.878-10.21
					c-0.658-2.483-2.595-4.679-5.316-4.529l1.252,4.721l-7.447,1.975l-3.769-14.213l19.13-5.072l1.793,6.767L182.3,352.867z"/>
				<path fill="#E30613" d="M147.348,342.151l-2.518-29.654l9.182-0.78l1.581,18.616l4.466-0.379l-1.436-16.91l8.53-0.725
					l1.436,16.91l4.466-0.38l-1.628-19.168l9.182-0.778l2.565,30.205L147.348,342.151z"/>
				<path fill="#E30613" d="M144.729,300.539l1.734-21.033c0.518-6.275,4.428-11.41,11.205-10.852
					c3.715,0.307,7.49,2.336,8.542,6.112c1.403-2.917,4.869-4.501,9.37-4.534c1.769-0.006,6.04,0.295,7.779-0.572l-0.91,11.043
					c-1.853,0.403-3.727,0.451-5.597,0.449c-3.438,0.02-7.026,0.027-7.387,4.394l-0.484,5.874l12.499,1.03l-0.911,11.043
					L144.729,300.539z M161.301,290.787l0.476-5.772c0.17-2.058,0.051-4.898-3.162-5.163c-2.259-0.187-3.667,0.961-4.016,5.177
					l-0.426,5.17L161.301,290.787z"/>
				<path fill="#E30613" d="M149.583,258.34l2.317-10.834l35.16,7.519l-2.317,10.834L149.583,258.34z"/>
				<path fill="#E30613" d="M157.536,227.493l3.582-10.217l38.259-0.461l-3.798,10.834l-5.346-0.273l-3.781,10.787l4.314,3.22
					l-3.682,10.502L157.536,227.493z M182.229,226.918l-11.52-0.624l-0.033,0.095l9.304,6.944L182.229,226.918z"/>
				<path fill="#E30613" d="M190.16,161.486l17.058-21.952l7.278,5.654l-10.259,13.203l3.539,2.75l8.807-11.334l6.761,5.253
					l-8.808,11.334l10.817,8.405l-6.798,8.749L190.16,161.486z"/>
				<path fill="#E30613" d="M225.995,119.634c8.035-7.41,18.731-6.585,26.176,1.488c7.444,8.072,7.401,18.8-0.633,26.21
					c-8.036,7.41-18.731,6.585-26.176-1.488C217.918,137.772,217.96,127.044,225.995,119.634z M245.459,140.741
					c2.074-1.913,3.995-6.22-1.435-12.107c-5.429-5.887-9.877-4.321-11.951-2.409c-2.074,1.913-3.994,6.22,1.435,12.107
					C238.938,144.22,243.386,142.653,245.459,140.741z"/>
				<path fill="#E30613" d="M263.241,91.139c9.255-5.816,19.621-3.049,25.463,6.249c5.843,9.297,3.841,19.837-5.415,25.653
					c-9.254,5.816-19.62,3.049-25.463-6.249C251.983,107.496,253.986,96.956,263.241,91.139z M278.519,115.449
					c2.389-1.5,5.065-5.384,0.803-12.165c-4.262-6.782-8.921-6.055-11.31-4.553c-2.388,1.501-5.064,5.384-0.802,12.166
					C271.471,117.677,276.131,116.95,278.519,115.449z"/>
				<path fill="#E30613" d="M300.441,82.734l-9.313,3.835l-3.509-8.522l28.871-11.887l3.509,8.521l-9.313,3.834l10.181,24.727
					l-10.244,4.218L300.441,82.734z"/>
				<path fill="#E30613" d="M326.317,63.01l19.191-4.411c9.228-2.121,12.386,2.63,13.21,6.213c0.812,3.534-0.465,5.843-2.74,7.864
					c3.389,0.357,6.91,2.184,8.094,7.337c1.613,7.019-3.638,12.049-9.822,13.471l-19.877,4.569L326.317,63.01z M340.251,74.172
					l5.694-1.308c2.257-0.52,3.534-1.484,3.015-3.742c-0.406-1.768-2.025-2.067-4.234-1.559l-5.694,1.309L340.251,74.172z
					 M343.252,87.228l6.331-1.455c2.258-0.519,4.074-1.608,3.455-4.308c-0.474-2.062-1.96-2.908-4.513-2.322l-6.773,1.557
					L343.252,87.228z"/>
				<path fill="#E30613" d="M379.011,53.713l10.81-0.615l15.115,35.155l-11.463,0.652l-1.8-5.042l-11.413,0.649l-1.317,5.22
					l-11.111,0.632L379.011,53.713z M389.022,76.296l-3.848-10.879l-0.101,0.006l-2.839,11.259L389.022,76.296z"/>
				<path fill="#E30613" d="M411.343,52.956l11.024,1.085l-2.618,26.611l15.837,1.558l-0.902,9.171l-26.861-2.643L411.343,52.956z"
					/>
				<path fill="#E30613" d="M448.518,57.454l10.748,2.691l-6.497,25.944l15.44,3.867l-2.239,8.94l-26.188-6.558L448.518,57.454z"/>
				<path fill="#E30613" d="M531.077,89.775l9.134,5.815l-8.264,37.368l-9.688-6.167l1.484-5.145l-9.645-6.14l-4.119,3.468
					l-9.39-5.977L531.077,89.775z M526.013,113.955l3.23-11.078l-0.084-0.054l-8.882,7.481L526.013,113.955z"/>
				<path fill="#E30613" d="M548.587,131.792c-0.603,0.676-1.027,1.378-1.274,2.035c-0.84,2.153,0.663,4.1,2.204,5.475
					c1.354,1.207,3.824,2.599,5.601,0.606c1.24-1.391,0.41-2.806-3.041-8.245c-3.177-4.99-6.987-10.48-2.161-15.894
					c5.53-6.204,13.212-4.146,18.739,0.781c5.827,5.195,9.001,12.005,3.394,18.749l-7.82-6.972c1.056-0.881,1.208-1.96,0.934-3.015
					c-0.241-1.092-1.014-2.118-1.841-2.855c-1.127-1.006-3.238-2.347-4.579-0.843c-1.56,2.051,1.908,5.884,4.766,10.322
					c2.859,4.438,5.044,9.558,0.652,14.482c-6.234,6.993-14.675,3.518-20.652-1.812c-3.045-2.715-10.759-11.548-3.191-20.188
					L548.587,131.792z"/>
				<path fill="#E30613" d="M573.941,157.048c-0.701,0.575-1.228,1.203-1.574,1.813c-1.162,1.997,0.022,4.152,1.332,5.748
					c1.15,1.4,3.375,3.157,5.438,1.464c1.44-1.183,0.839-2.709-1.729-8.614c-2.366-5.42-5.283-11.431,0.321-16.033
					c6.422-5.272,13.689-2.054,18.388,3.667c4.953,6.032,7.036,13.249,0.456,19.043l-6.647-8.095
					c1.18-0.707,1.496-1.749,1.389-2.833c-0.07-1.116-0.674-2.249-1.378-3.105c-0.958-1.167-2.836-2.818-4.392-1.54
					c-1.857,1.786,0.974,6.106,3.112,10.931c2.138,4.826,3.505,10.219-1.593,14.406c-7.24,5.944-15.039,1.207-20.12-4.981
					c-2.588-3.152-8.842-13.068-0.032-20.432L573.941,157.048z"/>
				<path fill="#E30613" d="M620.824,180.966c5.402,9.501,2.182,19.734-7.364,25.162c-9.544,5.427-19.986,2.962-25.388-6.54
					c-5.402-9.501-2.182-19.734,7.364-25.162C604.98,168.999,615.422,171.464,620.824,180.966z M595.866,195.156
					c1.395,2.452,5.155,5.296,12.116,1.338c6.963-3.958,6.441-8.645,5.048-11.098c-1.395-2.452-5.155-5.296-12.117-1.338
					C593.95,188.018,594.473,192.704,595.866,195.156z"/>
				<path fill="#E30613" d="M628.433,233.519c1.171-0.621,4.6-2.878,3.095-7.208c-1.703-4.901-7.008-4.817-11.574-3.229
					c-4.568,1.587-8.781,4.811-7.077,9.712c1.223,3.521,4.177,4.041,7.579,3.552l3.572,10.277
					c-6.851,2.381-16.065-0.655-19.522-10.6c-3.818-10.991,1.771-19.919,11.81-23.409c10.705-3.721,20.143,0.572,23.781,11.039
					c3.193,9.343,0.078,16.185-8.125,20.048L628.433,233.519z"/>
				<path fill="#E30613" d="M646.562,249.196l2.241,10.852l-35.218,7.272l-2.241-10.851L646.562,249.196z"/>
				<path fill="#E30613" d="M651.702,280.61l0.842,10.797l-34.838,15.852l-0.892-11.449l5.005-1.906l-0.89-11.399l-5.248-1.208
					l-0.864-11.098L651.702,280.61z M629.33,291.095l10.797-4.076l-0.008-0.1l-11.318-2.604L629.33,291.095z"/>
				<path fill="#E30613" d="M643.478,316.983l0.686-10.048l9.194,0.627l-2.128,31.148l-9.193-0.628l0.687-10.047l-26.676-1.821
					l0.753-11.053L643.478,316.983z"/>
				<path fill="#E30613" d="M649.498,347.57l-2.067,10.887l-35.334-6.708l2.067-10.888L649.498,347.57z"/>
				<path fill="#E30613" d="M640.753,385.924c-3.464,10.364-13.23,14.799-23.644,11.318c-10.412-3.481-15.548-12.898-12.082-23.262
					c3.465-10.365,13.23-14.8,23.643-11.318C639.083,366.144,644.218,375.559,640.753,385.924z M613.529,376.822
					c-0.896,2.674-0.502,7.373,7.094,9.912c7.594,2.539,10.733-0.978,11.629-3.652c0.895-2.676,0.5-7.374-7.095-9.912
					C617.563,370.631,614.422,374.147,613.529,376.822z"/>
				<path fill="#E30613" d="M629.359,413.397l-5.482,9.916l-21.904-0.143l-0.048,0.088l16.835,9.31l-5.068,9.166l-31.467-17.399
					l5.215-9.43l22.523-0.148l0.05-0.088l-17.188-9.504l5.07-9.167L629.359,413.397z"/>
			</g>
			<g>
				<path fill="#E30613" d="M324.115,509.309l10.004,4.148l-1.682,38.242l-10.609-4.399l0.573-5.324l-10.562-4.384l-3.458,4.129
					l-10.283-4.264L324.115,509.309z M323.306,534.006l1.267-11.473l-0.093-0.039l-7.457,8.906L323.306,534.006z"/>
				<path fill="#E30613" d="M349.458,519.141l19.354,3.639c9.307,1.749,10.3,7.369,9.621,10.981
					c-0.67,3.563-2.766,5.169-5.658,6.111c2.962,1.686,5.458,4.767,4.481,9.965c-1.33,7.078-8.156,9.586-14.393,8.416l-20.047-3.77
					L349.458,519.141z M355.287,548.115l6.385,1.201c2.278,0.429,4.377,0.157,4.889-2.566c0.391-2.08-0.632-3.45-3.206-3.935
					l-6.831-1.284L355.287,548.115z M357.761,534.949l5.742,1.079c2.276,0.427,3.833,0.055,4.262-2.222
					c0.335-1.783-1.03-2.705-3.257-3.125l-5.742-1.079L357.761,534.949z"/>
				<path fill="#E30613" d="M419.871,546.658c0.341,9.967-4.883,14.932-15.857,15.305c-10.974,0.373-16.572-4.225-16.911-14.19
					l-0.75-22.05l11.073-0.377l0.665,19.583c0.125,3.675,0.28,8.255,5.667,8.071c5.235-0.178,5.08-4.758,4.955-8.433l-0.665-19.582
					l11.074-0.374L419.871,546.658z"/>
				<path fill="#E30613" d="M455.574,540.75c2.121,9.692-1.426,14.441-10.233,16.371c-8.905,1.951-13.979-2.145-15.66-9.818
					l-0.649-2.953l9.742-2.137l0.443,2.02c0.593,2.705,1.144,5.214,4.044,4.577c2.805-0.612,1.865-3.964,1.52-5.539l-4.958-22.633
					l10.822-2.372L455.574,540.75z"/>
				<path fill="#E30613" d="M466.308,512.521l9.947-4.278l26.235,27.854l-10.547,4.537l-3.417-4.12l-10.501,4.517l0.551,5.356
					l-10.222,4.398L466.308,512.521z M483.446,530.312l-7.337-8.902l-0.094,0.039l1.187,11.549L483.446,530.312z"/>
			</g>
			<circle fill="#E30613" cx="556.406" cy="482.133" r="8.488"/>
			<circle fill="#E30613" cx="242.259" cy="482.133" r="8.488"/>
		</g>
		<g>
			<path fill="#E30613" d="M399.667,37.287c36.328,0,71.561,7.111,104.72,21.136c32.035,13.55,60.81,32.952,85.525,57.667
				c24.714,24.714,44.116,53.489,57.666,85.524c14.024,33.158,21.136,68.391,21.136,104.72c0,36.328-7.111,71.562-21.136,104.72
				c-13.55,32.036-32.952,60.812-57.666,85.525s-53.49,44.115-85.525,57.666c-33.159,14.024-68.392,21.136-104.72,21.136
				c-36.329,0-71.562-7.111-104.72-21.136c-32.036-13.551-60.811-32.952-85.525-57.666c-24.715-24.714-44.116-53.489-57.666-85.525
				c-14.025-33.157-21.136-68.392-21.136-104.72c0-36.329,7.111-71.562,21.136-104.72c13.55-32.036,32.951-60.811,57.666-85.524
				c24.714-24.715,53.489-44.117,85.525-57.667C328.105,44.397,363.338,37.287,399.667,37.287 M399.667,20
				c-158.138,0-286.333,128.196-286.333,286.333c0,158.139,128.195,286.333,286.333,286.333
				C557.804,592.666,686,464.472,686,306.333C686,148.196,557.804,20,399.667,20L399.667,20z"/>
			<path fill="#E30613" d="M399.667,110.681c52.261,0,101.393,20.352,138.347,57.306c36.955,36.954,57.306,86.086,57.306,138.347
				c0,52.261-20.351,101.394-57.306,138.347c-36.954,36.954-86.086,57.306-138.347,57.306s-101.394-20.352-138.348-57.306
				c-36.954-36.953-57.305-86.086-57.305-138.347c0-52.26,20.352-101.393,57.305-138.347
				C298.273,131.032,347.406,110.681,399.667,110.681 M399.667,102.703c-112.463,0-203.631,91.169-203.631,203.63
				c0,112.463,91.168,203.631,203.631,203.631c112.462,0,203.631-91.168,203.631-203.631
				C603.298,193.872,512.129,102.703,399.667,102.703L399.667,102.703z"/>
		</g>
	</g>
	<g>
	</g>
	<g>
	</g>
	<g>
	</g>
	<g>
	</g>
	<g>
	</g>
	<g>
	</g>
</g>
</svg>
