<svg width="64" height="64" viewBox="0 0 64 64" fill="none" xmlns="http://www.w3.org/2000/svg">
<path d="M0 39.773V25.7985H6.1887C7.05379 25.7985 7.83902 25.9982 8.5444 26.3974C9.24974 26.7834 9.80214 27.3091 10.2014 27.9746C10.614 28.64 10.8203 29.3986 10.8203 30.2504C10.8203 31.0889 10.614 31.8541 10.2014 32.5462C9.80214 33.225 9.24974 33.764 8.5444 34.1632C7.83902 34.5625 7.05379 34.7622 6.1887 34.7622H2.89472V39.773H0ZM7.92553 39.773L4.37202 33.4645L7.44641 32.9654L11.3992 39.793L7.92553 39.773ZM2.89472 32.3266H6.04896C6.4083 32.3266 6.72106 32.2468 6.98725 32.087C7.26674 31.914 7.47968 31.6811 7.62608 31.3883C7.77247 31.0822 7.84568 30.7428 7.84568 30.3702C7.84568 29.9709 7.75917 29.6249 7.58615 29.3321C7.41314 29.0393 7.16026 28.813 6.82754 28.6533C6.49481 28.4803 6.10885 28.3938 5.66965 28.3938H2.89472V32.3266Z" fill="black"/>
<path d="M17.2019 39.9727C16.0573 39.9727 15.0524 39.7398 14.1873 39.2739C13.3356 38.8081 12.6702 38.1692 12.191 37.3574C11.7252 36.5456 11.4922 35.6139 11.4922 34.5625C11.4922 33.7374 11.6254 32.9854 11.8915 32.3067C12.1577 31.6279 12.5304 31.0423 13.0095 30.5499C13.4886 30.0441 14.0543 29.6582 14.7065 29.392C15.3719 29.1125 16.0906 28.9727 16.8625 28.9727C17.5812 28.9727 18.2466 29.1058 18.8589 29.372C19.4711 29.6382 19.9968 30.0109 20.436 30.49C20.8885 30.9558 21.2346 31.5148 21.4741 32.1669C21.7137 32.8058 21.8201 33.4978 21.7935 34.2431L21.7736 35.1215H13.2891L12.8298 33.3847H19.4378L19.1184 33.744V33.3048C19.0918 32.9455 18.972 32.6261 18.759 32.3466C18.5594 32.0538 18.2999 31.8275 17.9805 31.6678C17.6611 31.4948 17.3016 31.4083 16.9024 31.4083C16.3168 31.4083 15.8178 31.5214 15.4051 31.7477C15.0058 31.9739 14.6998 32.3067 14.4868 32.7459C14.2739 33.1851 14.1674 33.7174 14.1674 34.3429C14.1674 34.9818 14.3005 35.5341 14.5667 35.9999C14.8462 36.4658 15.2321 36.8317 15.7246 37.0979C16.2303 37.3507 16.8225 37.4772 17.5013 37.4772C17.9671 37.4772 18.3931 37.404 18.779 37.2576C19.1649 37.1112 19.5775 36.8583 20.0168 36.499L21.3743 38.3955C20.9883 38.7416 20.5624 39.0344 20.0966 39.2739C19.6308 39.5002 19.1517 39.6732 18.6592 39.793C18.1668 39.9128 17.6811 39.9727 17.2019 39.9727Z" fill="black"/>
<path d="M26.4438 39.9727C25.4588 39.9727 24.5805 39.813 23.8086 39.4936C23.0499 39.1609 22.4378 38.7083 21.9719 38.136L23.7487 36.6188C24.1479 37.058 24.6004 37.3774 25.1062 37.5771C25.612 37.7634 26.1176 37.8565 26.6234 37.8565C26.8231 37.8565 27.0027 37.8366 27.1624 37.7967C27.3354 37.7435 27.4819 37.6769 27.6016 37.597C27.7214 37.5039 27.808 37.3974 27.8612 37.2776C27.9277 37.1445 27.961 37.0048 27.961 36.8584C27.961 36.5656 27.8412 36.3393 27.6016 36.1796C27.4686 36.0998 27.2623 36.0132 26.9828 35.9201C26.7033 35.8136 26.3439 35.7005 25.9047 35.5807C25.226 35.4077 24.647 35.2081 24.1679 34.9818C23.7021 34.7422 23.3294 34.4761 23.0499 34.1833C22.8104 33.9038 22.624 33.6043 22.491 33.2849C22.3712 32.9522 22.3113 32.5862 22.3113 32.1869C22.3113 31.7078 22.4178 31.2752 22.6307 30.8893C22.8436 30.49 23.1365 30.1506 23.5091 29.8711C23.8951 29.5916 24.3343 29.3787 24.8267 29.2323C25.3191 29.0726 25.8382 28.9927 26.3839 28.9927C26.9296 28.9927 27.4619 29.0593 27.9809 29.1924C28.5 29.3255 28.9791 29.5184 29.4183 29.7713C29.8708 30.0109 30.2635 30.297 30.5962 30.6297L29.0789 32.3067C28.8394 32.0804 28.5666 31.8741 28.2604 31.6878C27.9677 31.5015 27.6615 31.3551 27.3421 31.2486C27.0227 31.1422 26.7365 31.0889 26.4837 31.0889C26.2574 31.0889 26.0512 31.1089 25.8648 31.1488C25.6918 31.1887 25.5454 31.2553 25.4256 31.3484C25.3058 31.4283 25.2127 31.5281 25.1461 31.6479C25.0929 31.7677 25.0663 31.9008 25.0663 32.0472C25.0663 32.1936 25.0995 32.3333 25.1661 32.4664C25.2459 32.5995 25.3524 32.7126 25.4855 32.8058C25.6319 32.8856 25.8448 32.9788 26.1243 33.0853C26.4171 33.1917 26.8098 33.3115 27.3022 33.4446C27.941 33.6176 28.48 33.8106 28.9192 34.0236C29.3717 34.2365 29.7311 34.4827 29.9973 34.7622C30.2236 35.0018 30.3898 35.2746 30.4964 35.5807C30.6029 35.8868 30.6561 36.2262 30.6561 36.5988C30.6561 37.2509 30.4697 37.8299 30.0971 38.3357C29.7377 38.8414 29.2386 39.2407 28.5998 39.5335C27.961 39.8262 27.2423 39.9727 26.4438 39.9727Z" fill="black"/>
<path d="M36.6898 39.9727C35.5451 39.9727 34.5404 39.7398 33.6753 39.2739C32.8235 38.8081 32.158 38.1692 31.6789 37.3574C31.2131 36.5456 30.9802 35.6139 30.9802 34.5625C30.9802 33.7374 31.1132 32.9854 31.3795 32.3067C31.6457 31.6279 32.0183 31.0423 32.4974 30.5499C32.9765 30.0441 33.5422 29.6582 34.1943 29.392C34.8598 29.1125 35.5785 28.9727 36.3504 28.9727C37.0691 28.9727 37.7345 29.1058 38.3467 29.372C38.9589 29.6382 39.4847 30.0109 39.9239 30.49C40.3763 30.9558 40.7224 31.5148 40.962 32.1669C41.2015 32.8058 41.308 33.4978 41.2814 34.2431L41.2614 35.1215H32.7769L32.3177 33.3847H38.9257L38.6063 33.744V33.3048C38.5796 32.9455 38.4598 32.6261 38.2469 32.3466C38.0473 32.0538 37.7878 31.8275 37.4683 31.6678C37.1489 31.4948 36.7896 31.4083 36.3903 31.4083C35.8047 31.4083 35.3056 31.5214 34.893 31.7477C34.4938 31.9739 34.1876 32.3067 33.9747 32.7459C33.7618 33.1851 33.6553 33.7174 33.6553 34.3429C33.6553 34.9818 33.7884 35.5341 34.0546 35.9999C34.3341 36.4658 34.7201 36.8317 35.2125 37.0979C35.7182 37.3507 36.3104 37.4772 36.9892 37.4772C37.4551 37.4772 37.8809 37.404 38.2669 37.2576C38.6529 37.1112 39.0654 36.8583 39.5046 36.499L40.8621 38.3955C40.4761 38.7416 40.0503 39.0344 39.5845 39.2739C39.1186 39.5002 38.6395 39.6732 38.1471 39.793C37.6547 39.9128 37.1689 39.9727 36.6898 39.9727Z" fill="black"/>
<path d="M42.3781 39.773V29.2123H45.0931L45.173 31.3684L44.614 31.608C44.7604 31.1288 45.02 30.6963 45.3926 30.3103C45.7786 29.9111 46.2377 29.5916 46.7701 29.3521C47.3025 29.1125 47.8615 28.9927 48.447 28.9927C49.2455 28.9927 49.911 29.1524 50.4434 29.4719C50.9891 29.7913 51.395 30.2771 51.6611 30.9292C51.9406 31.568 52.0804 32.3599 52.0804 33.3049V39.773H49.2455V33.5245C49.2455 33.0453 49.1791 32.6461 49.0459 32.3267C48.9129 32.0072 48.7065 31.7743 48.427 31.6279C48.1609 31.4815 47.8281 31.415 47.4289 31.4283C47.1094 31.4283 46.81 31.4815 46.5305 31.588C46.2644 31.6812 46.0314 31.8209 45.8318 32.0072C45.6455 32.1936 45.4924 32.4065 45.3726 32.6461C45.2662 32.8856 45.2129 33.1452 45.2129 33.4246V39.773H43.8155C43.5094 39.773 43.2365 39.773 42.997 39.773C42.7574 39.773 42.5512 39.773 42.3781 39.773Z" fill="black"/>
<path d="M57.9311 39.9727C56.9995 39.9727 56.1677 39.7398 55.4356 39.2739C54.7169 38.7948 54.1447 38.1493 53.7188 37.3375C53.3062 36.5123 53.0999 35.5607 53.0999 34.4827C53.0999 33.4313 53.3062 32.493 53.7188 31.6678C54.1447 30.8294 54.7169 30.1772 55.4356 29.7114C56.1677 29.2323 56.9995 28.9927 57.9311 28.9927C58.4236 28.9927 58.896 29.0726 59.3485 29.2323C59.8143 29.3787 60.2269 29.585 60.5862 29.8511C60.959 30.1173 61.2584 30.4168 61.4846 30.7495C61.7109 31.0689 61.8374 31.4017 61.8639 31.7477L61.1452 31.8874V25H64V39.773H61.3049L61.1851 37.3375L61.7441 37.3974C61.7176 37.73 61.5978 38.0495 61.3848 38.3556C61.1719 38.6617 60.8857 38.9412 60.5263 39.1941C60.1804 39.4336 59.7811 39.6266 59.3285 39.773C58.8893 39.9061 58.4236 39.9727 57.9311 39.9727ZM58.5699 37.617C59.1023 37.617 59.5681 37.4839 59.9674 37.2177C60.3666 36.9515 60.6795 36.5855 60.9056 36.1197C61.1319 35.6538 61.245 35.1082 61.245 34.4827C61.245 33.8705 61.1319 33.3315 60.9056 32.8656C60.6795 32.3998 60.3666 32.0338 59.9674 31.7676C59.5681 31.5015 59.1023 31.3684 58.5699 31.3684C58.0376 31.3684 57.5717 31.5015 57.1725 31.7676C56.7866 32.0338 56.4804 32.3998 56.2541 32.8656C56.0412 33.3315 55.9347 33.8705 55.9347 34.4827C55.9347 35.1082 56.0412 35.6538 56.2541 36.1197C56.4804 36.5855 56.7866 36.9515 57.1725 37.2177C57.5717 37.4839 58.0376 37.617 58.5699 37.617Z" fill="black"/>
</svg>
